<?xml version="1.0" encoding="UTF-8"?>
<svg version="1.1" xmlns="http://www.w3.org/2000/svg" width="1024" height="1024">
<path d="M0 0 C337.92 0 675.84 0 1024 0 C1024 337.92 1024 675.84 1024 1024 C686.08 1024 348.16 1024 0 1024 C0 686.08 0 348.16 0 0 Z " fill="#191D27" transform="translate(0,0)"/>
<path d="M0 0 C0.7861972 0.08925751 1.57239441 0.17851501 2.38241577 0.27047729 C19.85905537 2.25945254 37.1063741 5.08216814 54.33984375 8.59375 C66.75067722 11.02667885 79.08051069 11.76804266 91.6875 12.25 C89.30923986 14.86189152 86.76814312 16.5376684 83.734375 18.33203125 C82.7330957 18.92773926 81.73181641 19.52344727 80.70019531 20.13720703 C79.08516113 21.09022705 79.08516113 21.09022705 77.4375 22.0625 C75.17683298 23.40973624 72.91642241 24.7574029 70.65625 26.10546875 C69.49099979 26.79885761 68.32563487 27.49205373 67.16015625 28.18505859 C66.58410645 28.52760681 66.00805664 28.87015503 65.41455078 29.2230835 C64.84462402 29.56196594 64.27469727 29.90084839 63.6875 30.25 C59.4310819 32.78112844 55.1815876 35.32325779 50.9375 37.875 C49.98069336 38.4419458 49.02388672 39.0088916 48.03808594 39.59301758 C41.23426367 43.69431261 35.28066848 47.92546425 31.6875 55.25 C31.06004593 62.45957025 33.37631419 68.56569647 37.6875 74.25 C43.99192273 81.28537029 51.93007228 86.21399036 59.70849609 91.44555664 C74.89658648 101.7279992 86.42502609 114.32183331 90.30151367 132.79418945 C90.97030229 137.04930946 90.98398114 141.26338883 90.9375 145.5625 C90.92928223 146.48820801 90.92106445 147.41391602 90.91259766 148.36767578 C90.60303094 167.35110556 84.96633002 183.64785117 71.75 197.5625 C65.06637002 203.94936649 58.44131973 207.64433476 49.125 208.625 C33.13365644 208.07145349 17.21651244 198.77251135 5.6875 188.25 C5.2121582 187.81703613 4.73681641 187.38407227 4.24707031 186.93798828 C-10.04423196 173.7527245 -20.44385036 157.45511349 -26.6875 139.0625 C-26.92621826 138.36294189 -27.16493652 137.66338379 -27.41088867 136.94262695 C-33.37644938 118.29081056 -34.6959337 95.29982031 -26.3125 77.25 C-23.65449331 72.45810061 -20.44591449 69.31894973 -16.1875 65.9375 C-10.88306123 61.48664908 -9.00928036 55.7670589 -7.97265625 49.046875 C-7.5484651 40.4273109 -11.99806756 32.71318531 -17.3125 26.25 C-23.7850318 19.83946563 -30.50360419 16.46843086 -39.63671875 16.125 C-56.14830414 16.70626593 -70.83029271 25.58059884 -82.01171875 37.45703125 C-92.91265499 50.6899165 -100.45873877 65.62047654 -107.3125 81.25 C-107.61881348 81.93674805 -107.92512695 82.62349609 -108.24072266 83.33105469 C-118.70486211 107.21124273 -123.16587922 134.67221008 -127.3125 160.25 C-127.43175842 160.98025391 -127.55101685 161.71050781 -127.67388916 162.46289062 C-133.92088406 201.00786605 -136.77286619 240.01624668 -140.11021805 278.89521027 C-140.31585412 281.28904578 -140.52207837 283.68282994 -140.72848511 286.07659912 C-141.13483162 290.78928404 -141.54038767 295.50203646 -141.9453125 300.21484375 C-142.00645926 300.92636156 -142.06760601 301.63787937 -142.1306057 302.37095833 C-142.94261151 311.82886865 -143.73316423 321.28831712 -144.5 330.75 C-144.58640244 331.81468002 -144.67280487 332.87936005 -144.76182556 333.9763031 C-145.27492033 340.41206338 -145.40459804 346.79526578 -145.3125 353.25 C-144.58546875 352.39019531 -143.8584375 351.53039062 -143.109375 350.64453125 C-136.47889237 342.83584059 -129.73412719 335.16113545 -122.69580078 327.71679688 C-121.43244621 326.37718616 -120.18229885 325.02515147 -118.93359375 323.671875 C-101.29309943 305.16577267 -77.7585885 289.68547117 -51.625 289 C-38.6319718 289.13763801 -26.80008919 292.87294391 -17.125 301.8125 C2.52084752 322.98814712 5.45926761 353.38798224 4.828125 380.90185547 C2.44330953 437.68199328 -29.75569638 480.5135739 -69.3125 518.25 C-72.82834541 521.44491394 -76.55809865 524.34217934 -80.3125 527.25 C-81.55776299 528.26838631 -82.79969058 529.29085867 -84.0390625 530.31640625 C-91.89051751 536.80665068 -99.85716351 542.98953807 -108.22998047 548.79492188 C-110.6052953 550.45457913 -112.96040601 552.141167 -115.31640625 553.828125 C-126.18533345 561.56082153 -137.24871758 568.85548407 -148.625 575.8125 C-149.5575058 576.3876384 -149.5575058 576.3876384 -150.5088501 576.97439575 C-152.26737692 578.05603418 -154.03252337 579.1257692 -155.80078125 580.19140625 C-156.81696533 580.80701416 -157.83314941 581.42262207 -158.88012695 582.05688477 C-160.08415161 582.64747681 -160.08415161 582.64747681 -161.3125 583.25 C-161.9725 582.92 -162.6325 582.59 -163.3125 582.25 C-150.85852973 567.81340386 -150.85852973 567.81340386 -145.5625 562 C-141.78757128 557.83385139 -138.22295163 553.52646105 -134.6875 549.15625 C-132.59593207 546.59683134 -130.47139954 544.07367784 -128.32446289 541.56103516 C-122.64012684 534.90713007 -117.18482654 528.10182455 -111.82080078 521.18798828 C-110.2097442 519.11797094 -108.58798605 517.0566458 -106.96484375 514.99609375 C-81.61363906 482.74443552 -52.36141826 445.29192164 -52 402.5 C-51.95649414 400.80617188 -51.95649414 400.80617188 -51.91210938 399.078125 C-51.84644898 390.35034381 -53.36476241 382.97641888 -58.5625 375.8125 C-63.01645066 371.6622278 -67.57774215 370.14785777 -73.625 369.8125 C-87.81103308 370.37311643 -99.56260707 379.86630024 -109.3125 389.25 C-110.12589844 390.01183594 -110.93929688 390.77367187 -111.77734375 391.55859375 C-129.06858347 408.19424144 -143.27460145 429.59049197 -155.63671875 450.0703125 C-156.00434326 450.6789917 -156.37196777 451.2876709 -156.75073242 451.91479492 C-157.74941167 453.58216903 -158.73455087 455.25763171 -159.71875 456.93359375 C-160.2446875 457.69800781 -160.770625 458.46242188 -161.3125 459.25 C-161.9725 459.25 -162.6325 459.25 -163.3125 459.25 C-163.93815542 456.29180397 -164.56303721 453.33344783 -165.1875 450.375 C-165.36152344 449.55257813 -165.53554688 448.73015625 -165.71484375 447.8828125 C-166.07159254 446.19155899 -166.42560233 444.49972578 -166.77709961 442.80737305 C-167.12505663 441.14533482 -167.48214472 439.48517284 -167.84985352 437.82739258 C-169.28645582 431.14365925 -169.91561846 424.49201401 -170.5 417.6875 C-171.83093656 403.42011727 -173.73610342 389.24808724 -175.75 375.0625 C-175.96781631 373.50461258 -175.96781631 373.50461258 -176.19003296 371.91525269 C-178.65117778 354.37485553 -181.28764939 336.86766739 -187.0625 320.0625 C-187.40539062 319.05203613 -187.74828125 318.04157227 -188.1015625 317.00048828 C-190.89357528 309.00019983 -194.21476197 301.45780427 -198.31689453 294.04833984 C-199.32537725 292.22674011 -200.30199713 290.3902976 -201.27734375 288.55078125 C-205.5065787 280.71851505 -210.44719866 273.93251264 -216.3125 267.25 C-216.97121094 266.45851563 -217.62992188 265.66703125 -218.30859375 264.8515625 C-232.29643253 248.35885923 -250.91696385 239.0371311 -272.328125 236.95703125 C-290.00950767 236.15135248 -307.38519733 244.71158109 -320.3125 256.25 C-321.43591797 257.23226562 -321.43591797 257.23226562 -322.58203125 258.234375 C-343.64358028 277.85739441 -353.47677147 308.65805364 -358.89086914 336.1159668 C-359.18839016 337.62183316 -359.49581516 339.12575916 -359.81030273 340.62817383 C-361.91009748 350.7529267 -363.08054535 360.98979501 -364.3125 371.25 C-364.44301758 372.3215332 -364.57353516 373.39306641 -364.70800781 374.49707031 C-367.32208634 396.36322099 -368.38143658 418.26052185 -369.3125 440.25 C-372.01597025 437.68604742 -374.12129452 435.23414502 -376.01953125 432.03125 C-376.51598145 431.19601807 -377.01243164 430.36078613 -377.52392578 429.50024414 C-378.05228027 428.59266357 -378.58063477 427.68508301 -379.125 426.75 C-379.68687012 425.7902124 -380.24874023 424.8304248 -380.82763672 423.84155273 C-409.92588492 373.68883189 -432.89880513 321.25702164 -442.0625 263.75 C-442.16986481 263.0805838 -442.27722961 262.4111676 -442.3878479 261.72146606 C-449.82529736 214.8345782 -444.83654472 162.7607536 -416.30102539 123.38427734 C-411.4411665 116.90507714 -406.01914361 110.98782745 -400.3125 105.25 C-399.83055176 104.76402344 -399.34860352 104.27804687 -398.85205078 103.77734375 C-372.83242493 77.90750917 -336.07296892 64.22498746 -299.625 64 C-266.45577078 64.2034922 -235.56718131 72.7409418 -211.3125 96.25 C-210.71308594 96.7759375 -210.11367188 97.301875 -209.49609375 97.84375 C-183.37922768 121.59737297 -173.15572682 166.29535037 -167.3125 199.25 C-166.79401718 202.0571697 -166.26649257 204.86261527 -165.73828125 207.66796875 C-165.53168884 208.76739807 -165.53168884 208.76739807 -165.32092285 209.88903809 C-164.98507824 211.67608111 -164.64883119 213.46304849 -164.3125 215.25 C-164.28157761 214.70194702 -164.25065521 214.15389404 -164.21879578 213.5892334 C-160.65711375 150.77521954 -156.08902947 89.81875901 -110.3125 42.25 C-109.83731934 41.74903809 -109.36213867 41.24807617 -108.87255859 40.73193359 C-93.34901596 24.4251154 -75.46706449 11.28980292 -54.3125 3.25 C-53.15234375 2.77626953 -53.15234375 2.77626953 -51.96875 2.29296875 C-35.46038915 -3.95926493 -17.11167554 -1.98917395 0 0 Z " fill="#7CCB4D" transform="translate(687.3125,176.75)"/>
<path d="M0 0 C2.52709352 2.42600978 4.84906835 4.96705618 7.125 7.625 C8.41167153 9.08774237 9.7037232 10.54576297 11 12 C12.04607422 13.18335938 12.04607422 13.18335938 13.11328125 14.390625 C21.66733076 23.53411321 34.16639805 33.35849277 47 35 C48.96131352 35.01607634 50.92265728 35.03145772 52.8840332 35.03515625 C59.12750672 35.11583804 63.58900446 35.54240858 68.3125 40.0625 C69.94537604 41.98401575 71.50249921 43.97120767 73 46 C73.67820801 46.91386475 73.67820801 46.91386475 74.37011719 47.84619141 C77.75323229 52.45565694 80.90864127 57.19149587 84 62 C84.6496875 62.98742187 85.299375 63.97484375 85.96875 64.9921875 C94.26951383 78.31114038 99.66718297 93.54325463 102.59423828 108.91650391 C102.99003245 110.94881885 103.44323191 112.96166158 103.90234375 114.98046875 C106.23128473 126.1536382 106.26410914 137.3239976 106.25 148.6875 C106.24931519 149.47201538 106.24863037 150.25653076 106.2479248 151.06481934 C106.2048934 166.04052991 105.61383069 180.87338473 103.25 195.6875 C103.07227051 196.8027002 102.89454102 197.91790039 102.71142578 199.06689453 C96.14301728 238.98436057 81.16044292 277.11943878 56 309 C55.53255371 309.60279785 55.06510742 310.2055957 54.58349609 310.82666016 C43.50959337 325.08193643 31.33831732 337.97484477 17 349 C15.68982854 350.02699221 14.37995507 351.05436466 13.0703125 352.08203125 C-24.93098076 381.71850669 -68.96886489 402.40358355 -114 419 C-115.02899414 419.3805957 -116.05798828 419.76119141 -117.11816406 420.15332031 C-125.62975435 423.29485617 -134.14387435 426.40358392 -142.76000977 429.24731445 C-145.05796022 430.0194759 -147.34004614 430.82775702 -149.62109375 431.6484375 C-158.49682998 434.83718219 -167.36007241 437.78198411 -176.47241211 440.21948242 C-181.5300844 441.57414589 -186.5164965 443.0824527 -191.5 444.6875 C-197.27084067 446.53816356 -203.01244381 448.03565802 -209 449 C-205.43004045 446.04875692 -201.43257859 444.10589841 -197.296875 442.0859375 C-196.54142395 441.7119986 -195.7859729 441.33805969 -195.00762939 440.95278931 C-191.7974983 439.36389446 -188.5828461 437.78425217 -185.36816406 436.20458984 C-174.97862016 431.09148994 -164.79390918 425.74642176 -154.7449646 419.99279785 C-148.90090392 416.66781871 -142.96304241 413.5090228 -137.02734375 410.3515625 C-102.987516 392.18320864 -68.12510501 370.94250469 -38.9296875 345.53125 C-36.23127061 343.1998178 -33.47816947 340.9692861 -30.6875 338.75 C-25.87030593 334.82409294 -21.29453176 330.6723079 -16.75 326.4375 C-16.08830811 325.82422852 -15.42661621 325.21095703 -14.74487305 324.57910156 C-10.76785736 320.83684893 -7.09601758 316.93738797 -3.54101562 312.79272461 C-1.70896884 310.66143191 0.20697487 308.6164176 2.125 306.5625 C41.29445918 262.93743171 65.55691066 203.65101091 65.26074219 144.84448242 C65.24996515 142.30428462 65.26074028 139.76478676 65.2734375 137.22460938 C65.28679028 124.22413265 64.15171991 112.07518979 59.9375 99.6875 C59.63585937 98.79450195 59.33421875 97.90150391 59.0234375 96.98144531 C54.72618995 84.79866151 48.41773123 73.80657219 40 64 C38.18581224 61.87643798 36.3735281 59.7512572 34.5625 57.625 C33.85057495 56.78932495 33.85057495 56.78932495 33.12426758 55.93676758 C22.45445091 43.33131676 14.21582692 29.51461823 6.5625 14.9375 C6.02979492 13.92526367 5.49708984 12.91302734 4.94824219 11.87011719 C4.45098633 10.91137695 3.95373047 9.95263672 3.44140625 8.96484375 C2.99482666 8.1049585 2.54824707 7.24507324 2.08813477 6.35913086 C1.10528042 4.22825325 0.471075 2.29115256 0 0 Z " fill="#F3BF13" transform="translate(676,356)"/>
<path d="M0 0 C2.98067651 0.59734819 5.95937099 1.20268207 8.9375 1.8125 C9.76830078 1.97814453 10.59910156 2.14378906 11.45507812 2.31445312 C24.63040428 5.03154373 38.73370121 9.94080334 46.7265625 21.49609375 C51.1576369 28.73071522 52.18170589 33.69001543 52.1875 42.0625 C52.19974609 42.96677734 52.21199219 43.87105469 52.22460938 44.80273438 C52.24631983 54.9270419 49.97476482 63.77390151 46.5625 73.25 C46.11293945 74.53777344 46.11293945 74.53777344 45.65429688 75.8515625 C44.0395848 80.40498051 42.2826288 84.72792409 40 89 C35.75597768 88.40078324 31.51713837 87.77772161 27.28102112 87.12437439 C24.32105337 86.67027584 21.35917686 86.22922186 18.3972168 85.78833008 C16.85622781 85.55677082 15.31583921 85.32117559 13.77612305 85.08129883 C0.25300743 82.97990061 -13.33575117 81.65602394 -26.9375 84.0625 C-27.67782471 84.19188965 -28.41814941 84.3212793 -29.1809082 84.45458984 C-47.91495584 88.09616307 -64.88343031 98.47723656 -79 111 C-79.94101562 111.83144531 -80.88203125 112.66289062 -81.8515625 113.51953125 C-97.67009275 127.63601884 -97.67009275 127.63601884 -111 144 C-113.22374597 142.96754651 -115.05226815 141.957415 -116.9609375 140.40234375 C-120.67734175 137.84642588 -124.67174076 138.45117174 -129 139 C-145.06702251 143.17842071 -158.03789952 157.28494716 -169 169 C-169.495 169.99 -169.495 169.99 -170 171 C-170.66 171 -171.32 171 -172 171 C-173.08831638 110.74075908 -173.08831638 110.74075908 -152 88 C-143.48245861 79.86644613 -131.93723379 76.65228148 -120.359375 76.69921875 C-115.52992817 77.13162271 -110.978422 78.36491464 -106.29150391 79.56591797 C-99.51053042 81.24859834 -92.75439322 82.25146441 -86 80 C-84.52103139 77.04206277 -84.5644418 75.29779776 -85 72 C-88.26331359 65.44449393 -94.11787465 63.33141018 -100.68359375 60.9453125 C-108.47434551 58.72462708 -116.39208624 58.70524154 -124.4375 58.4375 C-125.64599609 58.39431641 -126.85449219 58.35113281 -128.09960938 58.30664062 C-131.06630606 58.20110596 -134.03307902 58.09899286 -137 58 C-131.46138155 46.0555737 -116.78344919 37.92299504 -104.9765625 33.3984375 C-92.32096687 28.90691518 -80.81805226 28.78414726 -68 33 C-64.90369588 34.48067345 -61.89498296 36.08074619 -58.87109375 37.703125 C-54.00967579 39.8990308 -49.24892892 40 -44 40 C-43.36293189 35.75287928 -44.09737229 33.35962109 -46.5 29.9375 C-54.53945161 20.17133014 -67.80783023 16.44360311 -80 15 C-71.04514209 6.3539303 -57.88016904 5.59868026 -46.109375 5.78515625 C-31.46105171 6.33057254 -19.44595755 13.07177212 -9 23 C-6.54903304 25.80324661 -4.22942894 28.65596427 -1.97265625 31.6171875 C0.8450347 35.02073499 2.6839321 36.84207185 7.125 37.375 C8.07375 37.25125 9.0225 37.1275 10 37 C12.69476256 32.95785617 12.6447155 29.66747155 12 25 C9.40741819 15.9375377 4.97228735 7.95279388 0 0 Z " fill="#EA4D42" transform="translate(669,84)"/>
<path d="M0 0 C0.33 0 0.66 0 1 0 C1.13643159 7.37071682 0.59988884 14.57473389 -0.09375 21.91015625 C-0.26022034 23.72222816 -0.26022034 23.72222816 -0.43005371 25.57090759 C-0.78287027 29.40180401 -1.14134811 33.23214593 -1.5 37.0625 C-1.74126045 39.6711893 -1.98214978 42.27991295 -2.22265625 44.88867188 C-2.81080993 51.25951839 -3.40360354 57.62992012 -4 64 C-4.33 64 -4.66 64 -5 64 C-5.28372642 42.27916645 -3.89561384 21.40015803 0 0 Z " fill="#76B853" transform="translate(553,372)"/>
<path d="M0 0 C0 0.66 0 1.32 0 2 C1.98 2 3.96 2 6 2 C2.65837595 5.34162405 -1.96684255 5.92669747 -6.4375 7.1875 C-7.40494141 7.47302734 -8.37238281 7.75855469 -9.36914062 8.05273438 C-10.29791016 8.31763672 -11.22667969 8.58253906 -12.18359375 8.85546875 C-13.03493896 9.09934326 -13.88628418 9.34321777 -14.76342773 9.59448242 C-17 10 -17 10 -20 9 C-17.04492094 7.49352402 -14.08542659 5.99593635 -11.125 4.5 C-10.28324219 4.07074219 -9.44148438 3.64148438 -8.57421875 3.19921875 C-7.76855469 2.79316406 -6.96289062 2.38710938 -6.1328125 1.96875 C-5.38918457 1.59169922 -4.64555664 1.21464844 -3.87939453 0.82617188 C-2 0 -2 0 0 0 Z " fill="#D9B327" transform="translate(487,795)"/>
<path d="M0 0 C0 3.56926262 -0.51030162 3.90984382 -2.88671875 6.3984375 C-3.8003418 7.36523438 -3.8003418 7.36523438 -4.73242188 8.3515625 C-5.37759766 9.01929688 -6.02277344 9.68703125 -6.6875 10.375 C-7.31333984 11.035 -7.93917969 11.695 -8.58398438 12.375 C-12.00364077 15.97011521 -15.47479803 19.50849977 -19 23 C-19.66 22.67 -20.32 22.34 -21 22 C-18.62670743 19.45673448 -16.25105333 16.91568624 -13.875 14.375 C-13.20984375 13.66214844 -12.5446875 12.94929688 -11.859375 12.21484375 C-7.97739207 8.06645023 -4.04256015 3.99218557 0 0 Z " fill="#7DC154" transform="translate(573,496)"/>
<path d="M0 0 C0 3 0 3 -1.35546875 4.6484375 C-1.96003906 5.21820313 -2.56460938 5.78796875 -3.1875 6.375 C-3.826875 6.98472656 -4.46625 7.59445313 -5.125 8.22265625 C-5.74375 8.80917969 -6.3625 9.39570313 -7 10 C-7.886875 10.928125 -8.77375 11.85625 -9.6875 12.8125 C-11.75844645 14.7715034 -13.38362109 15.93406785 -16 17 C-12.03418982 10.27536535 -6.50010993 4.33340662 0 0 Z " fill="#1F2D22" transform="translate(616,204)"/>
<path d="M0 0 C0.66 0 1.32 0 2 0 C-0.01271818 4.42449945 -2.96522745 7.29650373 -6.375 10.6875 C-7.24125 11.57791992 -7.24125 11.57791992 -8.125 12.48632812 C-8.68960938 13.05158203 -9.25421875 13.61683594 -9.8359375 14.19921875 C-10.60236572 14.97011841 -10.60236572 14.97011841 -11.38427734 15.7565918 C-13.22940973 17.17654635 -14.72733945 17.59023148 -17 18 C-16.34 17.34 -15.68 16.68 -15 16 C-14.54753906 15.54625 -14.09507812 15.0925 -13.62890625 14.625 C-12.43344554 13.4324061 -11.23205874 12.24574482 -10.02734375 11.0625 C-7.0561363 8.13016816 -4.21955834 5.27733685 -1.625 2 C-0.820625 1.01 -0.820625 1.01 0 0 Z " fill="#E6BA1C" transform="translate(671,670)"/>
<path d="M0 0 C0.66 0.33 1.32 0.66 2 1 C-0.119212 2.36405618 -2.24448118 3.71631775 -4.375 5.0625 C-4.97828125 5.45244141 -5.5815625 5.84238281 -6.203125 6.24414062 C-7.76492557 7.22460432 -9.37992214 8.11916075 -11 9 C-11.66 8.67 -12.32 8.34 -13 8 C-11.02 5.69 -9.04 3.38 -7 1 C-6.67 1.66 -6.34 2.32 -6 3 C-4.576875 2.2265625 -4.576875 2.2265625 -3.125 1.4375 C-2.09375 0.963125 -1.0625 0.48875 0 0 Z " fill="#7FC05A" transform="translate(537,751)"/>
<path d="M0 0 C0.99 0.66 1.98 1.32 3 2 C2.67 5.3 2.34 8.6 2 12 C1.34 12 0.68 12 0 12 C-0.66 13.32 -1.32 14.64 -2 16 C-1.34 10.72 -0.68 5.44 0 0 Z " fill="#2E2F22" transform="translate(780,539)"/>
<path d="M0 0 C3.59478807 3.32850747 6.22364768 6.98971331 9 11 C8.34 11 7.68 11 7 11 C6.67 11.99 6.34 12.98 6 14 C4.99515796 12.04414675 3.99626195 10.08523763 3 8.125 C2.1646875 6.48917969 2.1646875 6.48917969 1.3125 4.8203125 C0 2 0 2 0 0 Z " fill="#C8AA2A" transform="translate(676,356)"/>
<path d="M0 0 C0 3 0 3 -1.96875 5.26171875 C-2.8040625 6.06222656 -3.639375 6.86273438 -4.5 7.6875 C-5.3353125 8.49574219 -6.170625 9.30398437 -7.03125 10.13671875 C-7.6809375 10.75160156 -8.330625 11.36648437 -9 12 C-9.66 11.67 -10.32 11.34 -11 11 C-9.73347137 9.53792657 -8.46161082 8.08047074 -7.1875 6.625 C-6.47980469 5.81289062 -5.77210938 5.00078125 -5.04296875 4.1640625 C-3 2 -3 2 0 0 Z " fill="#D64A46" transform="translate(522,168)"/>
<path d="M0 0 C0 0.66 0 1.32 0 2 C1.98 2 3.96 2 6 2 C3.36966546 4.63033454 1.67293796 4.77962372 -2 5 C-4.375 3.5625 -4.375 3.5625 -6 2 C-2.25 0 -2.25 0 0 0 Z " fill="#D4AB23" transform="translate(487,795)"/>
<path d="M0 0 C0.99 0.33 1.98 0.66 3 1 C2.57847656 1.48210937 2.15695312 1.96421875 1.72265625 2.4609375 C1.17480469 3.09257812 0.62695312 3.72421875 0.0625 4.375 C-0.48277344 5.00148437 -1.02804687 5.62796875 -1.58984375 6.2734375 C-3.06958624 7.95632334 -3.06958624 7.95632334 -4 10 C-4.66 10 -5.32 10 -6 10 C-4.6302836 6.00499382 -2.74277578 3.19990508 0 0 Z " fill="#78B753" transform="translate(667,246)"/>
<path d="M0 0 C0.33 0.99 0.66 1.98 1 3 C-0.21484375 4.82421875 -0.21484375 4.82421875 -1.9375 6.6875 C-2.50339844 7.31011719 -3.06929687 7.93273437 -3.65234375 8.57421875 C-4.09707031 9.04472656 -4.54179688 9.51523437 -5 10 C-5.66 9.67 -6.32 9.34 -7 9 C-4.69 6.03 -2.38 3.06 0 0 Z " fill="#2E2A1D" transform="translate(727,670)"/>
<path d="M0 0 C0.33 0.99 0.66 1.98 1 3 C-0.32 4.32 -1.64 5.64 -3 7 C-3.99 6.67 -4.98 6.34 -6 6 C-4.02 4.02 -2.04 2.04 0 0 Z " fill="#CF4A42" transform="translate(538,134)"/>
</svg>
