<?xml version="1.0" encoding="UTF-8"?>
<svg version="1.1" xmlns="http://www.w3.org/2000/svg" width="1024" height="1024">
<path d="M0 0 C337.92 0 675.84 0 1024 0 C1024 337.92 1024 675.84 1024 1024 C686.08 1024 348.16 1024 0 1024 C0 686.08 0 348.16 0 0 Z " fill="#FDFDFD" transform="translate(0,0)"/>
<path d="M0 0 C10.68711632 -0.74101731 19.16191995 0.92377868 29 5 C29.70624512 5.28939453 30.41249023 5.57878906 31.14013672 5.87695312 C44.49064227 11.46016122 57.2135671 18.55622396 64 32 C66.49189581 38.58629931 67.58213462 44.78736734 67.5625 51.8125 C67.56080811 52.70904297 67.55911621 53.60558594 67.55737305 54.52929688 C67.28816482 64.86545229 64.40557104 74.3092675 61 84 C60.76023437 84.68690918 60.52046875 85.37381836 60.2734375 86.08154297 C58.19960623 91.92313234 55.8206749 97.48058139 53 103 C60.31924077 104.23965519 67.64045783 105.40567829 74.9921875 106.4375 C78 107 78 107 80.7019043 107.92944336 C84.35215667 109.1143095 88.02206921 109.93219395 91.77734375 110.69140625 C92.50691788 110.841577 93.236492 110.99174774 93.98817444 111.14646912 C95.52325173 111.46162165 97.05869564 111.77499317 98.59448242 112.08666992 C100.92784536 112.56053929 103.25988046 113.04055273 105.59179688 113.52148438 C107.09107117 113.82848984 108.59041783 114.13514216 110.08984375 114.44140625 C110.77860092 114.58308731 111.46735809 114.72476837 112.17698669 114.8707428 C116.44028477 115.73277151 120.69141246 116.42288516 125 117 C125 117.66 125 118.32 125 119 C123.93676514 119.53890869 122.87353027 120.07781738 121.77807617 120.63305664 C117.78121384 122.66078061 113.78816324 124.69591731 109.79614258 126.7331543 C108.07775038 127.60883474 106.35837157 128.48258221 104.63793945 129.35424805 C81.12650516 140.0766408 81.12650516 140.0766408 65 159 C63.93733874 166.17296352 66.66072591 171.71662426 70.7421875 177.4453125 C76.07078784 183.85974083 82.25070002 188.12085859 89.203125 192.546875 C94.70460436 196.05288363 99.84387884 200.00661223 105 204 C105.59167969 204.43570313 106.18335938 204.87140625 106.79296875 205.3203125 C118.01530248 213.92510458 125.74034505 228.16194776 128 242 C129.77539345 260.17038481 123.67952651 279.03659795 112.46875 293.29296875 C106.57535986 299.75518293 99.74798885 304.30082082 90.94921875 305.37109375 C73.82861549 305.71965693 60.71158305 299.67509747 47 290 C46.2177002 289.45601563 45.43540039 288.91203125 44.62939453 288.3515625 C24.57300957 274.32756067 11.89895511 261.61098944 6 237 C5.56880859 235.25009766 5.56880859 235.25009766 5.12890625 233.46484375 C3.31798845 225.6406391 2.28015685 218.02267345 2 210 C1.97276855 209.22253418 1.94553711 208.44506836 1.91748047 207.64404297 C1.43687565 191.83244678 2.27894744 181.23429555 13.4375 169.1875 C19.88672655 162.1539119 24.36841404 155.11864627 24.2109375 145.40234375 C23.58134684 138.23200573 20.19941855 132.83534548 15 128 C4.21616605 119.23419346 -7.17747612 116.69775444 -20.79150391 117.73388672 C-31.25125522 118.99423703 -39.42044161 123.91111149 -47 131 C-47.74636719 131.65613281 -48.49273438 132.31226563 -49.26171875 132.98828125 C-81.19656444 162.58235291 -90.09351557 216.10574076 -96 257 C-96.11135284 257.73699127 -96.22270569 258.47398254 -96.33743286 259.23330688 C-98.88865028 276.27882427 -99.99288065 293.35436055 -100.94366455 310.54504395 C-101.29668441 316.90955499 -101.66350129 323.27327181 -102.03515625 329.63671875 C-102.09429136 330.657745 -102.09429136 330.657745 -102.15462112 331.69939804 C-102.62404618 339.74425699 -103.19725512 347.7570544 -104.05859375 355.76953125 C-106.33318598 377.21656393 -106.12667669 398.67304326 -106.06866455 420.21331787 C-106.05828451 424.48465473 -106.05383603 428.75599781 -106.04882812 433.02734375 C-106.03822453 441.35157919 -106.0212436 449.67578493 -106 458 C-105.66103195 457.5460788 -105.3220639 457.09215759 -104.9728241 456.6244812 C-103.41385161 454.5379829 -101.85342052 452.45257967 -100.29296875 450.3671875 C-99.75990112 449.65328857 -99.2268335 448.93938965 -98.6776123 448.20385742 C-91.5808622 438.72522832 -84.06557141 429.67509614 -76 421 C-75.33871094 420.27296875 -74.67742187 419.5459375 -73.99609375 418.796875 C-58.23481845 402.16828094 -36.74925219 388.60962467 -13.40405273 387.48095703 C4.25943058 387.14414932 20.86565661 393.40873638 33.71484375 405.5859375 C42.70417361 415.08235776 47.69218161 426.05366214 50.32421875 438.76171875 C50.96533418 442.07234708 50.96533418 442.07234708 52.06640625 445.51953125 C53.59355822 451.57692145 53.29626587 457.79439028 53.25 464 C53.23984863 465.94894165 53.23984863 465.94894165 53.22949219 467.93725586 C53.13053402 477.13403682 52.61338946 485.93293991 51 495 C50.78704303 496.44911351 50.57484431 497.89833858 50.36328125 499.34765625 C47.08224269 519.8605555 39.09379435 540.9897933 29.03320312 559.13085938 C27.88705465 561.20432647 26.7797031 563.29644914 25.671875 565.390625 C20.12234751 575.75959508 13.90032678 585.48204084 7 595 C6.59894043 595.55413574 6.19788086 596.10827148 5.78466797 596.67919922 C0.45215078 604.00329858 -5.19418009 611.0481627 -11 618 C-11.42031998 618.50607285 -11.84063995 619.01214569 -12.2736969 619.53355408 C-19.59299589 628.32222836 -27.30040813 636.59056899 -35.42871094 644.63452148 C-37.26827459 646.45559087 -39.09947141 648.28477504 -40.9296875 650.11523438 C-46.78407966 655.95224756 -52.66870943 661.67591877 -59 667 C-60.08307185 667.93760138 -61.16513096 668.87637411 -62.24609375 669.81640625 C-81.38985521 686.3240655 -101.07410746 701.79894546 -122 716 C-122.33 715.34 -122.66 714.68 -123 714 C-121.98462307 712.68001 -120.96924425 711.36002145 -119.95385742 710.04003906 C-119.05294719 708.8688392 -118.15206931 707.69761445 -117.2512207 706.52636719 C-115.02368033 703.63029498 -112.79563312 700.73461829 -110.56640625 697.83984375 C-108.50092097 695.15708701 -106.43710144 692.47306846 -104.37451172 689.78808594 C-103.42372132 688.55121402 -102.4721742 687.31492356 -101.52001953 686.07910156 C-92.85716585 674.83297343 -84.3468598 663.48284801 -76 652 C-75.52836426 651.35256836 -75.05672852 650.70513672 -74.57080078 650.03808594 C-67.58894201 640.41369097 -60.95206707 630.55096329 -54.33325195 620.67510986 C-53.38041189 619.25386588 -52.42620553 617.83353669 -51.47045898 616.41424561 C-44.95887668 606.73421983 -38.84736903 596.8856241 -33.02429199 586.77636719 C-32.16417345 585.284716 -31.29548961 583.79800831 -30.42480469 582.3125 C-15.49110906 556.82321444 -1.48402381 526.7927715 -6.58203125 496.546875 C-9.13122022 488.39878242 -14.59653685 481.59991707 -21.9375 477.265625 C-30.18184005 473.52202161 -36.61480762 472.77073563 -45.25 475.375 C-74.19707815 486.97808859 -89.19420192 523.03449079 -103.58935547 548.30541992 C-106.69879348 553.75374875 -109.84296079 559.17843465 -113.0625 564.5625 C-113.42029541 565.16336426 -113.77809082 565.76422852 -114.14672852 566.38330078 C-117.84134258 572.51933291 -117.84134258 572.51933291 -120 575 C-122.5625 575.4375 -122.5625 575.4375 -125 575 C-127.14734808 571.77897788 -127.40196239 570.249198 -127.81640625 566.4765625 C-127.94080078 565.37183594 -128.06519531 564.26710938 -128.19335938 563.12890625 C-128.31517578 561.97261719 -128.43699219 560.81632813 -128.5625 559.625 C-128.68818359 558.50738281 -128.81386719 557.38976562 -128.94335938 556.23828125 C-129.56122582 550.62895972 -130.08092936 545.02862188 -130.46484375 539.3984375 C-130.84256047 534.25986806 -131.5556179 529.26913159 -132.45556641 524.19873047 C-133.0627108 520.63155295 -133.55977357 517.05870921 -134.04296875 513.47265625 C-142.81703184 448.4766766 -142.81703184 448.4766766 -167 388 C-167.58523438 386.9171875 -168.17046875 385.834375 -168.7734375 384.71875 C-180.39846415 363.88838551 -197.77376164 348.56516 -220.8046875 341.58984375 C-221.89136719 341.29787109 -221.89136719 341.29787109 -223 341 C-223.74507812 340.79503906 -224.49015625 340.59007812 -225.2578125 340.37890625 C-239.02430415 337.25015815 -255.00596865 337.29835488 -268 343 C-268.92683594 343.40089844 -269.85367188 343.80179687 -270.80859375 344.21484375 C-295.46789611 356.28216193 -307.99529599 382.54600945 -317 407 C-318.96260838 412.92679586 -320.49672487 418.94377274 -322 425 C-322.55845423 426.91784938 -323.12041137 428.83468597 -323.6875 430.75 C-325.0810702 435.86494762 -325.78114932 441.00657964 -326.46484375 446.2578125 C-327.20839769 451.45726268 -328.25701197 456.57937936 -329.31640625 461.72265625 C-331.75727929 475.70342526 -331.31349801 490.17223624 -331.5625 504.3125 C-331.60577658 506.61393877 -331.6493935 508.91537117 -331.69335938 511.21679688 C-331.79949902 516.81113044 -331.90142897 522.40552822 -332 528 C-345.78259989 514.67377759 -354.7768097 492.20431279 -363.00341797 475.05810547 C-364.07661096 472.84178578 -365.18005087 470.64197545 -366.28515625 468.44140625 C-393.08910516 414.40873171 -419.17926672 337.75415553 -399.26416016 277.78417969 C-398.75912515 276.47534762 -398.24219437 275.17102363 -397.71166992 273.87231445 C-396.97386967 271.93125437 -396.47607641 270.02585459 -396.0078125 268.00390625 C-388.83536663 237.78979394 -366.8790487 208.62324858 -340.87158203 192.14404297 C-306.75119499 171.28725538 -266.88919611 167.46352909 -228.3125 176.6875 C-197.42104976 185.57175902 -171.88986561 206.43807867 -155.95703125 234.1953125 C-143.73076907 256.31441826 -136.84204364 279.29137873 -132 304 C-131.98160568 303.4335527 -131.96321136 302.86710541 -131.94425964 302.28349304 C-130.16795888 248.16458408 -130.16795888 248.16458408 -127 227 C-126.85836426 226.01725098 -126.71672852 225.03450195 -126.57080078 224.02197266 C-123.74730818 204.83782238 -119.08536015 186.64557428 -111 169 C-109.8548415 165.56452451 -110.16781537 164.35817559 -111.125 160.9375 C-111.35445312 160.05964844 -111.58390625 159.18179688 -111.8203125 158.27734375 C-112.82955824 155.82291365 -112.82955824 155.82291365 -115.28125 154.703125 C-122.00258963 152.96484751 -129.23080997 153.79658844 -136 155 C-136 155.66 -136 156.32 -136 157 C-136.61673584 157.22131592 -137.23347168 157.44263184 -137.86889648 157.6706543 C-144.17172725 160.04479055 -149.53426277 162.98952617 -155.0625 166.8125 C-155.84109375 167.34004883 -156.6196875 167.86759766 -157.421875 168.41113281 C-162.25955343 171.71525907 -166.96557389 175.13797824 -171.46875 178.890625 C-173 180 -173 180 -175 180 C-175.71449177 151.69879769 -173.7752474 123.78590935 -153.5625 102 C-144.50436419 93.71588503 -133.76485054 89.41238839 -121.5625 89.5 C-120.70430664 89.50064453 -119.84611328 89.50128906 -118.96191406 89.50195312 C-111.98259987 89.66074853 -105.69580579 91.01789738 -99.08813477 93.22070312 C-94.18129866 94.84379133 -90.18447556 95.34825296 -85 95 C-82.82523599 93.45661909 -82.18167363 92.36334727 -81 90 C-80.34108503 84.5090419 -81.41146762 81.29526338 -84.4375 76.859375 C-90.24498052 69.94847318 -98.26900975 67.0294867 -107 66 C-113.2025817 65.68981424 -119.41753936 65.81047844 -125.625 65.875 C-127.31379677 65.88505043 -129.00259934 65.89417263 -130.69140625 65.90234375 C-134.79441594 65.92419261 -138.89714282 65.95860846 -143 66 C-137.37272362 53.94891353 -118.97126061 45.41857688 -107 41 C-88.36746255 35.23084453 -69.3818974 38.61299841 -52.4375 47.3125 C-51.52871094 47.82425781 -50.61992188 48.33601563 -49.68359375 48.86328125 C-46.55500128 50.18849291 -44.3660296 50.35407043 -41 50 C-38.68492921 48.08785353 -38.68492921 48.08785353 -38.5625 44.8125 C-39.21939818 39.08810158 -41.58102135 36.02631879 -45.94921875 32.3671875 C-55.88804027 25.2654802 -67.21467803 23.09940958 -79 21 C-76.00854811 17.64356235 -73.28156025 15.98887354 -69.125 14.3125 C-68.11695313 13.89613281 -67.10890625 13.47976562 -66.0703125 13.05078125 C-52.39743892 8.37138813 -36.96068832 10.81735031 -24.03515625 16.73046875 C-6.88997494 25.16921387 7.45637388 39.18456081 18 55 C19.32 55 20.64 55 22 55 C24.77658652 49.44682696 23.60891682 41.32805697 22.09375 35.53515625 C20.87925622 32.26147269 19.5253994 29.1402889 18 26 C17.58878906 25.14921875 17.17757813 24.2984375 16.75390625 23.421875 C13.39686622 17.24571828 8.86728815 12.35002495 3.96264648 7.37695312 C0 3.30372987 0 3.30372987 0 0 Z " fill="#0A9337" transform="translate(636,95)"/>
<path d="M0 0 C1.3921875 1.2065625 1.3921875 1.2065625 2.8125 2.4375 C4.20629433 3.62739256 5.60238949 4.81459213 7 6 C8.21623047 7.03253906 8.21623047 7.03253906 9.45703125 8.0859375 C16.35108884 13.83939698 23.53110454 19.02956484 31 24 C32.02867187 24.71542969 33.05734375 25.43085938 34.1171875 26.16796875 C43.28561764 32.26120225 54.51011873 37.26911546 65.75 37.0625 C73.3538689 37.62031278 79.82860466 46.38562242 84.55908203 51.77685547 C90.45792769 58.74960824 95.51312469 66.04239468 100 74 C101.01912801 75.64688985 102.03999132 77.29270699 103.0625 78.9375 C106.15713008 84.12201013 108.67895532 89.42949277 111 95 C111.50789063 96.2065625 112.01578125 97.413125 112.5390625 98.65625 C115.94762332 107.05711562 118.03591248 115.19680467 119.359375 124.16015625 C119.9821434 127.8929693 120.95719617 131.36660872 122 135 C127.70843476 166.14973041 123.51917339 199.171539 116.50292969 229.72216797 C115.89700056 232.46649745 115.4175361 235.22106531 115 238 C114.34 238 113.68 238 113 238 C113.04769531 238.83789062 113.09539062 239.67578125 113.14453125 240.5390625 C112.98121882 244.4497332 111.992548 247.72938686 110.6875 251.375 C110.33921143 252.37660156 110.33921143 252.37660156 109.98388672 253.3984375 C109.33057513 255.26843348 108.66571362 257.13438311 108 259 C107.62681641 260.10214844 107.62681641 260.10214844 107.24609375 261.2265625 C95.8490936 293.76894028 76.08554641 323.70832629 53 349 C51.47884881 350.70805031 49.95801337 352.41638188 48.4375 354.125 C42.02544576 361.23837267 35.28188271 367.78678949 28 374 C27.10023438 374.78890625 26.20046875 375.5778125 25.2734375 376.390625 C2.16084342 396.51208896 -24.0818181 413.36044166 -50.59814453 428.60644531 C-52.78849826 429.87728685 -54.95829911 431.17515188 -57.12109375 432.4921875 C-70.07949938 440.35549247 -83.59357625 447.17864531 -97.10131836 454.03601074 C-98.97635248 454.9879938 -100.85051655 455.94167332 -102.72460938 456.89550781 C-116.69444062 463.99784764 -130.72933822 470.86086569 -145.09277344 477.13427734 C-146.87393049 477.9427749 -148.61514918 478.83769392 -150.3515625 479.73828125 C-153 481 -153 481 -156 481 C-156 481.66 -156 482.32 -156 483 C-156.82242187 483.30292969 -157.64484375 483.60585938 -158.4921875 483.91796875 C-165.55662309 486.56917148 -172.33355266 489.46362274 -179 493 C-177.59626002 488.78878006 -174.58268306 487.65389478 -170.9375 485.5 C-163.15455125 480.76754928 -155.63986002 475.73839361 -148.17626953 470.52001953 C-145.85978715 468.90206807 -143.53753773 467.2926134 -141.21484375 465.68359375 C-130.46668183 458.21997245 -119.87961062 450.56261984 -109.37646484 442.75878906 C-106.96263112 440.9723438 -104.53952405 439.19923563 -102.11328125 437.4296875 C-92.75110833 430.59342883 -83.57018335 423.59467971 -74.578125 416.27832031 C-72.38074067 414.49838461 -70.15755181 412.75153439 -67.9375 411 C-58.86664809 403.74029989 -50.09655793 396.08824734 -41.50512695 388.26953125 C-39.93092692 386.84337751 -38.34999754 385.42458102 -36.75952148 384.01660156 C-30.56748992 378.5232615 -24.64170214 372.7970517 -18.8034668 366.93383789 C-17.30695075 365.43193075 -15.805117 363.93548938 -14.30273438 362.43945312 C-8.99174525 357.13245533 -3.85400054 351.73261071 1 346 C1.87696459 344.99032955 2.75452926 343.98117985 3.6328125 342.97265625 C19.195718 324.79967098 32.91362436 305.4620356 44.95751953 284.78808594 C46.00453404 282.99222311 47.06256921 281.20315931 48.12109375 279.4140625 C54.55607384 268.45154432 59.72346263 257.32358389 63.82421875 245.2890625 C64.6335871 243.02498227 65.5203932 240.78759457 66.46875 238.578125 C77.29918725 213.27026652 80.56744362 186.26600319 80.5625 159 C80.56521912 158.02912445 80.56793823 157.0582489 80.57073975 156.05795288 C80.56564011 140.00787543 79.12927881 124.71059624 73.875 109.4375 C73.577146 108.56109863 73.27929199 107.68469727 72.97241211 106.78173828 C66.38420962 88.22403953 54.08385381 69.23430283 38.453125 57.0078125 C35.50027074 54.59098593 33.24602793 51.82202903 30.9375 48.8125 C30.23294678 47.90153564 30.23294678 47.90153564 29.51416016 46.97216797 C20.80325196 35.6097387 12.7306132 24.10595184 5.9375 11.48828125 C4.60598011 9.09100855 3.29509279 6.90903097 1.75 4.66796875 C0 2 0 2 0 0 Z " fill="#FDC204" transform="translate(655,362)"/>
<path d="M0 0 C10.68711632 -0.74101731 19.16191995 0.92377868 29 5 C29.70624512 5.28939453 30.41249023 5.57878906 31.14013672 5.87695312 C44.49064227 11.46016122 57.2135671 18.55622396 64 32 C66.49189581 38.58629931 67.58213462 44.78736734 67.5625 51.8125 C67.56080811 52.70904297 67.55911621 53.60558594 67.55737305 54.52929688 C67.28816482 64.86545229 64.40557104 74.3092675 61 84 C60.76023437 84.68690918 60.52046875 85.37381836 60.2734375 86.08154297 C58.19960623 91.92313234 55.8206749 97.48058139 53 103 C46.86379356 102.67936939 40.97332073 102.10477206 35 100.625 C8.83021522 94.32314198 -20.11960938 92.02959841 -45 104 C-46.17304687 104.55300781 -47.34609375 105.10601562 -48.5546875 105.67578125 C-59.56393151 111.10269094 -69.2770993 116.87855289 -78.11767578 125.44433594 C-81.80894775 129 -81.80894775 129 -84 129 C-84 129.66 -84 130.32 -84 131 C-84.66 131 -85.32 131 -86 131 C-86.23847656 131.55558594 -86.47695313 132.11117187 -86.72265625 132.68359375 C-88.29095547 135.52763484 -90.26474162 137.64639269 -92.4375 140.0625 C-99.23948945 147.87604136 -104.04434745 156.95301985 -109 166 C-111 163 -111 163 -111.8125 159.4375 C-112.60439198 155.88667065 -112.60439198 155.88667065 -115.23828125 154.796875 C-121.9080824 152.87234963 -129.24300336 153.79875615 -136 155 C-136 155.66 -136 156.32 -136 157 C-136.61673584 157.22131592 -137.23347168 157.44263184 -137.86889648 157.6706543 C-144.17172725 160.04479055 -149.53426277 162.98952617 -155.0625 166.8125 C-155.84109375 167.34004883 -156.6196875 167.86759766 -157.421875 168.41113281 C-162.25955343 171.71525907 -166.96557389 175.13797824 -171.46875 178.890625 C-173 180 -173 180 -175 180 C-175.71449177 151.69879769 -173.7752474 123.78590935 -153.5625 102 C-144.50436419 93.71588503 -133.76485054 89.41238839 -121.5625 89.5 C-120.70430664 89.50064453 -119.84611328 89.50128906 -118.96191406 89.50195312 C-111.98259987 89.66074853 -105.69580579 91.01789738 -99.08813477 93.22070312 C-94.18129866 94.84379133 -90.18447556 95.34825296 -85 95 C-82.82523599 93.45661909 -82.18167363 92.36334727 -81 90 C-80.34108503 84.5090419 -81.41146762 81.29526338 -84.4375 76.859375 C-90.24498052 69.94847318 -98.26900975 67.0294867 -107 66 C-113.2025817 65.68981424 -119.41753936 65.81047844 -125.625 65.875 C-127.31379677 65.88505043 -129.00259934 65.89417263 -130.69140625 65.90234375 C-134.79441594 65.92419261 -138.89714282 65.95860846 -143 66 C-137.37272362 53.94891353 -118.97126061 45.41857688 -107 41 C-88.36746255 35.23084453 -69.3818974 38.61299841 -52.4375 47.3125 C-51.52871094 47.82425781 -50.61992188 48.33601563 -49.68359375 48.86328125 C-46.55500128 50.18849291 -44.3660296 50.35407043 -41 50 C-38.68492921 48.08785353 -38.68492921 48.08785353 -38.5625 44.8125 C-39.21939818 39.08810158 -41.58102135 36.02631879 -45.94921875 32.3671875 C-55.88804027 25.2654802 -67.21467803 23.09940958 -79 21 C-76.00854811 17.64356235 -73.28156025 15.98887354 -69.125 14.3125 C-68.11695313 13.89613281 -67.10890625 13.47976562 -66.0703125 13.05078125 C-52.39743892 8.37138813 -36.96068832 10.81735031 -24.03515625 16.73046875 C-6.88997494 25.16921387 7.45637388 39.18456081 18 55 C19.32 55 20.64 55 22 55 C24.77658652 49.44682696 23.60891682 41.32805697 22.09375 35.53515625 C20.87925622 32.26147269 19.5253994 29.1402889 18 26 C17.58878906 25.14921875 17.17757812 24.2984375 16.75390625 23.421875 C13.39686622 17.24571828 8.86728815 12.35002495 3.96264648 7.37695312 C0 3.30372987 0 3.30372987 0 0 Z " fill="#F81502" transform="translate(636,95)"/>
<path d="M0 0 C-1.20381448 2.49361571 -2.45428722 4.68143083 -4 7 C-3.01 7.33 -2.02 7.66 -1 8 C-3.90600261 9.25664978 -5.79604584 10 -9 10 C-9 10.66 -9 11.32 -9 12 C-9.82242187 12.30292969 -10.64484375 12.60585938 -11.4921875 12.91796875 C-18.55662309 15.56917148 -25.33355266 18.46362274 -32 22 C-30.57983586 17.73950758 -27.43785169 16.55729574 -23.75 14.375 C-17.12914914 10.36548315 -10.76562078 6.12720696 -4.4765625 1.6171875 C-2 0 -2 0 0 0 Z " fill="#F7C51F" transform="translate(508,833)"/>
<path d="M0 0 C-1.20381448 2.49361571 -2.45428722 4.68143083 -4 7 C-3.01 7.33 -2.02 7.66 -1 8 C-3.90600261 9.25664978 -5.79604584 10 -9 10 C-9 10.66 -9 11.32 -9 12 C-9.66 11.67 -10.32 11.34 -11 11 C-11.625 8.9375 -11.625 8.9375 -12 7 C-10.3790787 5.82767315 -8.75313167 4.6622923 -7.125 3.5 C-6.22007812 2.8503125 -5.31515625 2.200625 -4.3828125 1.53125 C-2 0 -2 0 0 0 Z " fill="#F8C823" transform="translate(508,833)"/>
<path d="M0 0 C0.66 0 1.32 0 2 0 C2 0.66 2 1.32 2 2 C14.87 2.495 14.87 2.495 28 3 C28 3.33 28 3.66 28 4 C12.655 4.495 12.655 4.495 -3 5 C-1 1 -1 1 0 0 Z " fill="#EB5449" transform="translate(496,156)"/>
<path d="M0 0 C0.33 0 0.66 0 1 0 C1 8.25 1 16.5 1 25 C-0.99796955 22.00304568 -1.34510261 20.82142616 -1.6875 17.375 C-1.77386719 16.57835937 -1.86023438 15.78171875 -1.94921875 14.9609375 C-1.96597656 14.31382812 -1.98273438 13.66671875 -2 13 C-1.67 12.67 -1.34 12.34 -1 12 C-0.76572222 9.98405418 -0.58663876 7.961526 -0.4375 5.9375 C-0.35371094 4.83277344 -0.26992188 3.72804688 -0.18359375 2.58984375 C-0.12300781 1.73519531 -0.06242187 0.88054687 0 0 Z " fill="#CAF4DC" transform="translate(504,377)"/>
<path d="M0 0 C0 3 0 3 -2.40625 5.69921875 C-3.4299968 6.70302243 -4.4616054 7.69885649 -5.5 8.6875 C-6.02464844 9.19861328 -6.54929687 9.70972656 -7.08984375 10.23632812 C-8.38660904 11.49772708 -9.69246117 12.74977212 -11 14 C-11.99 13.67 -12.98 13.34 -14 13 C-9.38 8.71 -4.76 4.42 0 0 Z " fill="#FDF8D4" transform="translate(697,722)"/>
<path d="M0 0 C2.29141286 -0.05384521 4.58318188 -0.09272087 6.875 -0.125 C8.78925781 -0.15980469 8.78925781 -0.15980469 10.7421875 -0.1953125 C14 0 14 0 16 2 C15.15695312 1.96519531 14.31390625 1.93039063 13.4453125 1.89453125 C11.80175781 1.85392578 11.80175781 1.85392578 10.125 1.8125 C9.03445313 1.77769531 7.94390625 1.74289063 6.8203125 1.70703125 C5.42425781 1.85205078 5.42425781 1.85205078 4 2 C3.01 3.485 3.01 3.485 2 5 C1.34 4.34 0.68 3.68 0 3 C0 2.01 0 1.02 0 0 Z " fill="#E62B26" transform="translate(636,95)"/>
<path d="M0 0 C0.33 0.99 0.66 1.98 1 3 C-1.97 5.97 -4.94 8.94 -8 12 C-8.66 11.67 -9.32 11.34 -10 11 C-6.7 7.37 -3.4 3.74 0 0 Z " fill="#2A9F52" transform="translate(560,516)"/>
<path d="M0 0 C6.65759265 5.0583798 6.65759265 5.0583798 8 8.75 C8 11 8 11 7 13 C5.82786955 11.21190303 4.66244474 9.41940875 3.5 7.625 C2.8503125 6.62726563 2.200625 5.62953125 1.53125 4.6015625 C0 2 0 2 0 0 Z " fill="#E9C127" transform="translate(655,362)"/>
<path d="M0 0 C0 3 0 3 -1.96875 5.04296875 C-2.8040625 5.75066406 -3.639375 6.45835937 -4.5 7.1875 C-5.3353125 7.90292969 -6.170625 8.61835937 -7.03125 9.35546875 C-7.6809375 9.89816406 -8.330625 10.44085937 -9 11 C-9.66 10.67 -10.32 10.34 -11 10 C-9.73232923 8.70522938 -8.46073776 7.41429661 -7.1875 6.125 C-6.47980469 5.40570313 -5.77210938 4.68640625 -5.04296875 3.9453125 C-3 2 -3 2 0 0 Z " fill="#259A4C" transform="translate(572,505)"/>
<path d="M0 0 C1.98 0 3.96 0 6 0 C5.50168276 3.68754757 4.89932357 5.60490662 2 8 C1.34 5.36 0.68 2.72 0 0 Z " fill="#E51B0E" transform="translate(524,253)"/>
<path d="M0 0 C0.66 0.33 1.32 0.66 2 1 C0.88200014 2.33920838 -0.24461897 3.67122556 -1.375 5 C-2.00148438 5.7425 -2.62796875 6.485 -3.2734375 7.25 C-4.12808594 8.11625 -4.12808594 8.11625 -5 9 C-5.66 9 -6.32 9 -7 9 C-7 9.66 -7 10.32 -7 11 C-7.66 10.67 -8.32 10.34 -9 10 C-7.8758824 8.70756532 -6.75067408 7.41607925 -5.625 6.125 C-4.99851562 5.40570313 -4.37203125 4.68640625 -3.7265625 3.9453125 C-2.52573166 2.5923402 -1.2791655 1.2791655 0 0 Z " fill="#E93126" transform="translate(486,194)"/>
<path d="M0 0 C0.33 0.99 0.66 1.98 1 3 C-1.64 5.64 -4.28 8.28 -7 11 C-7.66 10.67 -8.32 10.34 -9 10 C-6.03 6.7 -3.06 3.4 0 0 Z " fill="#F6C72B" transform="translate(655,709)"/>
<path d="M0 0 C0.33 0.99 0.66 1.98 1 3 C-1.31 4.98 -3.62 6.96 -6 9 C-6.66 8.67 -7.32 8.34 -8 8 C-7.34 7.01 -6.68 6.02 -6 5 C-5.34 5 -4.68 5 -4 5 C-4 4.34 -4 3.68 -4 3 C-2 1.375 -2 1.375 0 0 Z " fill="#357C27" transform="translate(556,221)"/>
<path d="M0 0 C0.66 0.33 1.32 0.66 2 1 C-1.2870757 4.81300782 -4.39727838 6.22972246 -9 8 C-7.83917375 4.51752126 -7.09067524 4.11180756 -4.0625 2.25 C-3.35222656 1.80140625 -2.64195312 1.3528125 -1.91015625 0.890625 C-1.27980469 0.59671875 -0.64945312 0.3028125 0 0 Z " fill="#EFDE7D" transform="translate(485,847)"/>
<path d="M0 0 C0.66 0.33 1.32 0.66 2 1 C-0.97 3.97 -3.94 6.94 -7 10 C-7.99 9.67 -8.98 9.34 -10 9 C-6.7 6.03 -3.4 3.06 0 0 Z " fill="#F5C630" transform="translate(607,756)"/>
<path d="M0 0 C0.33 0.66 0.66 1.32 1 2 C0.67 2.66 0.34 3.32 0 4 C0.66 4.33 1.32 4.66 2 5 C-0.31 6.32 -2.62 7.64 -5 9 C-3.7508258 5.54074837 -2.32472205 2.85306797 0 0 Z " fill="#3DA45E" transform="translate(518,802)"/>
<path d="M0 0 C0.33 0.66 0.66 1.32 1 2 C-0.65 3.98 -2.3 5.96 -4 8 C-4.99 7.67 -5.98 7.34 -7 7 C-4.69 4.69 -2.38 2.38 0 0 Z " fill="#FCF4BE" transform="translate(713,705)"/>
<path d="M0 0 C0.6875 1.6875 0.6875 1.6875 1 4 C-0.3125 6.75 -0.3125 6.75 -2 9 C-2.66 9 -3.32 9 -4 9 C-2.94124926 5.59687262 -1.99097846 2.98646769 0 0 Z " fill="#2B9B53" transform="translate(254,331)"/>
<path d="M0 0 C0.33 1.32 0.66 2.64 1 4 C0.01 5.485 0.01 5.485 -1 7 C-1.66 7 -2.32 7 -3 7 C-3 7.66 -3 8.32 -3 9 C-3.66 8.67 -4.32 8.34 -5 8 C-3.35 5.36 -1.7 2.72 0 0 Z " fill="#329F58" transform="translate(584,712)"/>
<path d="M0 0 C0.33 0.66 0.66 1.32 1 2 C-0.8125 5 -0.8125 5 -3 8 C-3.99 8 -4.98 8 -6 8 C-4.02 5.36 -2.04 2.72 0 0 Z " fill="#F6CE3D" transform="translate(676,683)"/>
<path d="M0 0 C0.33 0.66 0.66 1.32 1 2 C0.22265625 3.7265625 0.22265625 3.7265625 -0.9375 5.625 C-1.618125 6.73875 -2.29875 7.8525 -3 9 C-3.66 9 -4.32 9 -5 9 C-3.7508258 5.54074837 -2.32472205 2.85306797 0 0 Z " fill="#F6CC3C" transform="translate(687,668)"/>
</svg>
