<?xml version="1.0" encoding="UTF-8"?>
<svg version="1.1" xmlns="http://www.w3.org/2000/svg" width="1024" height="1024">
<path d="M0 0 C337.92 0 675.84 0 1024 0 C1024 337.92 1024 675.84 1024 1024 C686.08 1024 348.16 1024 0 1024 C0 686.08 0 348.16 0 0 Z " fill="#FDFDFD" transform="translate(0,0)"/>
<path d="M0 0 C5.79030472 -0.36751934 9.61923408 0.68156451 14.75 3.0625 C15.44593262 3.37832031 16.14186523 3.69414063 16.85888672 4.01953125 C27.08759699 8.7742188 38.37539848 14.55454648 42.5234375 25.82421875 C46.27383281 42.94692519 38.07084685 59.85982937 31 75 C32.18420532 75.20363159 32.18420532 75.20363159 33.39233398 75.41137695 C36.40290723 75.92924727 39.4134109 76.44752025 42.42388916 76.96594238 C44.43470285 77.31201859 46.44562013 77.65748835 48.45654297 78.00292969 C59.72375005 79.94081523 59.72375005 79.94081523 65.32421875 80.96484375 C72.86905762 82.34425535 80.33767319 83.52007024 88 84 C88 84.66 88 85.32 88 86 C87.15928955 86.40726318 86.3185791 86.81452637 85.45239258 87.23413086 C82.26287231 88.78566515 79.07844086 90.34685918 75.89672852 91.91430664 C74.53236653 92.58410178 73.16621389 93.25026457 71.7980957 93.91235352 C51.87635065 103.3739385 51.87635065 103.3739385 37 119 C35.69076512 123.11775487 36.05396365 126.16548084 38.02734375 129.9921875 C43.10855459 136.7042379 51.01220506 140.6038265 58.10839844 144.85546875 C72.06631787 153.30083869 80.76407054 162.29221162 86 178 C86.23146837 181.55838851 86.18517441 185.12236736 86.1875 188.6875 C86.19974609 189.65623047 86.21199219 190.62496094 86.22460938 191.62304688 C86.23645387 197.46238189 85.68792995 202.40797307 84 208 C83.62681641 209.29550781 83.62681641 209.29550781 83.24609375 210.6171875 C79.51868442 221.02512273 71.69358446 228.85646539 62 234 C53.91841245 237.35462125 45.09340781 237.15038285 37 234 C19.9630034 226.05827502 2.15857813 211.8142977 -5 194 C-10.7438714 178.16953591 -16.89838348 156.41682606 -10 140 C-7.25002563 134.87093595 -3.71509969 130.60320353 0.1875 126.3125 C6.07608149 119.74836423 7.64804232 115.05321822 7.40625 106.1875 C6.44797967 98.66876358 1.64719172 94.10047769 -4.04296875 89.4765625 C-10.4972062 84.60689832 -16.08372144 84.13676268 -24 85 C-32.13306001 86.85898514 -38.51435461 90.88753686 -45 96 C-45.75023437 96.56203125 -46.50046875 97.1240625 -47.2734375 97.703125 C-67.2703905 113.84101689 -74.31665765 142.44501558 -81 166 C-81.25265625 166.86415527 -81.5053125 167.72831055 -81.765625 168.61865234 C-88.27326016 191.05643607 -90.04854622 214.59822569 -92.04931641 237.79394531 C-92.16065918 239.07108398 -92.27200195 240.34822266 -92.38671875 241.6640625 C-92.48170654 242.79279785 -92.57669434 243.9215332 -92.67456055 245.08447266 C-92.94453824 247.5031325 -93.38424079 249.65766422 -94 252 C-94.18217829 253.39776167 -94.33564341 254.7994748 -94.46484375 256.203125 C-94.54154297 257.00975586 -94.61824219 257.81638672 -94.69726562 258.64746094 C-94.77654297 259.50629883 -94.85582031 260.36513672 -94.9375 261.25 C-95.52809514 267.43348675 -96.17861993 273.59288326 -97 279.75 C-97.34264295 282.4993018 -97.67826733 285.24827514 -98 288 C-98.09313477 288.79100098 -98.18626953 289.58200195 -98.28222656 290.39697266 C-100.55050911 310.553931 -100.20089147 330.75013985 -100 351 C-99.64921387 350.50298584 -99.29842773 350.00597168 -98.93701172 349.49389648 C-90.68918183 337.87826952 -82.1019294 327.05437692 -72 317 C-71.48195801 316.47937988 -70.96391602 315.95875977 -70.43017578 315.42236328 C-63.35593635 308.38448358 -55.83493777 302.68770106 -47 298 C-46.14277344 297.54496094 -45.28554688 297.08992188 -44.40234375 296.62109375 C-34.30610374 292.14254525 -20.74523999 292.10206186 -10.4375 295.9375 C2.77941039 302.50903645 10.81475701 313.97241853 15.95703125 327.43359375 C18.59397586 336.45056164 19.36152014 345.19405173 19.3125 354.5625 C19.30686035 355.70219238 19.3012207 356.84188477 19.29541016 358.01611328 C18.65363029 403.09956022 -3.19680792 436.91865908 -34.2890625 467.484375 C-38.51679916 471.58046358 -42.81201484 475.41336004 -47.46484375 479.0234375 C-49.84881388 480.88212607 -52.1337069 482.82787743 -54.41333008 484.81225586 C-66.00591972 494.86011822 -78.48747801 503.84681518 -91.3125 512.25 C-92.34262207 512.930625 -92.34262207 512.930625 -93.39355469 513.625 C-97.15968953 516.04488635 -100.64466204 517.78455685 -105 519 C-101.93265784 514.21790271 -98.54046551 509.82659619 -94.9375 505.4375 C-94.36459229 504.73496094 -93.79168457 504.03242187 -93.20141602 503.30859375 C-90.10079779 499.51832937 -86.96156824 495.76632879 -83.77026367 492.05224609 C-77.70277316 484.98554805 -72.07603779 477.64350555 -66.56787109 470.13427734 C-64.96641083 467.95427646 -63.3524446 465.78388724 -61.73828125 463.61328125 C-50.66667292 448.62344728 -40.65442658 433.0265953 -33 416 C-32.69658691 415.34773438 -32.39317383 414.69546875 -32.08056641 414.0234375 C-28.01122325 405.06341588 -26.45695524 396.85432928 -26.375 387 C-26.36404297 386.04472412 -26.35308594 385.08944824 -26.34179688 384.10522461 C-26.49356988 376.62189946 -28.03778861 370.04016433 -33.375 364.5625 C-38.98214232 361.22491529 -44.43955041 359.88792315 -50.90625 361.46484375 C-78.2304438 370.62712302 -93.84182523 406.29011097 -107.78588867 429.04907227 C-108.82548668 430.71957854 -109.90858522 432.36287783 -111 434 C-112.65 433.67 -114.3 433.34 -116 433 C-117.77786024 424.06328917 -119.16257969 415.21222152 -119.875 406.125 C-120.6979003 395.87998499 -122.05297151 385.73417424 -123.5 375.5625 C-123.60777771 374.79270813 -123.71555542 374.02291626 -123.82659912 373.22979736 C-124.13896162 371.00778165 -124.45874217 368.78696986 -124.78125 366.56640625 C-124.96751953 365.27677979 -125.15378906 363.98715332 -125.34570312 362.65844727 C-125.99877522 359.00684826 -126.94736055 355.55426479 -128 352 C-128.3235378 350.50657162 -128.6251009 349.00803799 -128.89453125 347.50390625 C-130.89616169 336.72145631 -133.32014438 326.33712154 -137 316 C-137.22413574 315.36755371 -137.44827148 314.73510742 -137.67919922 314.08349609 C-146.10301194 290.76195954 -159.19249702 272.0050014 -182.1796875 261.1875 C-194.75570442 255.89233498 -210.22893504 256.62228959 -223 261 C-229.70148374 263.90985478 -235.17985877 267.62597661 -240.44140625 272.6796875 C-242 274 -242 274 -244 274 C-244.25523437 274.56332031 -244.51046875 275.12664062 -244.7734375 275.70703125 C-246.1526585 278.28538389 -247.815032 280.39078762 -249.625 282.6875 C-257.32928234 293.16532398 -262.44311276 305.54213385 -266 318 C-266.25136719 318.84433594 -266.50273437 319.68867188 -266.76171875 320.55859375 C-275.17639374 351.23431368 -275.32298995 383.43371822 -276 415 C-278.76589799 411.5850935 -280.76663971 407.86051961 -282.7734375 403.97265625 C-283.31372589 402.93384056 -283.31372589 402.93384056 -283.8649292 401.8740387 C-285.04061937 399.60640008 -286.20886668 397.33506699 -287.375 395.0625 C-287.97559235 393.89409576 -287.97559235 393.89409576 -288.58831787 392.7020874 C-310.30798847 350.34932556 -331.79328091 302.99404796 -332.23828125 254.5390625 C-332.246353 253.66841156 -332.25442474 252.79776062 -332.26274109 251.90072632 C-332.27647043 250.06713787 -332.28724156 248.23352507 -332.29516602 246.39990234 C-332.30661066 244.56779206 -332.32694114 242.7357131 -332.35668945 240.90380859 C-332.87739609 208.6781767 -323.26698809 181.98866221 -300.9375 158.4375 C-279.66018417 137.90833171 -252.44231282 126.53662084 -222.859375 126.7019043 C-197.09693161 127.25388779 -173.26163241 134.57790698 -154.296875 152.58203125 C-133.86784319 174.08810385 -126.77692847 202.98587782 -120 231 C-119.79971191 231.80775879 -119.59942383 232.61551758 -119.39306641 233.44775391 C-118.45698319 237.3844799 -117.82621251 241.23907223 -117.44604492 245.27026367 C-117.36102219 246.15936935 -117.27599945 247.04847504 -117.18840027 247.96452332 C-117.09514214 248.97208427 -117.09514214 248.97208427 -117 250 C-116.99413376 249.30525574 -116.98826752 248.61051147 -116.98222351 247.89471436 C-116.92358286 241.24904473 -116.8511224 234.6036732 -116.76428509 227.95830917 C-116.72013014 224.54433432 -116.68076557 221.13046396 -116.65356445 217.71630859 C-116.43187432 192.04742091 -114.90127067 168.98971272 -103.49609375 145.70703125 C-103.18143661 145.06409622 -102.86677948 144.42116119 -102.54258728 143.75874329 C-100.95062061 140.52248683 -99.33281261 137.30265402 -97.67456055 134.09985352 C-93.19545174 125.47940697 -93.19545174 125.47940697 -93 116 C-95.38590617 113.61409383 -96.0915793 113.62751148 -99.375 113.5 C-113.65986595 113.88940094 -125.24854117 126.07785475 -134.6875 135.6875 C-135.59048828 136.65236328 -135.59048828 136.65236328 -136.51171875 137.63671875 C-138 139 -138 139 -140 139 C-140.71604584 118.52639296 -139.42001367 91.66875 -126 75 C-119.69596187 68.28584786 -112.16874774 62.52424516 -102.703125 61.83203125 C-95.53916642 61.77499336 -89.70894188 62.84657653 -83.125 65.625 C-78.46428745 67.4725733 -73.9420391 67.27343249 -69 67 C-68.58456752 59.87101255 -68.58456752 59.87101255 -70.125 53 C-74.09267754 48.76781062 -79.1949803 47.16545384 -84.84765625 46.83203125 C-91.29522278 46.79286013 -97.2320999 47.24261814 -103.54296875 48.5546875 C-106.76554264 49.138747 -109.73565022 49.14508221 -113 49 C-113.33 48.01 -113.66 47.02 -114 46 C-90.59593997 28.3224653 -90.59593997 28.3224653 -78 27 C-76.36611328 26.77376953 -76.36611328 26.77376953 -74.69921875 26.54296875 C-62.51608357 25.62464198 -53.72787479 30.23813644 -43.24145508 36.08203125 C-40.656114 37.14083557 -38.76905031 37.24194722 -36 37 C-34.7083649 35.91526588 -34.7083649 35.91526588 -34.6875 33.3125 C-35.14867731 28.42402049 -37.15902882 25.70798906 -40.73046875 22.39453125 C-48.39214931 16.20095715 -56.33800953 14.58496393 -66 14 C-65 11 -65 11 -62.99609375 9.68359375 C-50.54511298 3.61968098 -40.5295167 2.22317562 -27.16015625 6.7578125 C-13.68592619 12.05423421 -4.16889615 22.58689074 4.28125 34.0390625 C6.06537212 36.07458364 7.514649 36.98623841 10 38 C12.54734432 28.12904075 10.79636968 18.79313508 6.15234375 9.890625 C4.38966086 6.99863002 2.20138073 4.56827751 0 2 C0 1.34 0 0.68 0 0 Z " fill="#039138" transform="translate(629,46)"/>
<path d="M0 0 C6.35730337 5.38988764 6.35730337 5.38988764 9.234375 8.12109375 C18.16412211 16.54015271 31.08565526 27.22990473 44.0625 27 C47.13663384 27.2772265 47.95501305 27.9532103 50.14453125 30.23046875 C52.12651827 32.85807676 53.995095 35.51513714 55.81591797 38.25439453 C56.97852965 39.96834784 58.19374861 41.6245317 59.44140625 43.27734375 C84.1423852 76.17803911 90.09729157 113.46112654 84.81811523 153.79516602 C84.0090464 159.22346705 83.04325802 164.61229886 82 170 C81.82871582 170.928125 81.65743164 171.85625 81.48095703 172.8125 C75.59862182 203.91372286 60.54893669 231.14039453 39 254 C38.35160156 254.71285156 37.70320312 255.42570313 37.03515625 256.16015625 C11.97015072 282.66844425 -24.25162904 298.82167665 -57.59472656 312.01806641 C-59.94910091 312.97922086 -62.26051456 314.00767896 -64.57421875 315.0625 C-68.9046038 317.00687031 -73.29784671 318.54369008 -77.8125 320 C-79.64083024 320.59833154 -81.46893666 321.19734726 -83.296875 321.796875 C-84.33134766 322.13525391 -85.36582031 322.47363281 -86.43164062 322.82226562 C-90.6116914 324.20188829 -94.78252113 325.60776343 -98.953125 327.015625 C-101.35659436 327.82475537 -103.76022252 328.63341212 -106.16390991 329.44189453 C-107.74514773 329.97462704 -109.32590974 330.5087742 -110.90615845 331.04443359 C-119.0900288 333.81654542 -127.21255562 336.47089685 -135.64013672 338.42382812 C-138.22925359 339.01520225 -138.22925359 339.01520225 -141.5625 340.25 C-144 341 -144 341 -147 340 C-146.3908374 339.72752441 -145.7816748 339.45504883 -145.15405273 339.17431641 C-124.04462757 329.66179323 -103.01768844 319.65303358 -83 308 C-82.16726563 307.5157959 -81.33453125 307.0315918 -80.4765625 306.53271484 C-53.40949538 290.70803127 -27.43185452 272.86164534 -4.55078125 251.33984375 C-2.87453536 249.80221544 -1.14463392 248.32077598 0.63671875 246.90625 C4.24043609 243.99944989 7.01250619 240.52097485 10 237 C10.85078125 236.03707031 11.7015625 235.07414063 12.578125 234.08203125 C27.71181392 216.83952767 38.60984408 196.67614296 46 175 C46.29261719 174.20980469 46.58523438 173.41960937 46.88671875 172.60546875 C49.3926995 165.67092942 50.95761654 158.43573923 52.51367188 151.23974609 C52.82335283 149.81353469 53.14146043 148.38910811 53.47070312 146.96728516 C59.54895115 120.30587903 58.42681964 90.73631047 44 67 C40.63260524 62.06722172 36.9821658 57.40840355 33.18798828 52.79833984 C28.30334142 46.80617576 23.93030623 40.62502021 19.75 34.125 C19.11247803 33.13991455 18.47495605 32.1548291 17.81811523 31.13989258 C13.46915914 24.38140165 9.21907693 17.56591556 5.0625 10.6875 C4.29147949 9.41640381 4.29147949 9.41640381 3.50488281 8.11962891 C2.80830566 6.95246338 2.80830566 6.95246338 2.09765625 5.76171875 C1.48676147 4.740177 1.48676147 4.740177 0.86352539 3.69799805 C0 2 0 2 0 0 Z " fill="#FCC10C" transform="translate(632,254)"/>
<path d="M0 0 C5.79030472 -0.36751934 9.61923408 0.68156451 14.75 3.0625 C15.44593262 3.37832031 16.14186523 3.69414063 16.85888672 4.01953125 C27.08759699 8.7742188 38.37539848 14.55454648 42.5234375 25.82421875 C46.2233387 42.71639063 38.43736092 59.27531138 31 74 C27.1355943 73.50722343 23.36639573 72.888196 19.56640625 72.02734375 C-1.70018571 67.30143443 -24.59869283 65.70724969 -44.2265625 76.828125 C-46.95159247 78.75999062 -49.46018094 80.83186178 -52 83 C-53.58846578 84.17546467 -55.17714624 85.35066842 -56.77172852 86.51782227 C-64.21215438 92.02153461 -70.59749265 98.34327544 -77 105 C-77.85207031 105.84691406 -78.70414063 106.69382812 -79.58203125 107.56640625 C-81.86153196 109.86063718 -84.03995157 112.20745031 -86.1875 114.625 C-86.86167969 115.38039063 -87.53585937 116.13578125 -88.23046875 116.9140625 C-90.13585251 119.07891866 -90.13585251 119.07891866 -92 122 C-92.309375 120.865625 -92.61875 119.73125 -92.9375 118.5625 C-93.62924531 115.21224901 -93.62924531 115.21224901 -95 114 C-103.49888311 112.59242816 -109.95062428 115.44891604 -117 120 C-124.06921679 125.22291828 -130.51127788 131.22511277 -136.51171875 137.63671875 C-138 139 -138 139 -140 139 C-140.71604584 118.52639296 -139.42001367 91.66875 -126 75 C-119.69596187 68.28584786 -112.16874774 62.52424516 -102.703125 61.83203125 C-95.53916642 61.77499336 -89.70894188 62.84657653 -83.125 65.625 C-78.46428745 67.4725733 -73.9420391 67.27343249 -69 67 C-68.58456752 59.87101255 -68.58456752 59.87101255 -70.125 53 C-74.09267754 48.76781062 -79.1949803 47.16545384 -84.84765625 46.83203125 C-91.29522278 46.79286013 -97.2320999 47.24261814 -103.54296875 48.5546875 C-106.76554264 49.138747 -109.73565022 49.14508221 -113 49 C-113.33 48.01 -113.66 47.02 -114 46 C-90.59593997 28.3224653 -90.59593997 28.3224653 -78 27 C-76.91074219 26.84917969 -75.82148437 26.69835937 -74.69921875 26.54296875 C-62.51608357 25.62464198 -53.72787479 30.23813644 -43.24145508 36.08203125 C-40.656114 37.14083557 -38.76905031 37.24194722 -36 37 C-34.7083649 35.91526588 -34.7083649 35.91526588 -34.6875 33.3125 C-35.14867731 28.42402049 -37.15902882 25.70798906 -40.73046875 22.39453125 C-48.39214931 16.20095715 -56.33800953 14.58496393 -66 14 C-65 11 -65 11 -62.99609375 9.68359375 C-50.54511298 3.61968098 -40.5295167 2.22317562 -27.16015625 6.7578125 C-13.68592619 12.05423421 -4.16889615 22.58689074 4.28125 34.0390625 C6.06537212 36.07458364 7.514649 36.98623841 10 38 C12.54734432 28.12904075 10.79636968 18.79313508 6.15234375 9.890625 C4.38966086 6.99863002 2.20138073 4.56827751 0 2 C0 1.34 0 0.68 0 0 Z " fill="#EE0B0A" transform="translate(629,46)"/>
<path d="M0 0 C6.6 0 13.2 0 20 0 C22.54428107 5.08856214 24.7978767 9.78121914 26.8046875 15.03515625 C27.05115021 15.67633896 27.29761292 16.31752167 27.55154419 16.97813416 C28.32982261 19.00482723 29.10268339 21.03352853 29.875 23.0625 C30.89156719 25.7206902 31.91037968 28.37801593 32.9296875 31.03515625 C33.17902039 31.68618317 33.42835327 32.33721008 33.6852417 33.00796509 C36.38338159 40.03469194 39.18519199 47.0193513 42 54 C44.84985914 51.15014086 45.86930328 47.64567448 47.30078125 43.94921875 C47.61903366 43.13943069 47.93728607 42.32964264 48.2651825 41.49531555 C49.28587202 38.89460606 50.29922431 36.29110576 51.3125 33.6875 C51.98325339 31.97572699 52.65447237 30.26413635 53.32617188 28.55273438 C55.75928963 22.34514842 58.19230688 16.137659 60.56005859 9.90478516 C61.00816895 8.72577637 61.4562793 7.54676758 61.91796875 6.33203125 C62.30106201 5.31471924 62.68415527 4.29740723 63.07885742 3.24926758 C64 1 64 1 65 0 C71.6 0 78.2 0 85 0 C85 29.04 85 58.08 85 88 C79.72 88 74.44 88 69 88 C68.505 59.29 68.505 59.29 68 30 C61.59658038 45.71994423 61.59658038 45.71994423 55.19628906 61.44116211 C54.38617995 63.42826842 53.5759655 65.41533179 52.765625 67.40234375 C52.14856689 68.92027527 52.14856689 68.92027527 51.51904297 70.46887207 C49.11446376 76.36066434 46.62687553 82.20375188 44 88 C43.01 88 42.02 88 41 88 C39.027563 83.27629627 37.05620067 78.55214576 35.08569336 73.82763672 C34.41994914 72.23182034 33.75394719 70.63611145 33.08764648 69.04052734 C27.66381777 56.05134302 22.32990119 43.02864736 17 30 C16.67 49.47 16.34 68.94 16 89 C10.72 89 5.44 89 0 89 C0 59.63 0 30.26 0 0 Z " fill="#098F3C" transform="translate(117,646)"/>
<path d="M0 0 C6.97330001 3.58156788 12.23533104 8.19040243 15.02734375 15.60546875 C18.59221846 26.72722074 18.83929842 38.08218145 13.73046875 48.71484375 C10.00939319 55.13016642 5.83806736 60.06077254 -1.23046875 62.74609375 C-9.93743764 64.86685319 -17.22552649 63.95891565 -24.984375 59.56640625 C-26.8125 58.375 -26.8125 58.375 -27.8125 57.375 C-28.1425 66.615 -28.4725 75.855 -28.8125 85.375 C-33.7625 85.375 -38.7125 85.375 -43.8125 85.375 C-43.8125 57.325 -43.8125 29.275 -43.8125 0.375 C-39.1925 0.375 -34.5725 0.375 -29.8125 0.375 C-29.8125 2.355 -29.8125 4.335 -29.8125 6.375 C-29.1525 6.375 -28.4925 6.375 -27.8125 6.375 C-27.8125 5.715 -27.8125 5.055 -27.8125 4.375 C-26.16796875 3.12109375 -26.16796875 3.12109375 -24 1.8125 C-23.29230469 1.37808594 -22.58460938 0.94367187 -21.85546875 0.49609375 C-15.35415685 -3.07154777 -6.75745494 -2.80300626 0 0 Z " fill="#068D39" transform="translate(887.8125,672.625)"/>
<path d="M0 0 C8.31664462 4.96855902 14.13381812 11.28370035 17.42578125 20.44921875 C17.42578125 21.10921875 17.42578125 21.76921875 17.42578125 22.44921875 C15.65719434 23.12182226 13.88582109 23.7871027 12.11328125 24.44921875 C10.63408203 25.00609375 10.63408203 25.00609375 9.125 25.57421875 C6.42578125 26.44921875 6.42578125 26.44921875 3.42578125 26.44921875 C3.20664062 25.92972656 2.9875 25.41023437 2.76171875 24.875 C0.40087984 19.68307378 -1.89692984 16.73327266 -6.57421875 13.44921875 C-10.20976456 12.23737015 -13.59829627 12.18823855 -17.38671875 12.13671875 C-18.08603516 12.10771484 -18.78535156 12.07871094 -19.50585938 12.04882812 C-24.63825659 11.98641357 -27.49743285 13.08415351 -31.57421875 16.44921875 C-33.14357469 19.58793063 -32.92622978 21.98777697 -32.57421875 25.44921875 C-27.50949829 31.9610022 -21.10478119 32.84329682 -13.44921875 34.32421875 C-0.32397357 37.01366473 9.21265715 39.83814173 17.92578125 50.51171875 C21.05338746 56.7388809 20.50778178 64.87287185 18.54296875 71.3671875 C14.53593159 80.13755691 8.69803023 84.33975708 -0.14453125 87.6875 C-11.29998369 91.18478814 -25.488533 91.33144686 -36 86.0390625 C-45.68900101 80.05511195 -50.35658764 72.78309304 -54.57421875 62.44921875 C-54.57421875 61.78921875 -54.57421875 61.12921875 -54.57421875 60.44921875 C-52.99454068 59.77393652 -51.41029972 59.10932181 -49.82421875 58.44921875 C-48.9425 58.07796875 -48.06078125 57.70671875 -47.15234375 57.32421875 C-44.57421875 56.44921875 -44.57421875 56.44921875 -40.57421875 56.44921875 C-40.23390625 57.17367187 -39.89359375 57.898125 -39.54296875 58.64453125 C-35.75932462 66.19169375 -31.80861002 71.70442166 -23.57421875 74.44921875 C-11.10950066 75.56777237 -11.10950066 75.56777237 0.078125 70.93359375 C2.46472646 68.3048733 3.35309533 66.01859179 3.80078125 62.51171875 C3.32618641 58.6358609 2.16701421 57.19045171 -0.57421875 54.44921875 C-6.07354665 50.23085879 -13.13187118 49.71312716 -19.76367188 48.43164062 C-29.36476366 46.48623908 -38.90321368 44.08381344 -45.57421875 36.44921875 C-49.49448739 30.2526651 -49.24392895 23.61692792 -48.57421875 16.44921875 C-46.77039244 9.02477422 -42.03815682 4.45818431 -35.76953125 0.5625 C-25.60368912 -4.59277581 -10.41261672 -4.61523447 0 0 Z " fill="#078D39" transform="translate(632.57421875,646.55078125)"/>
<path d="M0 0 C3.85357678 1.88118393 7.05476051 4.10952102 9 8 C11.74876408 6.83706135 13.86660742 5.35270547 16.125 3.4375 C21.58976058 -1.19566658 27.05198333 -0.56950956 34 0 C39.67050317 1.49413258 42.91601016 4.48572394 46.08984375 9.31640625 C47.86289751 12.59617523 48.12272067 15.27989563 48.11352539 18.93041992 C48.11341209 20.43163643 48.11341209 20.43163643 48.11329651 21.96318054 C48.10813522 23.04138565 48.10297394 24.11959076 48.09765625 25.23046875 C48.0962413 26.33602615 48.09482635 27.44158356 48.09336853 28.5806427 C48.08776514 32.11628917 48.07521204 35.65187262 48.0625 39.1875 C48.05748544 41.58268138 48.05292246 43.97786375 48.04882812 46.37304688 C48.0377946 52.24872225 48.02052767 58.12435043 48 64 C43.05 64 38.1 64 33 64 C32.98541748 62.6274707 32.97083496 61.25494141 32.95581055 59.84082031 C32.89784338 54.74908377 32.82060999 49.6577902 32.73754883 44.56640625 C32.70429212 42.36270333 32.67626254 40.15891509 32.65356445 37.95507812 C32.62003262 34.78739045 32.56771664 31.62048531 32.51171875 28.453125 C32.50532883 27.46757629 32.4989389 26.48202759 32.49235535 25.46661377 C32.47256119 24.5459613 32.45276703 23.62530884 32.43237305 22.67675781 C32.42126999 21.8684552 32.41016693 21.06015259 32.39872742 20.22735596 C31.90319203 17.45921497 30.89146052 16.05373692 29 14 C24.64455375 12.89074777 20.91588334 13.47385425 17.0625 15.6875 C12.59090701 20.70110426 12.67302891 25.83607537 12.5859375 32.23828125 C12.56657135 33.11904831 12.5472052 33.99981537 12.5272522 34.90727234 C12.46767149 37.70891766 12.42115735 40.51060456 12.375 43.3125 C12.33680041 45.21681438 12.29774753 47.12111185 12.2578125 49.02539062 C12.16198767 53.68345572 12.0778774 58.34160168 12 63 C7.38 63 2.76 63 -2 63 C-2.029729 61.13081909 -2.029729 61.13081909 -2.06005859 59.22387695 C-2.13623654 54.59248949 -2.22493532 49.96141119 -2.31738281 45.33032227 C-2.35562217 43.32745476 -2.39048381 41.32451975 -2.421875 39.3215332 C-2.46763496 36.43937083 -2.52561154 33.55767106 -2.5859375 30.67578125 C-2.59748871 29.78288895 -2.60903992 28.88999664 -2.62094116 27.970047 C-2.75079333 21.7444994 -2.75079333 21.7444994 -5 16 C-8.66908557 13.55394295 -11.73618769 13.16053598 -16 14 C-18.69105198 16.17574416 -20.45532928 17.91065856 -22 21 C-22.11704964 22.35752296 -22.17677189 23.72025888 -22.20532227 25.08251953 C-22.22526749 25.92324005 -22.24521271 26.76396057 -22.26576233 27.63015747 C-22.29083107 28.99272171 -22.29083107 28.99272171 -22.31640625 30.3828125 C-22.33718735 31.31221649 -22.35796844 32.24162048 -22.37937927 33.19918823 C-22.44487646 36.1743821 -22.50376052 39.14966577 -22.5625 42.125 C-22.60568506 44.13933228 -22.64929934 46.15365541 -22.69335938 48.16796875 C-22.80055803 53.11188663 -22.90182501 58.05589503 -23 63 C-28.28 63 -33.56 63 -39 63 C-39 42.54 -39 22.08 -39 1 C-33.72 1 -28.44 1 -23 1 C-23 2.65 -23 4.3 -23 6 C-22.51273437 5.566875 -22.02546875 5.13375 -21.5234375 4.6875 C-14.77808073 -0.61067113 -8.4095809 -1.52004162 0 0 Z " fill="#0A8F3C" transform="translate(434,671)"/>
<path d="M0 0 C4.58072889 3.03905224 7.9443421 7.25920825 10.01953125 12.33984375 C11.03362459 17.93107324 11.15110959 23.33533976 11.1171875 28.9921875 C11.11577255 29.89232071 11.1143576 30.79245392 11.11289978 31.71986389 C11.10733785 34.57239212 11.09479252 37.42483956 11.08203125 40.27734375 C11.07701133 42.22070199 11.07244928 44.16406146 11.06835938 46.10742188 C11.05738091 50.85159325 11.04014278 55.59570484 11.01953125 60.33984375 C6.06953125 60.33984375 1.11953125 60.33984375 -3.98046875 60.33984375 C-4.47546875 58.35984375 -4.47546875 58.35984375 -4.98046875 56.33984375 C-5.52316406 56.68917969 -6.06585937 57.03851562 -6.625 57.3984375 C-7.34042969 57.85347656 -8.05585937 58.30851563 -8.79296875 58.77734375 C-9.85451172 59.45603516 -9.85451172 59.45603516 -10.9375 60.1484375 C-16.71160589 63.51574591 -23.52216597 62.96922431 -29.98046875 62.33984375 C-35.73693706 60.30091146 -39.07583925 56.68436203 -41.98046875 51.33984375 C-43.49957636 46.78252091 -43.94585325 42.64095422 -42.07421875 38.1796875 C-37.33088314 30.04608317 -30.60741402 27.60316369 -21.81640625 25.22265625 C-15.91770511 23.86511403 -9.99390889 23.03440523 -3.98046875 22.33984375 C-5.01659499 16.00399655 -5.01659499 16.00399655 -8.98046875 11.33984375 C-13.04448987 9.98517004 -16.73560135 9.67704866 -20.98046875 10.33984375 C-25.35399593 13.52887398 -25.89426157 14.90880783 -26.98046875 20.33984375 C-31.93046875 20.33984375 -36.88046875 20.33984375 -41.98046875 20.33984375 C-41.48541597 12.17147292 -39.71808777 7.67301236 -33.54296875 2.08984375 C-25.06445789 -5.22803569 -9.78396908 -4.68363767 0 0 Z " fill="#098F3B" transform="translate(768.98046875,673.66015625)"/>
<path d="M0 0 C5.43163305 3.28337058 9.24684951 7.99054854 11.25 14 C11.33687799 15.54970448 11.3676866 17.10289707 11.36352539 18.6550293 C11.36344986 19.59577805 11.36337433 20.53652679 11.36329651 21.50578308 C11.35813522 22.51836685 11.35297394 23.53095062 11.34765625 24.57421875 C11.3462413 25.61318802 11.34482635 26.65215729 11.34336853 27.72261047 C11.33776656 31.04426948 11.32521372 34.36586133 11.3125 37.6875 C11.30748525 39.93815007 11.3029223 42.18880119 11.29882812 44.43945312 C11.28779648 49.95966133 11.27053051 55.47981928 11.25 61 C6.63 61 2.01 61 -2.75 61 C-3.245 59.02 -3.245 59.02 -3.75 57 C-4.36488281 57.34933594 -4.97976563 57.69867187 -5.61328125 58.05859375 C-6.82564453 58.74115234 -6.82564453 58.74115234 -8.0625 59.4375 C-9.26326172 60.11619141 -9.26326172 60.11619141 -10.48828125 60.80859375 C-16.27187389 63.85521854 -22.36638267 63.67156258 -28.75 63 C-34.62616078 60.78032171 -38.93874318 56.62251363 -41.75 51 C-42.2738576 45.74424835 -42.41505372 41.35473905 -40.0625 36.5625 C-31.2187306 26.76264742 -19.26306883 24.87482984 -6.75 23 C-5.76 23 -4.77 23 -3.75 23 C-3.99664429 17.7065038 -3.99664429 17.7065038 -6.125 13.0625 C-10.23024277 10.37830281 -15.02744475 10.26132264 -19.75 11 C-23.87780579 14.07389793 -24.79646825 16.11617061 -26.75 21 C-31.37 21 -35.99 21 -40.75 21 C-40.75 13.02832949 -39.43242256 9.79985744 -34.03515625 4.23046875 C-25.20156892 -3.71396099 -10.85456663 -4.92184166 0 0 Z " fill="#088E3A" transform="translate(533.75,673)"/>
<path d="M0 0 C4.95 0 9.9 0 15 0 C15 10.89 15 21.78 15 33 C17.64 31.02 20.28 29.04 23 27 C28.9532162 24.00166483 35.43282269 23.86980521 41.76171875 25.875 C47.63570569 28.54419586 50.79763242 31.42168229 54 37 C54.97639431 39.92918293 55.12136181 41.79025738 55.11352539 44.83862305 C55.11344986 45.8194133 55.11337433 46.80020355 55.11329651 47.81071472 C55.10813522 48.86704605 55.10297394 49.92337738 55.09765625 51.01171875 C55.0962413 52.09508011 55.09482635 53.17844147 55.09336853 54.29463196 C55.08776559 57.75894925 55.07521258 61.2232022 55.0625 64.6875 C55.05748538 67.03450428 55.05292241 69.38150956 55.04882812 71.72851562 C55.0377952 77.48570192 55.02052858 83.24284005 55 89 C50.05 89 45.1 89 40 89 C39.98598145 86.98664551 39.98598145 86.98664551 39.97167969 84.93261719 C39.93180722 79.95262464 39.86605566 74.97325165 39.79248047 69.99365234 C39.76425501 67.83845987 39.74304835 65.68316357 39.72900391 63.52783203 C39.70759653 60.4294717 39.6609568 57.33236173 39.609375 54.234375 C39.60814636 53.27070007 39.60691772 52.30702515 39.60565186 51.31414795 C39.54106283 46.00246976 39.54106283 46.00246976 37.1394043 41.39575195 C32.86287745 38.60573666 27.87666705 39.21946642 23 40 C19.52536057 42.50174039 17.51122551 45.03232248 16 49 C15.6643389 51.97038151 15.62738875 54.9347106 15.5859375 57.921875 C15.56657135 58.78186096 15.5472052 59.64184692 15.5272522 60.52789307 C15.46758186 63.26849521 15.4211214 66.00913964 15.375 68.75 C15.33680866 70.61069517 15.29775625 72.47137288 15.2578125 74.33203125 C15.16189065 78.88787864 15.07781332 83.44380879 15 88 C10.05 88 5.1 88 0 88 C0 58.96 0 29.92 0 0 Z " fill="#068E39" transform="translate(662,646)"/>
<path d="M0 0 C5.28 0 10.56 0 16 0 C16 16.17 16 32.34 16 49 C16.66 49 17.32 49 18 49 C18.38091797 48.12601563 18.38091797 48.12601563 18.76953125 47.234375 C20.13320333 44.75811967 21.64225203 43.19479374 23.6875 41.25 C27.16756497 37.86501877 30.39737412 34.3500423 33.5546875 30.6640625 C36.70626809 27.03548593 36.70626809 27.03548593 38.87939453 26.77294922 C39.62302246 26.78342285 40.36665039 26.79389648 41.1328125 26.8046875 C41.93847656 26.81113281 42.74414062 26.81757812 43.57421875 26.82421875 C44.83685547 26.84935547 44.83685547 26.84935547 46.125 26.875 C47.39923828 26.88853516 47.39923828 26.88853516 48.69921875 26.90234375 C50.79959884 26.92594353 52.89983444 26.96181517 55 27 C50.53378902 32.4870592 45.63423071 37.43705308 40.58325195 42.37963867 C36.30720596 46.32697257 36.30720596 46.32697257 33 51 C33.99895837 56.10278733 38.03028024 60.45352579 41.0625 64.5625 C41.64088623 65.35591797 42.21927246 66.14933594 42.81518555 66.96679688 C45.46601996 70.59375215 48.14086878 74.20082113 50.859375 77.77734375 C51.27823975 78.32898193 51.69710449 78.88062012 52.12866211 79.44897461 C53.24241394 80.90817555 54.36505774 82.36057733 55.48828125 83.8125 C57 86 57 86 57 88 C51.33634707 88.89635773 45.57425538 89.72107184 40 88 C35.53691757 84.69788473 32.8546018 79.68858295 30.13720703 74.94580078 C28.52994225 72.19571484 26.67889171 69.6413116 24.8125 67.0625 C23.87317059 65.70960167 22.93484363 64.35600185 22 63 C21.401875 63.309375 20.80375 63.61875 20.1875 63.9375 C18 65 18 65 15 66 C15 73.26 15 80.52 15 88 C10.05 88 5.1 88 0 88 C0 58.96 0 29.92 0 0 Z " fill="#0B8D3C" transform="translate(214,646)"/>
<path d="M0 0 C4.95 0 9.9 0 15 0 C15.01981934 1.31194336 15.03963867 2.62388672 15.06005859 3.97558594 C15.1361375 8.84361955 15.22485164 13.71135516 15.31738281 18.57910156 C15.35566306 20.68581254 15.3905176 22.79258867 15.421875 24.89941406 C15.46754598 27.92797121 15.52553745 30.95608022 15.5859375 33.984375 C15.59748871 34.92617615 15.60903992 35.86797729 15.62094116 36.83831787 C15.64081085 37.71892883 15.66068054 38.59953979 15.68115234 39.50683594 C15.69447601 40.27960876 15.70779968 41.05238159 15.7215271 41.84857178 C16.0376333 44.29074769 16.70521923 45.91246055 18 48 C21.44894392 49.72447196 25.22156745 49.36671096 29 49 C32.73698169 47.37522535 34.84763317 45.44378693 37 42 C38.30920503 38.0723849 38.23462868 34.27429369 38.31640625 30.17578125 C38.33718735 29.31438034 38.35796844 28.45297943 38.37937927 27.56547546 C38.44474909 24.81456456 38.50370132 22.06355844 38.5625 19.3125 C38.60569717 17.44725579 38.64931185 15.5820212 38.69335938 13.71679688 C38.80041763 9.14462876 38.90172054 4.5723649 39 0 C43.62 0 48.24 0 53 0 C53 20.13 53 40.26 53 61 C48.38 61 43.76 61 39 61 C38.505 59.02 38.505 59.02 38 57 C36.700625 57.928125 36.700625 57.928125 35.375 58.875 C28.23249327 63.37213386 21.27212266 63.84409415 13 63 C7.29423063 60.35089279 3.08344216 55.90691609 0.87158203 49.97241211 C-0.41256137 45.11415187 -0.24843191 40.24580941 -0.1953125 35.25390625 C-0.1924826 34.24279282 -0.18965271 33.23167938 -0.18673706 32.18992615 C-0.17559889 28.98066048 -0.15050597 25.77168042 -0.125 22.5625 C-0.11496198 20.37825926 -0.10583757 18.19401411 -0.09765625 16.00976562 C-0.07568038 10.67306811 -0.04119445 5.33658237 0 0 Z " fill="#068D3A" transform="translate(275,673)"/>
<path d="M0 0 C2.1385485 2.1385485 2.42655063 3.13275314 3 6 C3.78375 5.195625 4.5675 4.39125 5.375 3.5625 C8.74778378 0.2700206 10.23266442 -0.16760416 14.8125 -0.25 C19.04548293 -0.19510541 21.71595412 0.11402028 25 3 C29.46859082 9.03804711 28.63755952 15.86959294 28 23 C26.38212364 30.70271952 22.4987393 35.63637012 16 40 C11.39001113 41.53666296 6.81417808 41.54115578 2 41 C-1.1875 39 -1.1875 39 -3 37 C-5.21854707 41.62197306 -6.38281159 44.76824163 -6 50 C-4.68 50.33 -3.36 50.66 -2 51 C-2 51.99 -2 52.98 -2 54 C-8.93 54 -15.86 54 -23 54 C-22.67 52.68 -22.34 51.36 -22 50 C-21.03320312 49.72542969 -20.06640625 49.45085938 -19.0703125 49.16796875 C-18.05710937 48.78253906 -17.04390625 48.39710938 -16 48 C-14.53260573 44.99557984 -14.53260573 44.99557984 -13.875 41.3125 C-13.56197799 39.9464356 -13.24815326 38.58055493 -12.93359375 37.21484375 C-12.78132324 36.51472168 -12.62905273 35.81459961 -12.47216797 35.09326172 C-11.73443837 31.82268593 -10.82878622 28.6071738 -9.9375 25.375 C-8.13221612 18.61767259 -6.51962106 11.82678249 -5 5 C-8.97561841 7.21879849 -10.90080809 8.91209996 -13 13 C-13.99 12.67 -14.98 12.34 -16 12 C-13.85872214 3.00663299 -9.17300107 -1.22306681 0 0 Z " fill="#ED0E10" transform="translate(715,785)"/>
<path d="M0 0 C4.43258908 2.35198604 6.30114204 5.32814062 8 10 C8.51998481 13.66008727 8.80954536 17.30912048 9 21 C7.58461283 21.33872513 6.16762037 21.67074624 4.75 22 C3.96109375 22.185625 3.1721875 22.37125 2.359375 22.5625 C0 23 0 23 -4 23 C-4.99 20.03 -5.98 17.06 -7 14 C-10.24606681 13.41338532 -10.24606681 13.41338532 -14 14 C-17.39412267 16.79339299 -19.6135977 19.84079309 -21 24 C-21.15413876 26.87438548 -21.25747285 29.72898986 -21.31640625 32.60546875 C-21.33718735 33.44467361 -21.35796844 34.28387848 -21.37937927 35.14851379 C-21.44474018 37.82809294 -21.50369714 40.50776969 -21.5625 43.1875 C-21.60569802 45.00456737 -21.64931273 46.82162488 -21.69335938 48.63867188 C-21.8004078 53.09234799 -21.90171319 57.54612226 -22 62 C-26.95 62 -31.9 62 -37 62 C-37 41.87 -37 21.74 -37 1 C-32.38 1 -27.76 1 -23 1 C-23 3.31 -23 5.62 -23 8 C-22.34 8 -21.68 8 -21 8 C-20.814375 7.4225 -20.62875 6.845 -20.4375 6.25 C-15.83087822 -0.96036453 -7.737254 -1.07859302 0 0 Z " fill="#058B38" transform="translate(828,672)"/>
<path d="M0 0 C2.3684401 1.441221 3.34368027 2.71542106 5 5 C5.66 3.68 6.32 2.36 7 1 C9.64 1 12.28 1 15 1 C12.27627685 11.33469421 12.27627685 11.33469421 10.5 16.25 C8.29134205 22.64225343 7.23263709 29.36474077 6 36 C9.9231947 33.85262966 9.9231947 33.85262966 12.5625 30.3125 C13.036875 29.549375 13.51125 28.78625 14 28 C15.32 28 16.64 28 18 28 C16.34256641 33.12297654 13.48509825 37.23638189 9.0625 40.375 C6.13607084 41.26179672 4.04061857 41.44342354 1 41 C-1.375 38.5 -1.375 38.5 -3 36 C-4.175625 36.9590625 -4.175625 36.9590625 -5.375 37.9375 C-9.30508583 41.02542458 -11.77385587 41.3989241 -16.67578125 41.3515625 C-20.65279302 40.74999769 -22.28353165 38.91523432 -25 36 C-28.25503775 30.81897105 -27.72856116 24.87402439 -27 19 C-24.3928963 10.88155576 -20.4265867 5.23181629 -13 1 C-9.05061818 -0.97469091 -4.29329615 -0.58151274 0 0 Z " fill="#EA1012" transform="translate(642,785)"/>
<path d="M0 0 C4.62 0 9.24 0 14 0 C14 29.04 14 58.08 14 88 C9.38 88 4.76 88 0 88 C0 58.96 0 29.92 0 0 Z " fill="#038A36" transform="translate(341,646)"/>
<path d="M0 0 C4.85243597 2.63443819 7.36584727 5.57670244 9.28125 10.75 C11.38448075 18.9920355 9.85495368 26.72316696 5.90625 34.19921875 C3.60045463 36.86382411 1.06916527 38.61776111 -2.09375 40.19921875 C-7.66710568 40.5707758 -11.33026851 40.44704704 -16.09375 37.19921875 C-21.55412413 30.37375109 -22.89152231 23.73023558 -22.09375 15.19921875 C-20.98622703 8.92661138 -18.80795322 5.23674761 -13.8125 1.29296875 C-9.52064883 -1.43820927 -4.74563294 -1.81502752 0 0 Z " fill="#F6FAF8" transform="translate(880.09375,683.80078125)"/>
<path d="M0 0 C2.1499505 0.95440141 4.22735979 1.95951697 6.28515625 3.09765625 C6.94515625 2.10765625 7.60515625 1.11765625 8.28515625 0.09765625 C9.60515625 0.09765625 10.92515625 0.09765625 12.28515625 0.09765625 C11.70024746 6.2391985 10.74449373 12.10445474 9.28515625 18.09765625 C7.96515625 18.09765625 6.64515625 18.09765625 5.28515625 18.09765625 C5.12660156 17.494375 4.96804688 16.89109375 4.8046875 16.26953125 C3.70411626 12.4996187 2.70486049 9.61910697 0.22265625 6.53515625 C-3.9882838 4.47448346 -8.09926559 4.39510807 -12.71484375 5.09765625 C-15.05469138 7.02211921 -15.05469138 7.02211921 -15.08984375 10.41015625 C-14.64304056 14.80372097 -13.69453 15.91703721 -10.71484375 19.09765625 C-8.63045508 20.57342497 -6.50131739 21.98728823 -4.33984375 23.34765625 C1.92952774 27.50593964 6.74381484 31.74352293 8.87890625 39.16015625 C9.24691032 42.52476492 8.70265602 44.44241355 6.87890625 47.3046875 C3.8744883 50.9613804 1.07586106 54.20636233 -3.71484375 55.09765625 C-11.9859557 55.7294773 -19.09060678 54.43325992 -26.71484375 51.09765625 C-27.12734375 51.75765625 -27.53984375 52.41765625 -27.96484375 53.09765625 C-28.54234375 53.75765625 -29.11984375 54.41765625 -29.71484375 55.09765625 C-31.03484375 55.09765625 -32.35484375 55.09765625 -33.71484375 55.09765625 C-33.19946423 47.96371873 -32.27478474 41.07952808 -30.71484375 34.09765625 C-29.06484375 34.09765625 -27.41484375 34.09765625 -25.71484375 34.09765625 C-25.49570312 34.9175 -25.2765625 35.73734375 -25.05078125 36.58203125 C-23.1159428 43.33536741 -23.1159428 43.33536741 -18.96484375 48.84765625 C-14.72547836 50.4781814 -12.25008419 50.60157185 -7.71484375 50.09765625 C-3.96936771 48.36797912 -3.96936771 48.36797912 -1.71484375 45.09765625 C-1.313766 41.48795646 -1.31446819 39.69301376 -3.3671875 36.640625 C-5.90651658 33.89003726 -8.40420393 32.1761911 -11.58984375 30.22265625 C-21.67330719 23.59074509 -21.67330719 23.59074509 -23.71484375 19.09765625 C-24.46162871 14.94885093 -24.50471256 11.24152025 -23.71484375 7.09765625 C-21.52734375 4.03515625 -21.52734375 4.03515625 -18.71484375 2.09765625 C-18.01359375 1.49953125 -17.31234375 0.90140625 -16.58984375 0.28515625 C-11.22666663 -1.93006908 -5.4895203 -1.82457437 0 0 Z " fill="#E71113" transform="translate(548.71484375,770.90234375)"/>
<path d="M0 0 C-1.71906721 7.34510537 -3.73538009 14.48074766 -6.23046875 21.6015625 C-7.10183572 23.89758576 -7.10183572 23.89758576 -7 26 C-6.61328125 25.51789062 -6.2265625 25.03578125 -5.828125 24.5390625 C-5.30734375 23.90742187 -4.7865625 23.27578125 -4.25 22.625 C-3.73953125 21.99851562 -3.2290625 21.37203125 -2.703125 20.7265625 C0.3392678 17.64230191 2.62710503 17.04143277 6.9375 16.5625 C10.18427706 16.67802203 11.13824228 17.08463813 14.0625 18.875 C16.44498939 22.71772482 16.45726906 24.5961268 15.79296875 28.9765625 C14.64292253 33.3614678 12.98422894 37.49460845 11.17260742 41.64599609 C9.52981828 45.43240632 8.50285764 48.90171025 8 53 C12.50884026 50.68116787 14.93906776 47.93548431 18 44 C18.99 44.33 19.98 44.66 21 45 C18.28138542 50.43722916 15.3416023 54.8552571 10 58 C6.25 58.5625 6.25 58.5625 3 58 C0.9631577 56.45305365 0.11513293 55.56906737 -0.39624023 53.04150391 C-0.33020695 47.29083799 0.80891822 42.69401901 2.9375 37.375 C4.95655774 32.20321406 6.42567804 27.5396625 7 22 C3.64566891 22.94933899 0.30753495 23.89748835 -3 25 C-3.70674629 26.31252882 -4.36184656 27.65278717 -5 29 C-5.79148437 30.02480469 -6.58296875 31.04960938 -7.3984375 32.10546875 C-10.2560824 36.06268347 -11.52473762 40.00436626 -12.75 44.6875 C-12.95753906 45.43322266 -13.16507813 46.17894531 -13.37890625 46.94726562 C-14.30216816 50.28589984 -15.16552264 53.63828836 -16 57 C-18.64 57 -21.28 57 -24 57 C-23.36534244 49.99338052 -21.62503214 43.50089816 -19.6875 36.75 C-19.39166016 35.69425781 -19.09582031 34.63851562 -18.79101562 33.55078125 C-16.98371458 27.1725309 -14.98711132 20.90453201 -12.74536133 14.66503906 C-11.99300191 11.97497834 -11.85749047 9.77720557 -12 7 C-13.65 6.67 -15.3 6.34 -17 6 C-17 4.68 -17 3.36 -17 2 C-14.72954771 1.66408104 -12.45862367 1.33134935 -10.1875 1 C-8.29064453 0.7215625 -8.29064453 0.7215625 -6.35546875 0.4375 C-3 0 -3 0 0 0 Z " fill="#EB1314" transform="translate(590,768)"/>
<path d="M0 0 C4.95 0 9.9 0 15 0 C15 20.46 15 40.92 15 62 C10.05 62 5.1 62 0 62 C0 41.54 0 21.08 0 0 Z " fill="#0B8F3D" transform="translate(368,673)"/>
<path d="M0 0 C3.75 0.6875 3.75 0.6875 5.75 1.75 C7.27690415 4.70837678 6.93468872 7.42466599 6.75 10.6875 C7.12511719 10.21699219 7.50023437 9.74648438 7.88671875 9.26171875 C14.55659493 1.14698274 14.55659493 1.14698274 19.921875 0.375 C23.70254264 0.17731803 26.03819451 0.25347226 29.3125 2.25 C31.30087344 5.62158974 31.02124644 7.7878411 30.75 11.6875 C29.98775465 14.57917065 28.9536788 17.337995 27.875 20.125 C25.80236051 25.60410679 24.07642106 30.97616274 22.75 36.6875 C27.25884026 34.36866787 29.68906776 31.62298431 32.75 27.6875 C33.74 28.0175 34.73 28.3475 35.75 28.6875 C33.26891266 33.3739983 31.05269995 37.43657115 26.75 40.6875 C23.73284997 41.54954287 20.8774476 42.06232518 17.75 41.6875 C15.77981387 40.14281414 14.86433999 39.2231778 14.33618164 36.7487793 C14.3681347 30.69333554 15.78247898 26.02072339 18.1875 20.5 C20.28359724 15.55653107 22.13940707 11.07963752 22.75 5.6875 C15.87724841 6.96886047 12.74184663 8.64942479 8.4765625 14.40625 C3.10647295 22.34747333 0.58244261 31.37258338 -1.25 40.6875 C-3.89 40.6875 -6.53 40.6875 -9.25 40.6875 C-8.76636279 34.52112562 -7.19302462 29.1091241 -5.3046875 23.23046875 C-3.5870396 17.46044414 -2.41847129 11.59182085 -1.25 5.6875 C-5.67950493 8.10161644 -7.27157504 10.00175668 -9.25 14.6875 C-10.57 14.3575 -11.89 14.0275 -13.25 13.6875 C-11.51336875 7.51281112 -6.94460468 0.23063263 0 0 Z " fill="#EA1112" transform="translate(304.25,784.3125)"/>
<path d="M0 0 C2.54878922 1.17244304 4.06297378 2.06297378 6 4 C6.70833333 11.08333333 6.70833333 11.08333333 3.875 14.75 C2.451875 15.86375 2.451875 15.86375 1 17 C0.154375 17.70125 -0.69125 18.4025 -1.5625 19.125 C-7.12925187 22.16141011 -13.62829625 24 -20 24 C-19.71758359 25.46015291 -19.42373386 26.91809793 -19.125 28.375 C-18.96257812 29.18710937 -18.80015625 29.99921875 -18.6328125 30.8359375 C-18.13341068 33.18673923 -18.13341068 33.18673923 -16 35 C-10.61995725 35.44098711 -7.39104318 35.41525581 -3 32 C-1.63015802 30.70420353 -0.2848951 29.38007251 1 28 C1.99 28.33 2.98 28.66 4 29 C2.84349173 33.91516014 -0.05855614 35.91011365 -3.9296875 38.765625 C-8.29216391 41.36664867 -13.01496894 41.50139577 -18 41 C-23.11581824 39.39503741 -25.51947131 36.70872491 -28.0859375 32.171875 C-30.44409987 26.56871998 -29.19455198 20.81934456 -27.171875 15.3046875 C-21.50746196 4.16467519 -12.43560749 -1.6504047 0 0 Z " fill="#ED0F10" transform="translate(417,785)"/>
<path d="M0 0 C1.6875 1.28515625 1.6875 1.28515625 3 3 C3.90925995 9.81944959 2.07517871 15.18482942 -0.20751953 21.52880859 C-1.88786927 26.30741707 -2.60150686 29.98744284 -2 35 C-0.85712614 36.35445367 -0.85712614 36.35445367 2.1875 36.3125 C6.90131479 35.92612174 8.50285923 35.19951177 12 32 C17.84254162 24.27233625 18.81624902 17.50778947 18 8 C16.824375 8.0928125 16.824375 8.0928125 15.625 8.1875 C14.325625 8.0946875 14.325625 8.0946875 13 8 C11 5 11 5 11.3125 2.875 C12 1 12 1 13 0 C15.75 -0.4375 15.75 -0.4375 19 0 C22.31413468 2.66571703 23.68623215 4.28109789 24.44921875 8.4609375 C24.84557069 18.00071863 21.76525687 26.91625662 15.6796875 34.2734375 C10.85463033 39.23314743 6.81139827 41.29628424 -0.1875 41.5625 C-4.085225 41.40009479 -5.76797513 41.13648522 -9.1875 39.125 C-11.75095994 36.11956421 -12.00785792 35.45575955 -11.9375 31.375 C-11.28146455 25.78958704 -9.18551493 20.76025051 -7.08374023 15.58544922 C-5.69030654 12.11009143 -5 9.80434753 -5 6 C-9.20626034 7.50223584 -10.73900021 10.28550034 -13 14 C-13.99 13.67 -14.98 13.34 -16 13 C-13.57350175 4.30504795 -9.4548194 -0.8441803 0 0 Z " fill="#EA1012" transform="translate(359,785)"/>
<path d="M0 0 C7.59 0 15.18 0 23 0 C23 1.32 23 2.64 23 4 C21.6078125 4.2784375 21.6078125 4.2784375 20.1875 4.5625 C16.53810282 6.20830657 16.09325404 7.35364144 14.68319702 10.96218872 C13.51671331 14.44152716 12.71847414 17.97194943 11.95703125 21.55859375 C11.78370773 22.34774673 11.61038422 23.13689972 11.43180847 23.94996643 C10.88549797 26.4444376 10.34885222 28.94087083 9.8125 31.4375 C9.44139473 33.14011348 9.06965605 34.84258902 8.69726562 36.54492188 C7.79084802 40.69505628 6.89308564 44.84697714 6 49 C9.465 49.495 9.465 49.495 13 50 C13 51.32 13 52.64 13 54 C5.08 54 -2.84 54 -11 54 C-11 52.68 -11 51.36 -11 50 C-9.6078125 49.7525 -9.6078125 49.7525 -8.1875 49.5 C-4.67118942 48.26844273 -4.67118942 48.26844273 -3.4609375 44.55859375 C-1.78116789 39.64324298 -0.59386012 34.62203152 0.5625 29.5625 C0.77068359 28.67240234 0.97886719 27.78230469 1.19335938 26.86523438 C1.60466441 25.100104 2.01181516 23.33399981 2.41455078 21.56689453 C2.80194134 19.86838565 3.19605055 18.17139386 3.59716797 16.47607422 C3.78037598 15.68861816 3.96358398 14.90116211 4.15234375 14.08984375 C4.31597412 13.39624756 4.47960449 12.70265137 4.64819336 11.98803711 C5.11616961 9.68002044 5.11616961 9.68002044 5 6 C2.525 5.01 2.525 5.01 0 4 C0 2.68 0 1.36 0 0 Z " fill="#EA1113" transform="translate(269,771)"/>
<path d="M0 0 C2.64 0 5.28 0 8 0 C7.52396226 2.12570312 7.04407402 4.25054427 6.5625 6.375 C6.29566406 7.55835938 6.02882813 8.74171875 5.75390625 9.9609375 C5 13 5 13 4 15 C7.3 15 10.6 15 14 15 C13.67 16.32 13.34 17.64 13 19 C9.37 19 5.74 19 2 19 C1.8453125 20.918125 1.8453125 20.918125 1.6875 22.875 C1.21125631 27.23603151 0.10325239 31.12927566 -1.234375 35.29296875 C-2.59691106 40.11050697 -3.27741149 45.05239397 -4 50 C1.79133889 47.99530577 3.68949609 46.32045272 7 41 C7.99 41 8.98 41 10 41 C9.68327951 46.22588808 6.69889181 49.5609835 3 53 C-0.89399651 55.35668727 -4.53885321 55.88674434 -9 55 C-11.5 52.875 -11.5 52.875 -13 50 C-13.35964985 45.2634793 -12.45882451 41.30200835 -11.1875 36.75 C-10.91728027 35.77244751 -10.91728027 35.77244751 -10.64160156 34.77514648 C-9.17158181 29.49413305 -7.62594796 24.23505974 -6 19 C-7.98 19 -9.96 19 -12 19 C-12 17.68 -12 16.36 -12 15 C-8.535 14.505 -8.535 14.505 -5 14 C-3.35 9.38 -1.7 4.76 0 0 Z " fill="#EA1617" transform="translate(478,771)"/>
<path d="M0 0 C3.50436082 1.32924031 5.3834084 2.3834084 8 5 C8.3125 8.5 8.3125 8.5 8 12 C5 14 5 14 2.875 13.6875 C1 13 1 13 0 12 C-0.23529412 6.47058824 -0.23529412 6.47058824 1 4 C-0.64574566 3.97311849 -2.29161413 3.95365877 -3.9375 3.9375 C-5.31228516 3.92009766 -5.31228516 3.92009766 -6.71484375 3.90234375 C-8.96593327 3.74050951 -8.96593327 3.74050951 -10 5 C-10.62336591 7.77600219 -10.62336591 7.77600219 -10 11 C-8.15008012 13.42862812 -5.90050427 15.30125508 -3.5625 17.25 C3.81029788 23.62059459 3.81029788 23.62059459 4.2734375 26.98828125 C4.46515786 31.37572791 4.50509586 33.3405693 1.75 36.9375 C-4.31362658 41.48521994 -9.50506496 41.84055346 -17 41 C-20.19736066 39.7282543 -22.42395477 38.15209045 -24 35 C-24.1875 31.5 -24.1875 31.5 -24 28 C-23.34 27.34 -22.68 26.68 -22 26 C-17.44444444 26.55555556 -17.44444444 26.55555556 -16 28 C-15.70613847 31.72224599 -15.85190829 32.77786243 -18 36 C-13.65693925 37.44768692 -9.75868747 37.85679646 -5.5625 35.8125 C-3.8263133 34.07999857 -3.8263133 34.07999857 -3.4375 31.625 C-4.36731937 27.28584294 -7.4654189 25.26594545 -10.78515625 22.52734375 C-15.22270188 18.84352137 -18.489455 15.99945189 -19.5 10.0625 C-18.79589925 5.74988288 -17.03907145 4.11143029 -14 1 C-9.84350816 -1.07824592 -4.53799977 -0.34360834 0 0 Z " fill="#E90D0F" transform="translate(451,785)"/>
<path d="M0 0 C2.24432982 1.87027485 3.69443202 3.38886404 5 6 C5.5200872 14.19137335 4.79376562 23.01682614 -0.5625 29.625 C-3.51791294 32.50463312 -4.27090361 32.91898929 -8.375 33.375 C-12 33 -12 33 -14.4375 31.1875 C-17.14715238 25.65980914 -16.84665057 20.16022512 -15.26953125 14.2734375 C-12.60424692 7.07173045 -8.81067407 -1.04888977 0 0 Z " fill="#FCF7F7" transform="translate(730,789)"/>
<path d="M0 0 C2.6823096 2.09327246 3.85869333 3.2913886 4.53125 6.6640625 C4.44345999 14.98216604 3.38234068 22.88679001 -2.6875 29.0625 C-3.450625 29.701875 -4.21375 30.34125 -5 31 C-5.33 31.33 -5.66 31.66 -6 32 C-9.375 32.3125 -9.375 32.3125 -13 32 C-15.4272131 29.70141801 -15.96689155 28.21906757 -16.46875 24.8984375 C-16.5536329 15.32789082 -15.17726594 8.49859409 -8.5625 1.375 C-5.36949369 -0.33832046 -3.57234896 -0.6080594 0 0 Z " fill="#FCF7F7" transform="translate(640,789)"/>
<path d="M0 0 C3.6875 0.625 3.6875 0.625 5.6875 2.625 C6.08514263 4.61321313 6.42525349 6.61444339 6.6875 8.625 C7.09742188 8.13128906 7.50734375 7.63757813 7.9296875 7.12890625 C8.46851563 6.48824219 9.00734375 5.84757813 9.5625 5.1875 C10.09617187 4.54941406 10.62984375 3.91132812 11.1796875 3.25390625 C13.33947279 0.92066671 14.42213301 0.64758442 17.625 0.375 C20.6875 0.625 20.6875 0.625 22.625 1.6875 C24.31931173 4.77712727 23.42701685 7.29717418 22.6875 10.625 C21.6875 11.625 21.6875 11.625 18.625 11.6875 C17.655625 11.666875 16.68625 11.64625 15.6875 11.625 C15.3575 9.975 15.0275 8.325 14.6875 6.625 C8.29684261 9.90668893 6.08889791 15.08488878 3.6875 21.625 C1.74004985 27.88411993 0.19499811 34.24814959 -1.3125 40.625 C-3.9525 40.625 -6.5925 40.625 -9.3125 40.625 C-8.82886279 34.45862562 -7.25552462 29.0466241 -5.3671875 23.16796875 C-3.6495396 17.39794414 -2.48097129 11.52932085 -1.3125 5.625 C-5.74200493 8.03911644 -7.33407504 9.93925668 -9.3125 14.625 C-10.6325 14.295 -11.9525 13.965 -13.3125 13.625 C-11.56305054 7.40473526 -6.99963818 0.14024776 0 0 Z " fill="#F00B0C" transform="translate(675.3125,784.375)"/>
<path d="M0 0 C-0.58503063 3.24233845 -1.54621053 4.88617402 -3.8125 7.25 C-7.0485352 10.90408759 -9.1799153 14.47810069 -11 19 C-11.30035156 19.73089844 -11.60070312 20.46179688 -11.91015625 21.21484375 C-16.22203889 33.90982846 -15.37416369 49.48943855 -11 62 C-10.64291276 63.66173933 -10.30326944 65.32760156 -10 67 C-13.55402723 65.81532426 -14.00984779 64.61767062 -15.65209961 61.39208984 C-15.95253174 60.7677002 -16.25296387 60.14331055 -16.5625 59.5 C-16.8726001 58.86143066 -17.1827002 58.22286133 -17.50219727 57.56494141 C-22.77374584 46.39518627 -23.76673478 34.64247512 -20.10546875 22.73046875 C-17.294947 15.78857934 -8.93084606 0 0 0 Z " fill="#E91212" transform="translate(254,771)"/>
<path d="M0 0 C3 1 3 1 4.31640625 3.0390625 C4.72761719 3.89242187 5.13882813 4.74578125 5.5625 5.625 C5.97628906 6.46289062 6.39007812 7.30078125 6.81640625 8.1640625 C11.64475688 19.73298183 11.47084947 32.29465134 7.3203125 44.03515625 C3.55608742 52.48795755 -2.37082689 59.70689153 -10 65 C-10.99 65 -11.98 65 -13 65 C-11.60138161 61.90650415 -9.90290646 59.62176112 -7.6875 57.0625 C-3.33614341 51.55984698 -1.13232086 45.63018518 1 39 C1.37125 37.89398437 1.37125 37.89398437 1.75 36.765625 C4.51905807 26.84316692 4.28332766 14.52143553 0.65625 4.8828125 C0 3 0 3 0 0 Z " fill="#EE1213" transform="translate(762,771)"/>
<path d="M0 0 C0.31440578 5.24009642 -0.06152816 8.59229224 -3 13 C-7.54658569 17.00532549 -12.04153857 18.25238419 -18 18 C-21 17 -21 17 -23 15 C-24.0625 11.625 -24.0625 11.625 -24 8 C-21.68201818 3.98810838 -19.41863901 2.26246829 -15 1 C-9.99039381 -0.13854686 -5.10585064 -0.10211701 0 0 Z " fill="#F0F8F3" transform="translate(531,707)"/>
<path d="M0 0 C1.65 0 3.3 0 5 0 C3.87004687 8.68279777 2.1131831 17.00877516 -0.09765625 25.46875 C-0.82271566 28.30621193 -1.46322095 31.12242161 -2 34 C1.1239656 32.39580145 2.77215638 31.39189103 4.5625 28.3125 C5.036875 27.549375 5.51125 26.78625 6 26 C7.32 26 8.64 26 10 26 C8.34256641 31.12297654 5.48509825 35.23638189 1.0625 38.375 C-1.77493409 39.23482851 -4.05399504 39.31340478 -7 39 C-9.10535122 37.54803364 -9.81625828 36.55122515 -10.62109375 34.13671875 C-11.03672282 31.79291356 -10.84871739 30.3530476 -10.25 28.0625 C-10.09015625 27.41410156 -9.9303125 26.76570312 -9.765625 26.09765625 C-9 24 -9 24 -7.48828125 21.63671875 C-5.7774713 18.60575624 -5.37368029 16.18862519 -4.9375 12.75 C-4.52734375 9.546875 -4.52734375 9.546875 -4 7 C-3.34 6.67 -2.68 6.34 -2 6 C-1.27306096 4.02111039 -0.60183749 2.02045442 0 0 Z " fill="#EE0F0F" transform="translate(650,787)"/>
<path d="M0 0 C0.4875607 3.98174574 0.85106072 7.5148156 -1.1953125 11.0859375 C-4.99186304 15.60745749 -7.94254522 17.80405193 -13.9375 18.375 C-16.98951052 18.27802023 -18.17748131 17.90756182 -21 16.4375 C-23 14 -23 14 -23.5625 10.5 C-23 7 -23 7 -21.375 4.6875 C-15.22790627 0.31982814 -7.36443644 -0.23013864 0 0 Z " fill="#F4FAF6" transform="translate(765,707)"/>
<path d="M0 0 C1.58386995 0.00604531 3.16760483 0.05639905 4.75 0.125 C5.63171875 0.14820313 6.5134375 0.17140625 7.421875 0.1953125 C10 1 10 1 12.296875 3.6015625 C15.59932136 10.19130639 14.94939653 17.9197284 13.3046875 24.98828125 C11.29782549 30.54509664 8.67227735 34.37660124 4 38 C1.125 38.375 1.125 38.375 -1 38 C-0.690625 37.2575 -0.38125 36.515 -0.0625 35.75 C0.817737 33.47173953 1.41261413 31.3581815 2 29 C2.24878906 28.23945312 2.49757813 27.47890625 2.75390625 26.6953125 C5.15787214 19.05372044 5.31404059 11.96732605 5 4 C3.02 3.34 1.04 2.68 -1 2 C-0.67 1.34 -0.34 0.68 0 0 Z " fill="#EA0C0D" transform="translate(729,786)"/>
<path d="M0 0 C2.85681818 2.38068182 2.85681818 2.38068182 3.25 6.3125 C3.20075107 9.75992511 2.9745149 10.43371601 0.75 13.3125 C-0.673125 14.42625 -0.673125 14.42625 -2.125 15.5625 C-2.929375 16.26375 -3.73375 16.965 -4.5625 17.6875 C-9.63108906 20.9948552 -16.2811532 21.50580441 -22.125 22.5625 C-21.890625 20.65625 -21.890625 20.65625 -21.125 18.5625 C-19.234375 17.65625 -19.234375 17.65625 -16.875 17.0625 C-12.81989169 15.83758652 -9.98061866 14.85078815 -7.125 11.5625 C-6.15064418 8.59840703 -5.56669709 5.64778713 -5.125 2.5625 C-8.80303287 2.21221115 -10.8885939 2.44902507 -14.25 4.0625 C-17.35026418 6.7583819 -18.64677626 8.96094488 -20.265625 12.66015625 C-21.125 14.5625 -21.125 14.5625 -23.125 17.5625 C-22.96 16.469375 -22.795 15.37625 -22.625 14.25 C-22.05781816 10.68724127 -22.05781816 10.68724127 -22.125 7.5625 C-22.74375 8.5525 -23.3625 9.5425 -24 10.5625 C-24.70125 11.5525 -25.4025 12.5425 -26.125 13.5625 C-26.785 13.5625 -27.445 13.5625 -28.125 13.5625 C-28.125 14.2225 -28.125 14.8825 -28.125 15.5625 C-28.785 15.5625 -29.445 15.5625 -30.125 15.5625 C-28.3332702 9.19190516 -23.28960741 3.72877635 -17.875 0.0625 C-12.34066972 -2.75474957 -5.54013882 -2.54846386 0 0 Z " fill="#E70E0F" transform="translate(420.125,786.4375)"/>
<path d="M0 0 C6.6 0 13.2 0 20 0 C20 29.04 20 58.08 20 88 C15.05 88 10.1 88 5 88 C5 67.54 5 47.08 5 26 C5.33 26 5.66 26 6 26 C6 46.13 6 66.26 6 87 C9.96 87 13.92 87 18 87 C18 58.95 18 30.9 18 2 C12.06 2 6.12 2 0 2 C0 1.34 0 0.68 0 0 Z " fill="#2B8D50" transform="translate(182,646)"/>
<path d="M0 0 C4.95 0 9.9 0 15 0 C15 10.23 15 20.46 15 31 C14.67 31 14.34 31 14 31 C14 21.43 14 11.86 14 2 C10.04 2 6.08 2 2 2 C2 30.05 2 58.1 2 87 C5.96 87 9.92 87 14 87 C14 74.13 14 61.26 14 48 C14.33 48 14.66 48 15 48 C15 61.2 15 74.4 15 88 C10.05 88 5.1 88 0 88 C0 58.96 0 29.92 0 0 Z " fill="#2E8D4F" transform="translate(662,646)"/>
<path d="M0 0 C3.60272894 0.86647911 5.12695372 2.50252104 7.16015625 5.51953125 C7.94191912 9.6020707 7.3422307 11.19786639 5.28515625 14.83203125 C3.16015625 17.51953125 3.16015625 17.51953125 1.16015625 18.51953125 C-3.151318 19.00762267 -5.13930838 19.02208923 -8.71484375 16.45703125 C-11.29517115 12.89010808 -11.99443631 10.92541915 -11.83984375 6.51953125 C-8.85010113 1.03833644 -6.24727905 -0.44846911 0 0 Z " fill="#0C8C3D" transform="translate(377.83984375,645.48046875)"/>
<path d="M0 0 C3.25 0.4375 3.25 0.4375 6.125 2.75 C9.39457884 7.25757472 9.00548232 12.12794201 8.25 17.4375 C6.0942411 26.30140252 2.0322545 33.93584625 -5.375 39.4375 C-10.42516099 42.34427871 -16.09230421 42.264394 -21.75 41.4375 C-22.41 40.7775 -23.07 40.1175 -23.75 39.4375 C-20.12 39.4375 -16.49 39.4375 -12.75 39.4375 C-13.74 38.7775 -14.73 38.1175 -15.75 37.4375 C-13.9246875 37.0971875 -13.9246875 37.0971875 -12.0625 36.75 C-6.08132637 35.21258565 -3.23130034 31.45180498 0.0625 26.4375 C3.18129537 20.6774748 2.69343472 14.81310584 2.25 8.4375 C1.074375 8.5303125 1.074375 8.5303125 -0.125 8.625 C-1.424375 8.5321875 -1.424375 8.5321875 -2.75 8.4375 C-4.75 5.4375 -4.75 5.4375 -4.4375 3.3125 C-3.38073214 0.43040582 -3.17217901 0.50466484 0 0 Z " fill="#DD1E21" transform="translate(374.75,784.5625)"/>
<path d="M0 0 C1.9375 1.0625 1.9375 1.0625 3 3 C2.55555556 9.44444444 2.55555556 9.44444444 1 11 C-0.99958364 11.04080783 -3.00045254 11.04254356 -5 11 C-5.33 9.35 -5.66 7.7 -6 6 C-12.39065739 9.28168893 -14.59860209 14.45988878 -17 21 C-18.94745015 27.25911993 -20.49250189 33.62314959 -22 40 C-24.64 40 -27.28 40 -30 40 C-29.67 37.36 -29.34 34.72 -29 32 C-28.06576355 35.01031744 -27.95550089 35.86650268 -29 39 C-27.02 39 -25.04 39 -23 39 C-22.90203125 38.28457031 -22.8040625 37.56914063 -22.703125 36.83203125 C-21.66706786 29.92796085 -20.05836043 23.4514042 -17.90234375 16.8125 C-16.54842815 12.59250334 -15.85077885 9.68300428 -16.4375 5.25 C-16.53933594 4.45078125 -16.64117188 3.6515625 -16.74609375 2.828125 C-16.82988281 2.22484375 -16.91367187 1.6215625 -17 1 C-16.34 1.33 -15.68 1.66 -15 2 C-14.375 5.0625 -14.375 5.0625 -14 8 C-13.59007812 7.50628906 -13.18015625 7.01257813 -12.7578125 6.50390625 C-12.21898437 5.86324219 -11.68015625 5.22257813 -11.125 4.5625 C-10.59132813 3.92441406 -10.05765625 3.28632812 -9.5078125 2.62890625 C-6.64087408 -0.46827852 -4.07533402 -0.33268033 0 0 Z " fill="#D51D20" transform="translate(696,785)"/>
<path d="M0 0 C0.44202344 4.42023441 0.34255088 6.47609866 -2.125 10.25 C-7.02528506 14.93722919 -11.30866154 16.33086615 -18 17 C-14.29456756 4.93763483 -14.29456756 4.93763483 -9.1875 0.625 C-5.50044586 -1.25467466 -3.90961152 -1.11703186 0 0 Z " fill="#FAEEEC" transform="translate(415,789)"/>
<path d="M0 0 C5.72424086 0.07551769 9.97266105 1.629015 14.9375 4.375 C15.5975 3.385 16.2575 2.395 16.9375 1.375 C18.2575 1.375 19.5775 1.375 20.9375 1.375 C20.35259121 7.51654225 19.39683748 13.38179849 17.9375 19.375 C16.6175 19.375 15.2975 19.375 13.9375 19.375 C13.77894531 18.77171875 13.62039063 18.1684375 13.45703125 17.546875 C12.33695022 13.71013333 11.40973772 10.91470026 8.75 7.875 C5.04569609 5.89937125 2.11530563 5.65824106 -2.0625 5.375 C-2.0625 5.045 -2.0625 4.715 -2.0625 4.375 C-0.0825 4.045 1.8975 3.715 3.9375 3.375 C0.3075 3.045 -3.3225 2.715 -7.0625 2.375 C-4.52839057 -0.15910943 -3.5174012 0.04947118 0 0 Z " fill="#EA1112" transform="translate(540.0625,769.625)"/>
<path d="M0 0 C3.50436082 1.32924031 5.3834084 2.3834084 8 5 C8.3125 8.5 8.3125 8.5 8 12 C5 14 5 14 2.875 13.6875 C1 13 1 13 0 12 C-0.23529412 6.47058824 -0.23529412 6.47058824 1 4 C-0.64574566 3.97311849 -2.29161413 3.95365877 -3.9375 3.9375 C-5.31228516 3.92009766 -5.31228516 3.92009766 -6.71484375 3.90234375 C-8.96593327 3.74050951 -8.96593327 3.74050951 -10 5 C-10.26293056 9.03160191 -10.29404844 10.55892734 -8 14 C-8.99 14.33 -9.98 14.66 -11 15 C-11.12117188 14.14535156 -11.24234375 13.29070313 -11.3671875 12.41015625 C-11.53476562 11.30542969 -11.70234375 10.20070313 -11.875 9.0625 C-12.03742188 7.96035156 -12.19984375 6.85820313 -12.3671875 5.72265625 C-12.57601563 4.82417969 -12.78484375 3.92570313 -13 3 C-13.66 2.67 -14.32 2.34 -15 2 C-10.33231519 -1.11178988 -5.46906679 -0.48405215 0 0 Z " fill="#D82225" transform="translate(451,785)"/>
<path d="M0 0 C0.33 0 0.66 0 1 0 C1.03738281 0.60328125 1.07476563 1.2065625 1.11328125 1.828125 C1.40142561 5.33105642 1.70451935 8.32696075 3.125 11.5625 C6.09433853 13.83899288 8.37393745 13.43762824 12 13 C14.87146994 11.63002843 14.87146994 11.63002843 17 10 C17 13 17 13 15 16 C15.99 16.33 16.98 16.66 18 17 C13.39001113 18.53666296 8.81417808 18.54115578 4 18 C0.8125 16 0.8125 16 -1 14 C-3.02055843 18.39251833 -4.40895235 22.15340923 -5 27 C-5.33 27 -5.66 27 -6 27 C-6.20674944 21.21101581 -5.59162079 16.57067277 -4 11 C-2.68 11 -1.36 11 0 11 C0 7.37 0 3.74 0 0 Z " fill="#E21A1D" transform="translate(713,808)"/>
<path d="M0 0 C3 1 3 1 4.31640625 3.0390625 C4.72761719 3.89242187 5.13882813 4.74578125 5.5625 5.625 C5.97628906 6.46289062 6.39007812 7.30078125 6.81640625 8.1640625 C9.41826349 14.3982155 10.28344272 19.77681185 10.125 26.4375 C10.11597656 27.16904297 10.10695313 27.90058594 10.09765625 28.65429688 C10.07436153 30.43634298 10.0385019 32.21821759 10 34 C9.67 34 9.34 34 9 34 C8.67 29.05 8.34 24.1 8 19 C7.34 19 6.68 19 6 19 C6.02320313 19.60328125 6.04640625 20.2065625 6.0703125 20.828125 C6.08835937 21.62734375 6.10640625 22.4265625 6.125 23.25 C6.14820313 24.03890625 6.17140625 24.8278125 6.1953125 25.640625 C5.9828378 28.20731941 5.28654105 29.7916067 4 32 C3.96261719 30.74445312 3.92523437 29.48890625 3.88671875 28.1953125 C3.53138352 16.29500761 3.53138352 16.29500761 0.62109375 4.8125 C0 3 0 3 0 0 Z " fill="#E30307" transform="translate(762,771)"/>
<path d="M0 0 C0.66 0.33 1.32 0.66 2 1 C1.81824219 1.56509277 1.63648438 2.13018555 1.44921875 2.71240234 C0.62982506 5.26565409 -0.1851383 7.82029847 -1 10.375 C-1.42925781 11.70917969 -1.42925781 11.70917969 -1.8671875 13.0703125 C-2.13789062 13.92109375 -2.40859375 14.771875 -2.6875 15.6484375 C-2.93886719 16.43395996 -3.19023438 17.21948242 -3.44921875 18.02880859 C-4.0897026 19.97992105 -4.0897026 19.97992105 -4 22 C-3.61328125 21.50628906 -3.2265625 21.01257813 -2.828125 20.50390625 C-2.30734375 19.86324219 -1.7865625 19.22257813 -1.25 18.5625 C-0.73953125 17.92441406 -0.2290625 17.28632812 0.296875 16.62890625 C2.19667629 14.81189446 3.43586908 14.39576803 6 14 C6 14.66 6 15.32 6 16 C7.65 16.33 9.3 16.66 11 17 C11.22084624 23.09781001 11.01167675 28.21642935 9 34 C8.34 33.67 7.68 33.34 7 33 C7.99 28.05 8.98 23.1 10 18 C4.97765661 19.42777633 4.97765661 19.42777633 0 21 C-0.68486725 22.32407669 -1.34870203 23.65909241 -2 25 C-3.29470975 26.37086915 -4.62150897 27.71340837 -6 29 C-7.0156653 18.67406942 -3.34138658 9.61833531 0 0 Z " fill="#D72323" transform="translate(587,772)"/>
<path d="M0 0 C3.125 0.25 3.125 0.25 4.8046875 1.265625 C6.87630093 4.37917418 6.47763573 7.64491987 6.375 11.25 C6.36984375 11.97445312 6.3646875 12.69890625 6.359375 13.4453125 C6.31245506 16.6241381 6.1359624 19.21711281 5.125 22.25 C4.465 22.25 3.805 22.25 3.125 22.25 C2.795 17.63 2.465 13.01 2.125 8.25 C0.475 8.25 -1.175 8.25 -2.875 8.25 C-4.875 5.25 -4.875 5.25 -4.5625 3.125 C-3.47638528 0.16286895 -3.3121091 0.28800949 0 0 Z " fill="#E80D0F" transform="translate(374.875,784.75)"/>
<path d="M0 0 C2.3684401 1.441221 3.34368027 2.71542106 5 5 C5.66 3.68 6.32 2.36 7 1 C9.64 1 12.28 1 15 1 C14.34 3.97 13.68 6.94 13 10 C12.67 10 12.34 10 12 10 C11.875 4.25 11.875 4.25 13 2 C11.35 2 9.7 2 8 2 C7.67 3.98 7.34 5.96 7 8 C6.01 8.33 5.02 8.66 4 9 C4.04125 10.216875 4.0825 11.43375 4.125 12.6875 C4.13754508 16.21894127 3.59998217 18.80003566 2 22 C0.27969289 18.55938578 1.10162253 14.62837231 1.2578125 10.84765625 C1.25523733 8.00067703 1.25523733 8.00067703 -0.3828125 6.19140625 C-4.21675076 3.36688652 -8.41532988 2.10664451 -13 1 C-9.05061818 -0.97469091 -4.29329615 -0.58151274 0 0 Z " fill="#D82E2F" transform="translate(642,785)"/>
<path d="M0 0 C0.515625 0.2475 1.03125 0.495 1.5625 0.75 C0.9025 0.75 0.2425 0.75 -0.4375 0.75 C-0.1075 1.74 0.2225 2.73 0.5625 3.75 C-0.345 4.245 -1.2525 4.74 -2.1875 5.25 C-5.62101565 7.50931808 -6.95754678 10.14449285 -8.578125 13.84765625 C-9.4375 15.75 -9.4375 15.75 -11.4375 18.75 C-11.2725 17.656875 -11.1075 16.56375 -10.9375 15.4375 C-10.37031816 11.87474127 -10.37031816 11.87474127 -10.4375 8.75 C-11.05625 9.74 -11.675 10.73 -12.3125 11.75 C-13.01375 12.74 -13.715 13.73 -14.4375 14.75 C-15.0975 14.75 -15.7575 14.75 -16.4375 14.75 C-16.4375 15.41 -16.4375 16.07 -16.4375 16.75 C-17.0975 16.75 -17.7575 16.75 -18.4375 16.75 C-16.59544937 10.20048664 -11.44981508 4.72531626 -5.75 1.1875 C-2.4375 -0.25 -2.4375 -0.25 0 0 Z " fill="#DE1315" transform="translate(408.4375,785.25)"/>
<path d="M0 0 C0.886875 -0.01417969 1.77375 -0.02835938 2.6875 -0.04296875 C5 0.1875 5 0.1875 7 2.1875 C4.36 2.1875 1.72 2.1875 -1 2.1875 C0.65 3.1775 2.3 4.1675 4 5.1875 C3.67 6.1775 3.34 7.1675 3 8.1875 C3 7.5275 3 6.8675 3 6.1875 C-2.55974747 4.92619183 -2.55974747 4.92619183 -7.75 6.625 C-10.6059945 9.87766041 -12.24511391 13.26391189 -14 17.1875 C-14.66109375 18.52360526 -15.32621917 19.85774753 -16 21.1875 C-15.7834375 19.82625 -15.7834375 19.82625 -15.5625 18.4375 C-14.78452415 13.04723874 -14.41887914 7.61510412 -14 2.1875 C-13.34 3.5075 -12.68 4.8275 -12 6.1875 C-10.824375 4.9809375 -10.824375 4.9809375 -9.625 3.75 C-6.17571511 0.38284094 -4.68650607 0.03405891 0 0 Z " fill="#D71618" transform="translate(730,784.8125)"/>
<path d="M0 0 C3 0.4375 3 0.4375 4.9375 1.5 C6.63181173 4.58962727 5.73951685 7.10967418 5 10.4375 C4 11.4375 4 11.4375 0.9375 11.5 C-0.031875 11.479375 -1.00125 11.45875 -2 11.4375 C-2 9.4575 -2 7.4775 -2 5.4375 C-3.32 5.1075 -4.64 4.7775 -6 4.4375 C-4.25840822 1.34133684 -3.60277923 0.5254053 0 0 Z " fill="#E80E10" transform="translate(693,784.5625)"/>
<path d="M0 0 C-0.59036973 3.25058998 -1.5962824 5.00807665 -3.8125 7.4375 C-4.34746094 8.035625 -4.88242188 8.63375 -5.43359375 9.25 C-5.95050781 9.8275 -6.46742188 10.405 -7 11 C-8.34192868 12.65975389 -9.67909475 14.32346641 -11 16 C-11.33 15.34 -11.66 14.68 -12 14 C-14.72426311 16.35277269 -15.8141763 18.62496331 -17 22 C-17.66 22 -18.32 22 -19 22 C-17.39657232 15.05181337 -8.15354541 0 0 0 Z " fill="#DA191C" transform="translate(254,771)"/>
<path d="M0 0 C1.175625 0.165 2.35125 0.33 3.5625 0.5 C3.5625 0.83 3.5625 1.16 3.5625 1.5 C1.9125 1.83 0.2625 2.16 -1.4375 2.5 C-0.4475 3.985 -0.4475 3.985 0.5625 5.5 C0.1875 8.1875 0.1875 8.1875 -0.4375 10.5 C-0.7675 10.5 -1.0975 10.5 -1.4375 10.5 C-1.4375 8.85 -1.4375 7.2 -1.4375 5.5 C-5.94885667 7.69471406 -7.50023348 9.91173718 -9.4375 14.5 C-10.7575 14.17 -12.0775 13.84 -13.4375 13.5 C-11.66111627 7.18396896 -7.10818137 -0.03787663 0 0 Z " fill="#DA1E22" transform="translate(675.4375,784.5)"/>
<path d="M0 0 C1.485 0.99 1.485 0.99 3 2 C3.1875 5.625 3.1875 5.625 3 9 C3.37511719 8.51789062 3.75023437 8.03578125 4.13671875 7.5390625 C7.10819566 3.87149654 9.26337814 1.25381167 14 0 C13.67 0.66 13.34 1.32 13 2 C14.65 2.33 16.3 2.66 18 3 C18 3.33 18 3.66 18 4 C16.948125 4.226875 15.89625 4.45375 14.8125 4.6875 C10.80301987 5.82729173 8.76218068 7.86455166 6 11 C4.67272443 12.33936369 3.34036925 13.6737399 2 15 C1.6648342 12.87528825 1.33192171 10.75022095 1 8.625 C0.814375 7.44164062 0.62875 6.25828125 0.4375 5.0390625 C0 2 0 2 0 0 Z " fill="#D21619" transform="translate(308,786)"/>
<path d="M0 0 C1.32 0 2.64 0 4 0 C2.34256641 5.12297654 -0.51490175 9.23638189 -4.9375 12.375 C-7.77493409 13.23482851 -10.05399504 13.31340478 -13 13 C-14.9375 11.75 -14.9375 11.75 -16 10 C-15.6875 7.8125 -15.6875 7.8125 -15 6 C-14.814375 6.639375 -14.62875 7.27875 -14.4375 7.9375 C-13.05753944 10.42126213 -13.05753944 10.42126213 -9.375 10.75 C-8.26125 10.8325 -7.1475 10.915 -6 11 C-6 10.34 -6 9.68 -6 9 C-6.66 8.67 -7.32 8.34 -8 8 C-6.8553125 7.4121875 -6.8553125 7.4121875 -5.6875 6.8125 C-2.84198991 5.17735958 -2.84198991 5.17735958 -1.4375 2.3125 C-0.7259375 1.1678125 -0.7259375 1.1678125 0 0 Z " fill="#DA1D1F" transform="translate(656,813)"/>
<path d="M0 0 C1.32 0.66 2.64 1.32 4 2 C4.1875 5.375 4.1875 5.375 4 9 C1 11 1 11 -1.125 10.6875 C-3 10 -3 10 -4 9 C-4.3125 6.125 -4.3125 6.125 -4 3 C-2 1.125 -2 1.125 0 0 Z " fill="#E01316" transform="translate(455,788)"/>
<path d="M0 0 C1.175625 0.165 2.35125 0.33 3.5625 0.5 C3.5625 0.83 3.5625 1.16 3.5625 1.5 C1.2525 1.83 -1.0575 2.16 -3.4375 2.5 C-2.1175 3.49 -0.7975 4.48 0.5625 5.5 C0.2325 7.15 -0.0975 8.8 -0.4375 10.5 C-0.7675 10.5 -1.0975 10.5 -1.4375 10.5 C-1.4375 8.85 -1.4375 7.2 -1.4375 5.5 C-5.94885667 7.69471406 -7.50023348 9.91173718 -9.4375 14.5 C-10.7575 14.17 -12.0775 13.84 -13.4375 13.5 C-11.66111627 7.18396896 -7.10818137 -0.03787663 0 0 Z " fill="#D63030" transform="translate(304.4375,784.5)"/>
<path d="M0 0 C0.33 0.66 0.66 1.32 1 2 C5.25800538 3.41933513 9.22911538 3.72651677 13.4375 2 C13.953125 1.67 14.46875 1.34 15 1 C15.99 2.32 16.98 3.64 18 5 C14.61494922 7.04242247 11.92471691 7.29778231 8 7.3125 C6.453125 7.33763672 6.453125 7.33763672 4.875 7.36328125 C1.68988032 6.96081368 0.34266462 6.13430263 -2 4 C-1.34 4 -0.68 4 0 4 C0 2.68 0 1.36 0 0 Z " fill="#E21B21" transform="translate(432,819)"/>
<path d="M0 0 C0.99 0.33 1.98 0.66 3 1 C0.51891266 5.6864983 -1.69730005 9.74907115 -6 13 C-9.00076869 13.68199288 -11.92785341 13.92637557 -15 14 C-12 12 -12 12 -8 12 C-8.33 11.01 -8.66 10.02 -9 9 C-7.6078125 7.88625 -7.6078125 7.88625 -6.1875 6.75 C-3.72873042 4.70974439 -1.78352451 2.67528677 0 0 Z " fill="#DE181B" transform="translate(337,812)"/>
<path d="M0 0 C0.66 0.33 1.32 0.66 2 1 C1.67 1.33 1.34 1.66 1 2 C1.99 2.66 2.98 3.32 4 4 C2.48019531 4.39832031 2.48019531 4.39832031 0.9296875 4.8046875 C-0.42190177 5.16135689 -1.77346278 5.51813343 -3.125 5.875 C-3.79015625 6.04902344 -4.4553125 6.22304688 -5.140625 6.40234375 C-8.25896255 7.22778604 -11.26622536 8.09629428 -14.3046875 9.1953125 C-17 10 -17 10 -20 9 C-17.34803192 7.79050428 -14.69490876 6.58377657 -12.0390625 5.3828125 C-10.13224555 4.51518628 -8.23033349 3.63660907 -6.3359375 2.7421875 C-5.54445313 2.37351562 -4.75296875 2.00484375 -3.9375 1.625 C-3.22464844 1.28726563 -2.51179688 0.94953125 -1.77734375 0.6015625 C-1.19082031 0.40304687 -0.60429687 0.20453125 0 0 Z " fill="#EDCB4B" transform="translate(505,585)"/>
<path d="M0 0 C0.33 0 0.66 0 1 0 C1.03738281 0.59167969 1.07476563 1.18335938 1.11328125 1.79296875 C1.51376901 6.60667451 2.0385035 10.00841777 5 14 C4.01 14 3.02 14 2 14 C1.67 14.66 1.34 15.32 1 16 C0.34 15.34 -0.32 14.68 -1 14 C-3.02055843 18.39251833 -4.40895235 22.15340923 -5 27 C-5.33 27 -5.66 27 -6 27 C-6.20674944 21.21101581 -5.59162079 16.57067277 -4 11 C-2.68 11 -1.36 11 0 11 C0 7.37 0 3.74 0 0 Z " fill="#D72727" transform="translate(713,808)"/>
<path d="M0 0 C0 0.33 0 0.66 0 1 C-1.7015625 1.2165625 -1.7015625 1.2165625 -3.4375 1.4375 C-6.80777201 1.61171478 -6.80777201 1.61171478 -8 3 C-7.01 3.66 -6.02 4.32 -5 5 C-6.1446875 5.5878125 -6.1446875 5.5878125 -7.3125 6.1875 C-10.24716071 8.16668978 -11.40126898 9.8866817 -13 13 C-13.99 12.67 -14.98 12.34 -16 12 C-13.81888915 2.83933442 -9.2141172 -0.95318454 0 0 Z " fill="#DD1F20" transform="translate(715,785)"/>
<path d="M0 0 C0.99 0.33 1.98 0.66 3 1 C1.5666944 6.01656959 -0.90563952 8.01452882 -5 11 C-5.66 11 -6.32 11 -7 11 C-7.66 9.68 -8.32 8.36 -9 7 C-7.88625 6.38125 -7.88625 6.38125 -6.75 5.75 C-4.09828315 4.06254382 -2.13325986 2.29127911 0 0 Z " fill="#E11B1E" transform="translate(418,813)"/>
<path d="M0 0 C2.3684401 1.441221 3.34368027 2.71542106 5 5 C4.67 5.66 4.34 6.32 4 7 C3.34 6.67 2.68 6.34 2 6 C1.67 6.66 1.34 7.32 1 8 C0.5875 7.54625 0.175 7.0925 -0.25 6.625 C-3.86009809 3.27276606 -8.29900011 2.13472411 -13 1 C-9.05061818 -0.97469091 -4.29329615 -0.58151274 0 0 Z " fill="#DA1E20" transform="translate(642,785)"/>
<path d="M0 0 C0.33 0.99 0.66 1.98 1 3 C1.66 3 2.32 3 3 3 C1.63746417 6.11824121 0.14891747 8.04737351 -2.4375 10.25 C-3.03433594 10.77078125 -3.63117187 11.2915625 -4.24609375 11.828125 C-6 13 -6 13 -9 13 C-7.50923566 9.7173068 -5.61379679 7.06922559 -3.375 4.25 C-2.74335937 3.45078125 -2.11171875 2.6515625 -1.4609375 1.828125 C-0.97882812 1.22484375 -0.49671875 0.6215625 0 0 Z " fill="#D5191B" transform="translate(758,823)"/>
<path d="M0 0 C7.1191234 -0.8089913 12.62116486 2.06720223 19 5 C15.52128379 6.15957207 14.65780355 5.77456651 11.3125 4.5625 C10.50425781 4.27503906 9.69601562 3.98757812 8.86328125 3.69140625 C8.24839844 3.46324219 7.63351562 3.23507813 7 3 C6.67 4.65 6.34 6.3 6 8 C1.125 3.375 1.125 3.375 0 0 Z " fill="#D71E23" transform="translate(629,46)"/>
<path d="M0 0 C0.99 0 1.98 0 3 0 C2.67566492 5.35152885 -0.49704824 8.28280043 -4 12 C-4.33 11.01 -4.66 10.02 -5 9 C-5.66 8.67 -6.32 8.34 -7 8 C-6.21625 7.236875 -5.4325 6.47375 -4.625 5.6875 C-1.92742283 3.09108195 -1.92742283 3.09108195 0 0 Z " fill="#E11218" transform="translate(485,812)"/>
<path d="M0 0 C-1.98 0.66 -3.96 1.32 -6 2 C-6.04898438 2.63808594 -6.09796875 3.27617188 -6.1484375 3.93359375 C-6.22320313 4.75988281 -6.29796875 5.58617187 -6.375 6.4375 C-6.44460938 7.26121094 -6.51421875 8.08492187 -6.5859375 8.93359375 C-6.72257813 9.61550781 -6.85921875 10.29742188 -7 11 C-7.99 11.495 -7.99 11.495 -9 12 C-9 9.69 -9 7.38 -9 5 C-10.65 4.67 -12.3 4.34 -14 4 C-14 2.68 -14 1.36 -14 0 C-12.41773035 -0.19627391 -10.83410729 -0.38165538 -9.25 -0.5625 C-8.36828125 -0.66691406 -7.4865625 -0.77132812 -6.578125 -0.87890625 C-4.11567549 -0.99456676 -2.33461936 -0.73638695 0 0 Z " fill="#D61419" transform="translate(587,770)"/>
<path d="M0 0 C1.42892578 0.00773438 1.42892578 0.00773438 2.88671875 0.015625 C4.30404297 0.00789062 4.30404297 0.00789062 5.75 0 C8.70031364 0.27748455 10.89341019 1.03508992 13.57421875 2.265625 C11.94009432 3.97402781 10.70515781 5.20015547 8.57421875 6.265625 C5.87856673 6.09782337 3.25016321 5.65406855 0.57421875 5.265625 C0.57421875 4.935625 0.57421875 4.605625 0.57421875 4.265625 C2.55421875 3.935625 4.53421875 3.605625 6.57421875 3.265625 C2.94421875 2.935625 -0.68578125 2.605625 -4.42578125 2.265625 C-2.42578125 0.265625 -2.42578125 0.265625 0 0 Z " fill="#D33939" transform="translate(537.42578125,769.734375)"/>
<path d="M0 0 C0.66 0 1.32 0 2 0 C2.75 1.6875 2.75 1.6875 3 4 C1.1875 6.5625 1.1875 6.5625 -1 9 C-1.99 10.485 -1.99 10.485 -3 12 C-3.99 11.67 -4.98 11.34 -6 11 C-4.74809374 6.51400257 -3.20614467 3.40652872 0 0 Z " fill="#DB181D" transform="translate(349,787)"/>
<path d="M0 0 C3.89234679 5.83852018 4.2864115 11.65200895 4.125 18.4375 C4.11597656 19.16904297 4.10695313 19.90058594 4.09765625 20.65429688 C4.07436153 22.43634298 4.0385019 24.21821759 4 26 C3.67 26 3.34 26 3 26 C2.34 19.73 1.68 13.46 1 7 C0.34 7 -0.32 7 -1 7 C-0.67 4.69 -0.34 2.38 0 0 Z " fill="#D8252A" transform="translate(768,779)"/>
<path d="M0 0 C0.99 0.33 1.98 0.66 3 1 C-1 8.57142857 -1 8.57142857 -5 11 C-5 10.34 -5 9.68 -5 9 C-5.66 8.67 -6.32 8.34 -7 8 C-4.69 5.36 -2.38 2.72 0 0 Z " fill="#D9191E" transform="translate(608,812)"/>
<path d="M0 0 C0 3.67871799 -0.75309702 4.18085328 -3.1875 6.8125 C-4.13882813 7.85857422 -4.13882813 7.85857422 -5.109375 8.92578125 C-5.73328125 9.61027344 -6.3571875 10.29476563 -7 11 C-8.68728801 12.98381634 -10.34260309 14.99103405 -12 17 C-12.66 16.34 -13.32 15.68 -14 15 C-12.0421736 12.87453098 -10.08376183 10.74960666 -8.125 8.625 C-7.29162109 7.72007812 -7.29162109 7.72007812 -6.44140625 6.796875 C-5.90644531 6.21679688 -5.37148438 5.63671875 -4.8203125 5.0390625 C-4.08192139 4.23782959 -4.08192139 4.23782959 -3.32861328 3.42041016 C-2.24184238 2.25855182 -1.12494128 1.12494128 0 0 Z " fill="#199145" transform="translate(558,362)"/>
<path d="M0 0 C0.66 0.33 1.32 0.66 2 1 C1.030625 1.61875 0.06125 2.2375 -0.9375 2.875 C-4.02835362 4.65678846 -4.02835362 4.65678846 -5 7 C-4.34 7.33 -3.68 7.66 -3 8 C-5.64 8 -8.28 8 -11 8 C-10 5 -10 5 -7.78515625 3.578125 C-6.88667969 3.13984375 -5.98820313 2.7015625 -5.0625 2.25 C-4.16660156 1.80140625 -3.27070312 1.3528125 -2.34765625 0.890625 C-1.18556641 0.44976562 -1.18556641 0.44976562 0 0 Z " fill="#D93235" transform="translate(574,52)"/>
<path d="M0 0 C-3.0469629 1.69433918 -5.82821466 2.49467112 -9.25 3.125 C-10.58804687 3.37636719 -10.58804687 3.37636719 -11.953125 3.6328125 C-12.62859375 3.75398437 -13.3040625 3.87515625 -14 4 C-13.67 2.68 -13.34 1.36 -13 0 C-7.85910687 -1.85072153 -5.04468729 -2.21474076 0 0 Z " fill="#E62227" transform="translate(412,805)"/>
<path d="M0 0 C0.66 0.33 1.32 0.66 2 1 C1.67 1.33 1.34 1.66 1 2 C2.65 2.33 4.3 2.66 6 3 C6 3.33 6 3.66 6 4 C1.33333333 5.33333333 -3.33333333 6.66666667 -8 8 C-3.375 2.25 -3.375 2.25 0 0 Z " fill="#DF2B2E" transform="translate(320,786)"/>
<path d="M0 0 C7.48291572 6.15034169 7.48291572 6.15034169 10 10 C8.02 10.99 8.02 10.99 6 12 C4.99466333 10.37829621 3.99588093 8.75252763 3 7.125 C2.443125 6.22007812 1.88625 5.31515625 1.3125 4.3828125 C0 2 0 2 0 0 Z " fill="#EBCA2F" transform="translate(632,254)"/>
<path d="M0 0 C0.66666667 1.33333333 1.33333333 2.66666667 2 4 C2.37125 4.680625 2.7425 5.36125 3.125 6.0625 C4 8 4 8 4 11 C1 10 1 10 -0.75 7.6875 C-2 5 -2 5 -1.75 2.75 C-1 1 -1 1 0 0 Z " fill="#DC1F25" transform="translate(240,827)"/>
<path d="M0 0 C0.8125 1.6875 0.8125 1.6875 1 4 C-1.4375 6.75 -1.4375 6.75 -4 9 C-4 8.34 -4 7.68 -4 7 C-6.31 7 -8.62 7 -11 7 C-11 6.67 -11 6.34 -11 6 C-9.9275 5.7525 -8.855 5.505 -7.75 5.25 C-4.00350563 4.00116854 -2.47926118 2.97511342 0 0 Z " fill="#DC2426" transform="translate(639,815)"/>
<path d="M0 0 C2.4375 1 2.4375 1 4 2 C1.50907189 3.24546405 0.58919267 2.7767578 -2 2 C-2 2.66 -2 3.32 -2 4 C-4.31 3.67 -6.62 3.34 -9 3 C-9 2.34 -9 1.68 -9 1 C-5.97562661 -0.5121867 -3.33758466 -0.17263369 0 0 Z " fill="#D20B0E" transform="translate(417,785)"/>
<path d="M0 0 C3.75376152 1.25125384 4.24073289 2.5652404 6 6 C6 6.66 6 7.32 6 8 C5.34 8 4.68 8 4 8 C4 9.65 4 11.3 4 13 C3.67 13 3.34 13 3 13 C2.49487756 11.39743892 1.99608373 9.79288208 1.5 8.1875 C1.2215625 7.29417969 0.943125 6.40085937 0.65625 5.48046875 C0 3 0 3 0 0 Z " fill="#D71E20" transform="translate(762,771)"/>
<path d="M0 0 C0 0.66 0 1.32 0 2 C-1.78398614 3.28006797 -3.62853906 4.47660351 -5.5 5.625 C-7.03140625 6.57246094 -7.03140625 6.57246094 -8.59375 7.5390625 C-9.3878125 8.02117188 -10.181875 8.50328125 -11 9 C-11 8.01 -11 7.02 -11 6 C-7.87042029 3.1312186 -4.42409377 0 0 0 Z " fill="#178B42" transform="translate(507,701)"/>
<path d="M0 0 C1.98 0 3.96 0 6 0 C6 0.66 6 1.32 6 2 C6.66 2.33 7.32 2.66 8 3 C5.27457733 4.36271133 3.03912726 4.16923601 0 4.1875 C-1.0725 4.20167969 -2.145 4.21585938 -3.25 4.23046875 C-6 4 -6 4 -8 2 C-4.37 2 -0.74 2 3 2 C2.01 1.34 1.02 0.68 0 0 Z " fill="#D72D33" transform="translate(359,822)"/>
<path d="M0 0 C2.0625 0.4375 2.0625 0.4375 4 1 C3.96519531 1.92232422 3.96519531 1.92232422 3.9296875 2.86328125 C3.91164063 3.67152344 3.89359375 4.47976563 3.875 5.3125 C3.84019531 6.51326172 3.84019531 6.51326172 3.8046875 7.73828125 C3.84182678 10.28388576 3.84182678 10.28388576 6 13 C5.01 13.33 4.02 13.66 3 14 C2.87882812 13.14535156 2.75765625 12.29070313 2.6328125 11.41015625 C2.46523438 10.30542969 2.29765625 9.20070313 2.125 8.0625 C1.96257812 6.96035156 1.80015625 5.85820313 1.6328125 4.72265625 C1.42398437 3.82417969 1.21515625 2.92570313 1 2 C0.34 1.67 -0.32 1.34 -1 1 C-0.67 0.67 -0.34 0.34 0 0 Z " fill="#E02B2C" transform="translate(437,786)"/>
<path d="M0 0 C0.66 0.33 1.32 0.66 2 1 C1.67 1.33 1.34 1.66 1 2 C1.99 2.66 2.98 3.32 4 4 C-1.37305699 5.67357513 -1.37305699 5.67357513 -4 6 C-6 4.625 -6 4.625 -7 3 C-4.69631264 1.93347808 -2.35981813 0.93578995 0 0 Z " fill="#F4C940" transform="translate(505,585)"/>
<path d="M0 0 C0.99 0.33 1.98 0.66 3 1 C1.68 3.31 0.36 5.62 -1 8 C-2.32 7.34 -3.64 6.68 -5 6 C-3.35 4.02 -1.7 2.04 0 0 Z " fill="#DD1E25" transform="translate(337,812)"/>
<path d="M0 0 C0.556875 0.226875 1.11375 0.45375 1.6875 0.6875 C1.0275 0.6875 0.3675 0.6875 -0.3125 0.6875 C0.0175 1.6775 0.3475 2.6675 0.6875 3.6875 C-1.7875 5.1725 -1.7875 5.1725 -4.3125 6.6875 C-4.6425 5.6975 -4.9725 4.7075 -5.3125 3.6875 C-5.9725 3.3575 -6.6325 3.0275 -7.3125 2.6875 C-2.88173077 -0.38942308 -2.88173077 -0.38942308 0 0 Z " fill="#D92726" transform="translate(408.3125,785.3125)"/>
<path d="M0 0 C-1.38188453 3.21043882 -2.92421903 5.04936365 -5.625 7.25 C-6.57246094 8.03117188 -6.57246094 8.03117188 -7.5390625 8.828125 C-8.02117187 9.21484375 -8.50328125 9.6015625 -9 10 C-9 7 -9 7 -7.5390625 5.17578125 C-6.90742188 4.56089844 -6.27578125 3.94601562 -5.625 3.3125 C-4.68527344 2.37857422 -4.68527344 2.37857422 -3.7265625 1.42578125 C-2 0 -2 0 0 0 Z " fill="#218C49" transform="translate(253,673)"/>
<path d="M0 0 C1.32 0 2.64 0 4 0 C3.34 1.98 2.68 3.96 2 6 C0.68 6 -0.64 6 -2 6 C-1.34 4.02 -0.68 2.04 0 0 Z " fill="#D42227" transform="translate(701,791)"/>
<path d="M0 0 C3.63 0 7.26 0 11 0 C11.33 0.66 11.66 1.32 12 2 C8.7 2.66 5.4 3.32 2 4 C2 3.01 2 2.02 2 1 C1.34 0.67 0.68 0.34 0 0 Z " fill="#E40405" transform="translate(533,772)"/>
<path d="M0 0 C0.66 0 1.32 0 2 0 C1.67 2.31 1.34 4.62 1 7 C-0.32 6.67 -1.64 6.34 -3 6 C-1.125 1.125 -1.125 1.125 0 0 Z " fill="#D6252B" transform="translate(665,792)"/>
<path d="M0 0 C0.33 1.32 0.66 2.64 1 4 C1.33 4.66 1.66 5.32 2 6 C0.03533587 7.06775224 -1.96855359 8.06553465 -4 9 C-4.66 8.67 -5.32 8.34 -6 8 C-4.02 5.36 -2.04 2.72 0 0 Z " fill="#349958" transform="translate(530,556)"/>
<path d="M0 0 C0.66 0.99 1.32 1.98 2 3 C-1.625 6 -1.625 6 -5 6 C-5 5.01 -5 4.02 -5 3 C-2.5 1.3125 -2.5 1.3125 0 0 Z " fill="#D70E12" transform="translate(370,818)"/>
<path d="M0 0 C1.32 0.33 2.64 0.66 4 1 C0.535 3.97 0.535 3.97 -3 7 C-2.25 2.25 -2.25 2.25 0 0 Z " fill="#E6171B" transform="translate(624,789)"/>
<path d="M0 0 C0.33 0.99 0.66 1.98 1 3 C-0.21484375 5.04296875 -0.21484375 5.04296875 -1.9375 7.1875 C-2.50339844 7.90292969 -3.06929687 8.61835937 -3.65234375 9.35546875 C-4.09707031 9.89816406 -4.54179688 10.44085937 -5 11 C-5.66 10.34 -6.32 9.68 -7 9 C-4.69 6.03 -2.38 3.06 0 0 Z " fill="#20974A" transform="translate(560,519)"/>
<path d="M0 0 C0.99 0 1.98 0 3 0 C2.25 4.75 2.25 4.75 0 7 C-0.33 6.34 -0.66 5.68 -1 5 C-1.66 4.67 -2.32 4.34 -3 4 C-1.6875 2 -1.6875 2 0 0 Z " fill="#E22227" transform="translate(485,812)"/>
<path d="M0 0 C1.53445094 3.06890187 0.54984289 5.70094266 0 9 C-1.32 8.67 -2.64 8.34 -4 8 C-2.87548273 5.0280615 -1.77706209 2.66559313 0 0 Z " fill="#CD2B2E" transform="translate(295,790)"/>
<path d="M0 0 C2.31 0 4.62 0 7 0 C5.36587557 1.70840281 4.13093906 2.93453047 2 4 C-0.69565202 3.83219837 -3.32405554 3.38844355 -6 3 C-6 2.67 -6 2.34 -6 2 C-4.02 1.67 -2.04 1.34 0 1 C0 0.67 0 0.34 0 0 Z " fill="#E13A3C" transform="translate(544,772)"/>
<path d="M0 0 C0 3.54404336 -0.60989485 4.10267905 -2.875 6.6875 C-3.40867188 7.31011719 -3.94234375 7.93273437 -4.4921875 8.57421875 C-6 10 -6 10 -8 10 C-8 8 -8 8 -5.6875 5.5625 C-4.800625 4.716875 -3.91375 3.87125 -3 3 C-2.401875 2.401875 -1.80375 1.80375 -1.1875 1.1875 C-0.795625 0.795625 -0.40375 0.40375 0 0 Z " fill="#208A46" transform="translate(237,688)"/>
<path d="M0 0 C3.96 0.33 7.92 0.66 12 1 C7.78370866 3.10814567 5.60209225 3.17700355 1 3 C0.67 2.01 0.34 1.02 0 0 Z " fill="#D1393E" transform="translate(515,92)"/>
<path d="M0 0 C-1.04874998 2.62187494 -1.64931313 3.79371361 -4.125 5.25 C-4.74375 5.4975 -5.3625 5.745 -6 6 C-6 5.01 -6 4.02 -6 3 C-6.66 2.67 -7.32 2.34 -8 2 C-2.25 0 -2.25 0 0 0 Z " fill="#E01416" transform="translate(656,819)"/>
<path d="M0 0 C0.66 0.33 1.32 0.66 2 1 C1.34 1.66 0.68 2.32 0 3 C0.99 3.33 1.98 3.66 3 4 C3 5.65 3 7.3 3 9 C2.67 7.68 2.34 6.36 2 5 C1.071875 5.309375 1.071875 5.309375 0.125 5.625 C-0.57625 5.74875 -1.2775 5.8725 -2 6 C-2.66 5.34 -3.32 4.68 -4 4 C-2.68 2.68 -1.36 1.36 0 0 Z " fill="#DB1C1D" transform="translate(688,786)"/>
<path d="M0 0 C-0.3125 1.875 -0.3125 1.875 -1 4 C-1.99 4.66 -2.98 5.32 -4 6 C-4.99 5.34 -5.98 4.68 -7 4 C-2.25 0 -2.25 0 0 0 Z " fill="#D02A2F" transform="translate(254,771)"/>
<path d="M0 0 C2.31 0.33 4.62 0.66 7 1 C6.67 2.32 6.34 3.64 6 5 C4.02 4.34 2.04 3.68 0 3 C0 2.01 0 1.02 0 0 Z " fill="#E6181E" transform="translate(269,772)"/>
<path d="M0 0 C0.99 0.33 1.98 0.66 3 1 C1.68 2.65 0.36 4.3 -1 6 C-1.99 5.67 -2.98 5.34 -4 5 C-2.68 3.35 -1.36 1.7 0 0 Z " fill="#179345" transform="translate(541,381)"/>
<path d="M0 0 C0.66 0.33 1.32 0.66 2 1 C2 1.99 2 2.98 2 4 C0.02 4.99 0.02 4.99 -2 6 C-2.66 5.01 -3.32 4.02 -4 3 C-2.68 2.01 -1.36 1.02 0 0 Z " fill="#DE1F23" transform="translate(723,786)"/>
<path d="M0 0 C0 3 0 3 -2.5 5.6875 C-3.325 6.450625 -4.15 7.21375 -5 8 C-4.45773019 4.20411134 -2.79872437 2.52788007 0 0 Z " fill="#0C8539" transform="translate(243,682)"/>
<path d="M0 0 C0.99 0 1.98 0 3 0 C1.92598892 2.91517292 1.22189824 4.77810176 -1 7 C-2 4 -2 4 -1.0625 1.8125 C-0.5365625 0.9153125 -0.5365625 0.9153125 0 0 Z " fill="#DB1418" transform="translate(296,790)"/>
<path d="M0 0 C1.32 0 2.64 0 4 0 C3.67 1.32 3.34 2.64 3 4 C1 4 1 4 -2 3 C-1.34 2.01 -0.68 1.02 0 0 Z " fill="#E2222B" transform="translate(557,771)"/>
<path d="M0 0 C0.66 0.33 1.32 0.66 2 1 C0.02 2.98 -1.96 4.96 -4 7 C-4.99 6.67 -5.98 6.34 -7 6 C-4.69 4.02 -2.38 2.04 0 0 Z " fill="#F2C32F" transform="translate(604,525)"/>
<path d="M0 0 C0.33 0.66 0.66 1.32 1 2 C-0.61594832 4.04119788 -2.2856382 6.04072937 -4 8 C-4.66 8 -5.32 8 -6 8 C-4.55746343 4.63408134 -2.66735273 2.48952921 0 0 Z " fill="#377C2F" transform="translate(546,156)"/>
<path d="M0 0 C0.598125 0.20625 1.19625 0.4125 1.8125 0.625 C-0.4975 1.945 -2.8075 3.265 -5.1875 4.625 C-5.1875 3.635 -5.1875 2.645 -5.1875 1.625 C-2.1875 -0.375 -2.1875 -0.375 0 0 Z " fill="#E51F21" transform="translate(514.1875,113.375)"/>
</svg>
