<?xml version="1.0" encoding="UTF-8"?>
<svg version="1.1" xmlns="http://www.w3.org/2000/svg" width="500" height="500">
<path d="M0 0 C9.34503179 -0.84954834 18.23764627 3.06032036 26 8 C26 8.66 26 9.32 26 10 C27.98 10.99 27.98 10.99 30 12 C30 12.66 30 13.32 30 14 C30.66 14 31.32 14 32 14 C34.11047705 18.31381508 34.38343832 22.34073502 34.375 27.0625 C34.37628906 27.80894775 34.37757813 28.55539551 34.37890625 29.32446289 C34.2673632 35.2356106 33.06062935 40.26014743 30.875 45.77734375 C29.87789666 47.91204978 29.87789666 47.91204978 30 50 C33.67488776 51.59879006 37.16726244 52.53163492 41.10546875 53.25390625 C42.25337891 53.46853516 43.40128906 53.68316406 44.58398438 53.90429688 C45.77314453 54.12150391 46.96230469 54.33871094 48.1875 54.5625 C50.5564782 54.99865648 52.92499496 55.43732917 55.29296875 55.87890625 C56.86340942 56.16616577 56.86340942 56.16616577 58.46557617 56.45922852 C61 57 61 57 63 58 C63 58.66 63 59.32 63 60 C62.29915283 60.3623877 61.59830566 60.72477539 60.8762207 61.09814453 C57.6810081 62.760131 54.49684448 64.44229068 51.3125 66.125 C50.20970703 66.69476563 49.10691406 67.26453125 47.97070312 67.8515625 C42.19947668 70.92025088 37.53885384 73.40607184 34 79 C33.74012599 83.07135954 35.06189966 85.39261721 37.5 88.5 C40.54764117 91.82536387 43.98302231 94.13270805 47.765625 96.55078125 C55.1879586 101.36491721 61.38432627 107.68418451 63.64453125 116.51953125 C65.13358252 126.91016372 63.16978334 135.81460078 57.125 144.5 C54.52099831 147.74171639 51.93108234 149.50244482 48 151 C48.9156026 152.22995949 49.83254203 153.45892386 50.75 154.6875 C51.30171875 155.42742187 51.8534375 156.16734375 52.421875 156.9296875 C53.56519675 158.4295898 54.76628757 159.88602 56 161.3125 C67.4911627 176.75374988 71.40154106 194.01930501 71.375 212.875 C71.37412384 213.55808228 71.37324768 214.24116455 71.37234497 214.94494629 C71.22491941 249.90061882 57.40543976 282.07211963 33 307 C32.28070313 307.75796875 31.56140625 308.5159375 30.8203125 309.296875 C27.41958714 312.82459841 27.41958714 312.82459841 26 314 C25.34 314 24.68 314 24 314 C24 314.66 24 315.32 24 316 C22.61401367 317.30932617 22.61401367 317.30932617 20.66796875 318.79296875 C19.95737305 319.33735596 19.24677734 319.88174316 18.51464844 320.44262695 C17.74668945 321.01843506 16.97873047 321.59424316 16.1875 322.1875 C15.01815918 323.07151489 15.01815918 323.07151489 13.82519531 323.97338867 C8.05912681 328.2943616 2.17486394 332.28423268 -4 336 C-5.55267578 336.96486328 -5.55267578 336.96486328 -7.13671875 337.94921875 C-10.41332544 339.9849803 -13.70384825 341.99606697 -17 344 C-17.95519531 344.5878125 -18.91039062 345.175625 -19.89453125 345.78125 C-26.92838253 350.01503189 -34.1823604 353.52234917 -41.625 356.95703125 C-45.87856883 358.92610119 -50.06752498 361.00995237 -54.25 363.125 C-59.22896946 365.62857384 -64.21678399 368.10697542 -69.25 370.5 C-70.26578125 370.9846875 -71.2815625 371.469375 -72.328125 371.96875 C-75 373 -75 373 -79 373 C-79 372.34 -79 371.68 -79 371 C-77.00317383 369.46289062 -77.00317383 369.46289062 -74.20703125 367.65625 C-73.1902832 366.99181885 -72.17353516 366.3273877 -71.12597656 365.64282227 C-70.0325293 364.93569092 -68.93908203 364.22855957 -67.8125 363.5 C-58.89405367 357.64930629 -50.34737782 351.62947824 -42 345 C-39.84394965 343.3606944 -37.6731603 341.74152977 -35.5 340.125 C-32.70786276 338.04623848 -29.95952565 335.96638768 -27.28125 333.7421875 C-25 332 -25 332 -23 332 C-23 331.34 -23 330.68 -23 330 C-21.44759659 328.60674046 -19.82970015 327.28619872 -18.1875 326 C-10.84352365 320.11346226 -3.47118356 314.13885205 2.5625 306.875 C3.366875 305.92625 4.17125 304.9775 5 304 C5.66 304 6.32 304 7 304 C7 303.34 7 302.68 7 302 C7.66 302 8.32 302 9 302 C9.24878906 301.44183594 9.49757813 300.88367188 9.75390625 300.30859375 C11.2122428 297.60678529 12.98077391 295.42733283 14.9375 293.0625 C17.06438545 290.49036002 18.95613775 288.07583856 20.62890625 285.18359375 C21.30759766 284.10271484 21.30759766 284.10271484 22 283 C22.66 283 23.32 283 24 283 C24.23074219 282.35289062 24.46148437 281.70578125 24.69921875 281.0390625 C26.4396464 276.97283813 28.62649277 273.21550996 30.8125 269.375 C45.13309053 243.82884826 53.002116 215.03441553 45 186 C41.38068465 176.35946003 35.60823035 168.37488522 28.1875 161.3125 C11.56775808 145.01360252 0.5007832 122.07377343 -0.109375 98.8125 C0.06504356 92.73276751 1.63024383 89.05463426 5 84 C5.66 84 6.32 84 7 84 C7.28875 83.4225 7.5775 82.845 7.875 82.25 C9 80 9 80 10.1875 78.1875 C11.45327241 74.77965121 10.90183572 72.48709811 10 69 C7.28395571 64.5509573 4.02016636 61.76803466 -1.04296875 60.48046875 C-9.66091974 59.30315304 -16.09756058 61.81200866 -23 67 C-28.82247662 73.95305461 -33.09927861 81.42040153 -36 90 C-36.34675781 90.89460938 -36.69351563 91.78921875 -37.05078125 92.7109375 C-39.03600293 97.86529489 -40.55864617 102.87713417 -41.5078125 108.3203125 C-41.92865275 110.61155386 -42.43008846 112.85390498 -42.9609375 115.12109375 C-49.12156461 142.68805811 -48.97660798 172.31336642 -49.65869141 200.47094727 C-49.8336788 207.35872021 -50.17063382 214.15797791 -51 221 C-47.72520756 217.83084602 -44.65856035 214.52673606 -41.625 211.125 C-31.96116229 200.37677126 -22.72564409 190.84302374 -7.5234375 189.8359375 C1.87075193 189.54484994 8.95163562 190.91313138 16.3125 197 C21.20735615 201.73348727 23.85498925 206.58370147 26 213 C26.24363281 213.72832031 26.48726562 214.45664062 26.73828125 215.20703125 C33.27153204 239.16228415 21.96601687 264.66127347 10.3671875 285.00390625 C8.35889229 288.43168993 6.35662728 291.79883033 4 295 C3.34 295 2.68 295 2 295 C1.34 296.65 0.68 298.3 0 300 C-0.66 300 -1.32 300 -2 300 C-2 300.66 -2 301.32 -2 302 C-2.66 302 -3.32 302 -4 302 C-4.33 303.32 -4.66 304.64 -5 306 C-5.66 306 -6.32 306 -7 306 C-7.25724854 306.58177002 -7.51449707 307.16354004 -7.77954102 307.76293945 C-9.1084773 310.19883526 -10.57114431 311.82978378 -12.52734375 313.79296875 C-13.58344849 314.85523682 -13.58344849 314.85523682 -14.66088867 315.93896484 C-15.41217041 316.68098145 -16.16345215 317.42299805 -16.9375 318.1875 C-17.70876221 318.95271973 -18.48002441 319.71793945 -19.2746582 320.50634766 C-24.9306468 326.06474782 -30.71739242 331.15697153 -37 336 C-38.20361676 336.96782543 -39.40531743 337.93803682 -40.60546875 338.91015625 C-41.86164032 339.91969261 -43.11814743 340.9288116 -44.375 341.9375 C-44.95854248 342.41106934 -45.54208496 342.88463867 -46.14331055 343.37255859 C-49.29304065 345.87035408 -52.1696445 347.74473368 -56 349 C-56 349.66 -56 350.32 -56 351 C-57.65 351.66 -59.3 352.32 -61 353 C-60.50431964 348.39843402 -58.80083912 346.22255082 -55.75 342.8125 C-51.28632454 337.68158259 -47.21694902 332.33544071 -43.25 326.8125 C-42.45480957 325.70902222 -42.45480957 325.70902222 -41.64355469 324.58325195 C-38.38373016 320.02549667 -35.28030295 315.39728596 -32.28808594 310.65893555 C-31.86301758 310.11148682 -31.43794922 309.56403809 -31 309 C-30.34 309 -29.68 309 -29 309 C-28.34 307.02 -27.68 305.04 -27 303 C-26.34 303 -25.68 303 -25 303 C-24.34 301.02 -23.68 299.04 -23 297 C-22.34 297 -21.68 297 -21 297 C-20.87778076 296.41766602 -20.75556152 295.83533203 -20.62963867 295.23535156 C-19.98646656 292.95195339 -19.13536984 291.26791635 -17.92578125 289.234375 C-5.5014142 268.025229 -5.5014142 268.025229 -4 244 C-5.45173984 241.25606224 -5.45173984 241.25606224 -7 239 C-7 238.34 -7 237.68 -7 237 C-14.3557079 233.99220596 -14.3557079 233.99220596 -22 235 C-33.04434343 241.67122967 -38.72804025 252.14802918 -45 263 C-45.72437256 264.25151855 -45.72437256 264.25151855 -46.46337891 265.52832031 C-49.46717063 270.71885235 -49.46717063 270.71885235 -52.45776367 275.91699219 C-52.90482666 276.69461914 -53.35188965 277.47224609 -53.8125 278.2734375 C-54.21082031 278.96872559 -54.60914063 279.66401367 -55.01953125 280.38037109 C-56 282 -56 282 -57 283 C-58.66617115 283.04063832 -60.33388095 283.042721 -62 283 C-62.48283996 280.04222565 -62.96133765 277.08385071 -63.4375 274.125 C-63.57220703 273.30257813 -63.70691406 272.48015625 -63.84570312 271.6328125 C-64.65248941 266.59531762 -65.27212156 261.57466167 -65.75170898 256.49609375 C-66.98467702 244.10094603 -68.97849388 231.85281241 -72.046875 219.78125 C-72.62682129 217.48047945 -73.16865356 215.16907272 -73.640625 212.84375 C-76.61586107 198.6541626 -84.14308911 183.82225261 -95.9375 175.125 C-104.74140926 169.38851614 -113.67218687 166.90037546 -124.1875 168.6875 C-128.70988178 169.72016986 -132.08544208 171.5534013 -136 174 C-136.66 174 -137.32 174 -138 174 C-138 174.66 -138 175.32 -138 176 C-138.680625 176.61875 -139.36125 177.2375 -140.0625 177.875 C-148.32450766 185.92636157 -151.8312065 197.2355966 -155 208 C-155.52980469 209.74796875 -155.52980469 209.74796875 -156.0703125 211.53125 C-160.37744945 227.60157611 -160.1467279 244.50126304 -160 261 C-160.99 261 -161.98 261 -163 261 C-163.31710938 260.41476562 -163.63421875 259.82953125 -163.9609375 259.2265625 C-166.42980299 254.6843956 -168.9093675 250.1513024 -171.44921875 245.6484375 C-175.99407024 237.57916453 -180.48494376 229.58354055 -184 221 C-184.2690918 220.34563965 -184.53818359 219.6912793 -184.81542969 219.01708984 C-197.5808696 187.75777105 -203.73122145 154.78316083 -190.5703125 122.4921875 C-183.30760367 106.68102713 -170.6928495 94.3445097 -154.3125 88.03125 C-145.28725348 85.22150344 -135.47074624 83.10713503 -126 84 C-124.94554687 84.0928125 -123.89109375 84.185625 -122.8046875 84.28125 C-110.03906325 85.74017849 -98.15244175 89.92280686 -88 98 C-88 98.66 -88 99.32 -88 100 C-87.34 100 -86.68 100 -86 100 C-86 100.66 -86 101.32 -86 102 C-85.40832031 102.24363281 -84.81664062 102.48726563 -84.20703125 102.73828125 C-73.98018248 108.58478064 -68.8717427 126.4343407 -65 137 C-64.96559814 136.35788574 -64.93119629 135.71577148 -64.89575195 135.05419922 C-64.21331428 123.13852002 -63.23703159 111.4656026 -60.5625 99.8125 C-60.25469604 98.46164307 -60.25469604 98.46164307 -59.94067383 97.08349609 C-59.0185934 93.29636718 -58.04963102 90.09869548 -56.2890625 86.59765625 C-54.62969258 83.95162786 -54.62969258 83.95162786 -55.8125 80.625 C-56.204375 79.75875 -56.59625 78.8925 -57 78 C-64.96124416 78.5686603 -70.45783681 81.07330964 -76.875 85.75 C-80 88 -80 88 -82 88 C-82 88.66 -82 89.32 -82 90 C-83.32 90 -84.64 90 -86 90 C-87.45432638 85.99275537 -86.81050925 82.06898115 -86.3125 77.9375 C-86.22145996 77.18106201 -86.13041992 76.42462402 -86.03662109 75.64526367 C-84.88633237 67.02727117 -82.55109315 58.84634822 -77 52 C-76.34 52 -75.68 52 -75 52 C-75 51.34 -75 50.68 -75 50 C-73.390625 48.74609375 -73.390625 48.74609375 -71.25 47.4375 C-70.55390625 47.00308594 -69.8578125 46.56867188 -69.140625 46.12109375 C-61.23470515 41.98058463 -52.67599667 44.08938023 -44.50390625 46.34375 C-42.10897002 47.08450917 -42.10897002 47.08450917 -40 47 C-40.83065858 41.26574096 -40.83065858 41.26574096 -44.375 37.0625 C-48.20396548 35.51268064 -51.41613415 34.87443334 -55.546875 34.90234375 C-56.39121094 34.90556641 -57.23554688 34.90878906 -58.10546875 34.91210938 C-58.97816406 34.92048828 -59.85085937 34.92886719 -60.75 34.9375 C-61.63816406 34.94201172 -62.52632812 34.94652344 -63.44140625 34.95117188 C-65.62767329 34.962926 -67.81380179 34.97935751 -70 35 C-70.33 34.34 -70.66 33.68 -71 33 C-64.03941394 25.1113358 -54.35278639 19.96732636 -43.875 18.75390625 C-35.11426435 18.46302245 -27.04019648 21.95536678 -19 25 C-20.90528194 19.73654988 -23.30716941 17.3828049 -28.3125 14.8125 C-31.87021134 13.73691285 -35.30224262 13.37604312 -39 13 C-39 12.01 -39 11.02 -39 10 C-32.0774251 6.08420006 -25.90630917 4.9513088 -18 6 C-13.05658277 7.45115403 -8.5846444 9.68683851 -4 12 C-4 12.66 -4 13.32 -4 14 C-3.46375 14.20625 -2.9275 14.4125 -2.375 14.625 C0.91978009 16.53250426 3.59363628 19.04819384 6 22 C6 22.66 6 23.32 6 24 C6.66 24 7.32 24 8 24 C9.625 25.5 9.625 25.5 11 27 C9.99826554 20.44918386 8.51091901 15.61747041 5 10 C5 9.34 5 8.68 5 8 C4.34 8 3.68 8 3 8 C0.8125 5.6875 0.8125 5.6875 -1 3 C-0.67 2.01 -0.34 1.02 0 0 Z " fill="#0A9336" transform="translate(310,45)"/>
<path d="M0 0 C2.79447927 1.28231516 4.88410616 2.65549621 7.125 4.75 C11.36198728 8.48367346 16.07743817 11.26249493 21 14 C21.63679688 14.37382812 22.27359375 14.74765625 22.9296875 15.1328125 C25.62016656 16.25976788 28.03216252 16.42715861 30.9375 16.625 C31.95714844 16.69976562 32.97679687 16.77453125 34.02734375 16.8515625 C36.69194408 16.98461744 39.33281009 17.02947171 42 17 C41.01 17.99 40.02 18.98 39 20 C39.58007812 20.60585937 40.16015625 21.21171875 40.7578125 21.8359375 C48.26819222 29.89162532 53.32160942 37.7585958 57.25 48 C57.61967896 48.960271 57.61967896 48.960271 57.99682617 49.93994141 C61.72780496 60.16176576 62.39025407 70.03797847 62.375 80.875 C62.37412384 81.55808228 62.37324768 82.24116455 62.37234497 82.94494629 C62.22491941 117.90061882 48.40543976 150.07211963 24 175 C23.28070313 175.75796875 22.56140625 176.5159375 21.8203125 177.296875 C18.41958714 180.82459841 18.41958714 180.82459841 17 182 C16.34 182 15.68 182 15 182 C15 182.66 15 183.32 15 184 C13.61401367 185.30932617 13.61401367 185.30932617 11.66796875 186.79296875 C10.95737305 187.33735596 10.24677734 187.88174316 9.51464844 188.44262695 C8.74668945 189.01843506 7.97873047 189.59424316 7.1875 190.1875 C6.40793945 190.77684326 5.62837891 191.36618652 4.82519531 191.97338867 C-0.94087319 196.2943616 -6.82513606 200.28423268 -13 204 C-14.03511719 204.64324219 -15.07023437 205.28648437 -16.13671875 205.94921875 C-19.41332544 207.9849803 -22.70384825 209.99606697 -26 212 C-26.95519531 212.5878125 -27.91039062 213.175625 -28.89453125 213.78125 C-35.92838253 218.01503189 -43.1823604 221.52234917 -50.625 224.95703125 C-54.87856883 226.92610119 -59.06752498 229.00995237 -63.25 231.125 C-68.22896946 233.62857384 -73.21678399 236.10697542 -78.25 238.5 C-79.26578125 238.9846875 -80.2815625 239.469375 -81.328125 239.96875 C-84 241 -84 241 -88 241 C-88 240.34 -88 239.68 -88 239 C-86.00317383 237.46289062 -86.00317383 237.46289062 -83.20703125 235.65625 C-82.1902832 234.99181885 -81.17353516 234.3273877 -80.12597656 233.64282227 C-79.0325293 232.93569092 -77.93908203 232.22855957 -76.8125 231.5 C-67.89405367 225.64930629 -59.34737782 219.62947824 -51 213 C-48.84394965 211.3606944 -46.6731603 209.74152977 -44.5 208.125 C-41.70786276 206.04623848 -38.95952565 203.96638768 -36.28125 201.7421875 C-34 200 -34 200 -32 200 C-32 199.34 -32 198.68 -32 198 C-30.44759659 196.60674046 -28.82970015 195.28619872 -27.1875 194 C-19.84352365 188.11346226 -12.47118356 182.13885205 -6.4375 174.875 C-5.633125 173.92625 -4.82875 172.9775 -4 172 C-3.34 172 -2.68 172 -2 172 C-2 171.34 -2 170.68 -2 170 C-1.34 170 -0.68 170 0 170 C0.24878906 169.44183594 0.49757813 168.88367188 0.75390625 168.30859375 C2.2122428 165.60678529 3.98077391 163.42733283 5.9375 161.0625 C8.06438545 158.49036002 9.95613775 156.07583856 11.62890625 153.18359375 C12.08136719 152.46300781 12.53382813 151.74242187 13 151 C13.66 151 14.32 151 15 151 C15.23074219 150.35289062 15.46148437 149.70578125 15.69921875 149.0390625 C17.4396464 144.97283813 19.62649277 141.21550996 21.8125 137.375 C36.13309053 111.82884826 44.002116 83.03441553 36 54 C32.38068465 44.35946003 26.60823035 36.37488522 19.1875 29.3125 C11.49763551 21.83208708 4.35802831 11.81703218 0 2 C0 1.34 0 0.68 0 0 Z " fill="#FBC308" transform="translate(319,177)"/>
<path d="M0 0 C9.34503179 -0.84954834 18.23764627 3.06032036 26 8 C26 8.66 26 9.32 26 10 C27.32 10.66 28.64 11.32 30 12 C30 12.66 30 13.32 30 14 C30.66 14 31.32 14 32 14 C34.06134826 18.25515262 34.42057864 22.21792437 34.4375 26.875 C34.44136719 27.61226318 34.44523437 28.34952637 34.44921875 29.10913086 C34.28808197 36.96538807 31.9397782 43.78704419 29 51 C22.87585302 51.22496866 17.0607086 50.94991239 11 50 C4.92052284 49.06316254 -0.85973833 48.70488665 -7 49 C-7.77988281 49.02964844 -8.55976563 49.05929688 -9.36328125 49.08984375 C-18.52556538 49.73864107 -26.22416753 53.90662548 -33 60 C-33.66 60.99 -34.32 61.98 -35 63 C-35.66 63 -36.32 63 -37 63 C-37.66 64.32 -38.32 65.64 -39 67 C-39.66 67 -40.32 67 -41 67 C-41.66 68.32 -42.32 69.64 -43 71 C-43.66 71 -44.32 71 -45 71 C-45 72.32 -45 73.64 -45 75 C-47.375 77.0625 -47.375 77.0625 -50 79 C-50.66 79.99 -51.32 80.98 -52 82 C-52.99 82 -53.98 82 -55 82 C-55.66 80.68 -56.32 79.36 -57 78 C-64.96124416 78.5686603 -70.45783681 81.07330964 -76.875 85.75 C-80 88 -80 88 -82 88 C-82 88.66 -82 89.32 -82 90 C-83.32 90 -84.64 90 -86 90 C-87.45432638 85.99275537 -86.81050925 82.06898115 -86.3125 77.9375 C-86.17593994 76.80284302 -86.17593994 76.80284302 -86.03662109 75.64526367 C-84.88633237 67.02727117 -82.55109315 58.84634822 -77 52 C-76.34 52 -75.68 52 -75 52 C-75 51.34 -75 50.68 -75 50 C-73.390625 48.74609375 -73.390625 48.74609375 -71.25 47.4375 C-70.55390625 47.00308594 -69.8578125 46.56867188 -69.140625 46.12109375 C-61.23470515 41.98058463 -52.67599667 44.08938023 -44.50390625 46.34375 C-42.10897002 47.08450917 -42.10897002 47.08450917 -40 47 C-40.83065858 41.26574096 -40.83065858 41.26574096 -44.375 37.0625 C-48.20396548 35.51268064 -51.41613415 34.87443334 -55.546875 34.90234375 C-56.39121094 34.90556641 -57.23554688 34.90878906 -58.10546875 34.91210938 C-58.97816406 34.92048828 -59.85085937 34.92886719 -60.75 34.9375 C-61.63816406 34.94201172 -62.52632812 34.94652344 -63.44140625 34.95117188 C-65.62767329 34.962926 -67.81380179 34.97935751 -70 35 C-70.33 34.34 -70.66 33.68 -71 33 C-64.03941394 25.1113358 -54.35278639 19.96732636 -43.875 18.75390625 C-35.11426435 18.46302245 -27.04019648 21.95536678 -19 25 C-20.90528194 19.73654988 -23.30716941 17.3828049 -28.3125 14.8125 C-31.87021134 13.73691285 -35.30224262 13.37604312 -39 13 C-39 12.01 -39 11.02 -39 10 C-32.0774251 6.08420006 -25.90630917 4.9513088 -18 6 C-13.05658277 7.45115403 -8.5846444 9.68683851 -4 12 C-4 12.66 -4 13.32 -4 14 C-3.46375 14.20625 -2.9275 14.4125 -2.375 14.625 C0.91978009 16.53250426 3.59363628 19.04819384 6 22 C6 22.66 6 23.32 6 24 C6.66 24 7.32 24 8 24 C9.625 25.5 9.625 25.5 11 27 C9.99826554 20.44918386 8.51091901 15.61747041 5 10 C5 9.34 5 8.68 5 8 C4.34 8 3.68 8 3 8 C0.8125 5.6875 0.8125 5.6875 -1 3 C-0.67 2.01 -0.34 1.02 0 0 Z " fill="#F61503" transform="translate(310,45)"/>
<path d="M0 0 C0.94875 0.04125 1.8975 0.0825 2.875 0.125 C0.21424698 2.97364219 -2.2389753 4.94547504 -5.6875 6.75 C-6.66976562 7.26691406 -7.65203125 7.78382813 -8.6640625 8.31640625 C-9.80617188 8.91324219 -10.94828125 9.51007813 -12.125 10.125 C-13.44620923 10.84079522 -14.7664668 11.55834884 -16.0859375 12.27734375 C-29.25210861 19.3953879 -42.79206262 25.65321671 -56.40209961 31.86328125 C-58.03957172 32.62204175 -59.66055692 33.42068428 -61.24047852 34.29296875 C-63.125 35.125 -63.125 35.125 -67.125 35.125 C-67.125 34.465 -67.125 33.805 -67.125 33.125 C-65.12817383 31.58789062 -65.12817383 31.58789062 -62.33203125 29.78125 C-61.31463867 29.11633545 -60.29724609 28.4514209 -59.24902344 27.76635742 C-58.1562207 27.05970947 -57.06341797 26.35306152 -55.9375 25.625 C-47.02507864 19.78268911 -38.4349457 13.79196624 -30.125 7.125 C-28.79596036 6.11930054 -27.46431742 5.11697108 -26.125 4.125 C-25.465 4.455 -24.805 4.785 -24.125 5.125 C-25.115 7.435 -26.105 9.745 -27.125 12.125 C-24.155 12.125 -21.185 12.125 -18.125 12.125 C-18.125 11.465 -18.125 10.805 -18.125 10.125 C-16.805 10.125 -15.485 10.125 -14.125 10.125 C-13.795 9.135 -13.465 8.145 -13.125 7.125 C-12.135 7.125 -11.145 7.125 -10.125 7.125 C-10.125 6.135 -10.125 5.145 -10.125 4.125 C-8.475 4.125 -6.825 4.125 -5.125 4.125 C-5.125 3.465 -5.125 2.805 -5.125 2.125 C-3.125 0.125 -3.125 0.125 0 0 Z " fill="#F5C831" transform="translate(298.125,382.875)"/>
<path d="M0 0 C1.98 0.33 3.96 0.66 6 1 C6 2.32 6 3.64 6 5 C5.34 5 4.68 5 4 5 C3.67 7.64 3.34 10.28 3 13 C2.113125 13.144375 1.22625 13.28875 0.3125 13.4375 C-2.47117646 13.91019978 -5.23483757 14.43070185 -8 15 C-8 15.66 -8 16.32 -8 17 C-7.34 17 -6.68 17 -6 17 C-6.33 18.65 -6.66 20.3 -7 22 C-7.66 22 -8.32 22 -9 22 C-9 23.32 -9 24.64 -9 26 C-10.34521484 27.46386719 -10.34521484 27.46386719 -12.2109375 28.796875 C-12.87867188 29.28027344 -13.54640625 29.76367188 -14.234375 30.26171875 C-14.94078125 30.75285156 -15.6471875 31.24398438 -16.375 31.75 C-17.07367188 32.25660156 -17.77234375 32.76320313 -18.4921875 33.28515625 C-23.69897658 37 -23.69897658 37 -26 37 C-26 37.66 -26 38.32 -26 39 C-27.65 39.66 -29.3 40.32 -31 41 C-30.51145593 36.33356183 -28.70205828 34.09033062 -25.625 30.625 C-20.94940141 25.27521745 -16.76942244 19.67582854 -12.75634766 13.81298828 C-10.32237891 10.36735878 -9.05645814 8.90052758 -5 8 C-3.44532791 6.16386393 -3.44532791 6.16386393 -2.25 3.9375 C-1.82203125 3.20402344 -1.3940625 2.47054688 -0.953125 1.71484375 C-0.63859375 1.14894531 -0.3240625 0.58304687 0 0 Z " fill="#079236" transform="translate(280,357)"/>
<path d="M0 0 C0 0.66 0 1.32 0 2 C0.66 2.33 1.32 2.66 2 3 C-2.85963179 2.39254603 -6.7405518 0.27241033 -11 -2 C-11.66 -0.35 -12.32 1.3 -13 3 C-13.66 3 -14.32 3 -15 3 C-14.67 3.86625 -14.34 4.7325 -14 5.625 C-13.01268659 8.95718275 -12.83579026 11.55159538 -13 15 C-16.47871621 16.15957207 -17.34219645 15.77456651 -20.6875 14.5625 C-21.89986328 14.13130859 -21.89986328 14.13130859 -23.13671875 13.69140625 C-23.75160156 13.46324219 -24.36648438 13.23507813 -25 13 C-25 12.34 -25 11.68 -25 11 C-28.96 10.67 -32.92 10.34 -37 10 C-37.33 9.01 -37.66 8.02 -38 7 C-31.69471972 7.26326849 -26.66812311 8.22190132 -21.0078125 11.0625 C-19.01620037 11.99243562 -17.14369606 12.53857663 -15 13 C-16.35647402 8.56063049 -18.16808939 6.5843118 -22 4 C-26.21580097 1.83512923 -30.34031621 1.47386615 -35 1 C-35 0.01 -35 -0.98 -35 -2 C-22.50713172 -9.06667297 -12.09774785 -6.10386369 0 0 Z " fill="#EC1608" transform="translate(306,57)"/>
<path d="M0 0 C0 0.33 0 0.66 0 1 C-0.86689453 0.98428955 -1.73378906 0.9685791 -2.62695312 0.95239258 C-5.87725574 0.90092801 -9.12734898 0.86348739 -12.37792969 0.83520508 C-13.77839031 0.82022086 -15.17880483 0.79982621 -16.57910156 0.77368164 C-24.30985251 0.6330724 -30.909515 0.62630149 -38 4 C-40.8260317 4.98548798 -43.65322377 5.96681958 -46.484375 6.9375 C-49.01447303 8.00611283 -50.84299472 9.32388551 -53 11 C-53.70125 11.144375 -54.4025 11.28875 -55.125 11.4375 C-55.74375 11.623125 -56.3625 11.80875 -57 12 C-57.433125 12.8971875 -57.433125 12.8971875 -57.875 13.8125 C-59 16 -59 16 -62.0625 18 C-65.35349678 20.24067866 -65.24300255 20.43129773 -66 24 C-66.804375 24.763125 -67.60875 25.52625 -68.4375 26.3125 C-71.44290191 29.46450688 -71.94002588 31.83581597 -73 36 C-73.95298777 37.36733028 -74.95374591 38.70264493 -76 40 C-77.03041427 41.98450156 -78.03685937 43.98199105 -79 46 C-79.66 46 -80.32 46 -81 46 C-79.22781435 31.69284267 -69.80884489 20.7140426 -59.26953125 11.65234375 C-41.47465623 -2.08540248 -21.39043695 -3.40786478 0 0 Z " fill="#42A163" transform="translate(198,131)"/>
<path d="M0 0 C0.66 0 1.32 0 2 0 C0.125 4.75 0.125 4.75 -1 7 C-1.66 7 -2.32 7 -3 7 C-3.2165625 8.7634375 -3.2165625 8.7634375 -3.4375 10.5625 C-3.62437973 12.04174516 -3.81189279 13.52091043 -4 15 C-4.165 16.299375 -4.33 17.59875 -4.5 18.9375 C-5 22 -5 22 -6 23 C-5.96232046 24.66949355 -5.84571204 26.33759288 -5.6875 28 C-5.60886719 28.9075 -5.53023437 29.815 -5.44921875 30.75 C-5.30097656 31.4925 -5.15273437 32.235 -5 33 C-4.34 33.33 -3.68 33.66 -3 34 C-2.87625 33.21625 -2.7525 32.4325 -2.625 31.625 C-2 29 -2 29 0 27 C0.33 27.99 0.66 28.98 1 30 C1.66 30 2.32 30 3 30 C3.33 29.01 3.66 28.02 4 27 C5.65 26.67 7.3 26.34 9 26 C9 25.34 9 24.68 9 24 C12.63 24 16.26 24 20 24 C20 24.33 20 24.66 20 25 C19.17757812 25.20753906 18.35515625 25.41507813 17.5078125 25.62890625 C10.31043972 27.61524816 4.82596515 30.01283239 -1.07421875 34.609375 C-3 36 -3 36 -5 36 C-5 36.66 -5 37.32 -5 38 C-6.32 38 -7.64 38 -9 38 C-10.45432638 33.99275537 -9.81050925 30.06898115 -9.3125 25.9375 C-9.17593994 24.80284302 -9.17593994 24.80284302 -9.03662109 23.64526367 C-7.88633237 15.02727117 -5.55109315 6.84634822 0 0 Z " fill="#DB3C2C" transform="translate(233,97)"/>
<path d="M0 0 C0 0.33 0 0.66 0 1 C-6.12414698 1.22496866 -11.9392914 0.94991239 -18 0 C-24.07947716 -0.93683746 -29.85973833 -1.29511335 -36 -1 C-37.16982422 -0.95552734 -37.16982422 -0.95552734 -38.36328125 -0.91015625 C-47.52556538 -0.26135893 -55.22416753 3.90662548 -62 10 C-62.99 11.485 -62.99 11.485 -64 13 C-64.66 13 -65.32 13 -66 13 C-66.66 14.32 -67.32 15.64 -68 17 C-68.66 17 -69.32 17 -70 17 C-70.66 18.32 -71.32 19.64 -72 21 C-72.66 21 -73.32 21 -74 21 C-74 22.32 -74 23.64 -74 25 C-77 27.25 -77 27.25 -80 29 C-79 27 -79 27 -78 25 C-77.54625 23.96875 -77.0925 22.9375 -76.625 21.875 C-74.86788094 18.76625089 -74.10046801 18.40021136 -71 17 C-69.73195434 14.9664052 -69.73195434 14.9664052 -69 13 C-68.34 13 -67.68 13 -67 13 C-67 12.34 -67 11.68 -67 11 C-65.05012435 9.42362994 -63.10291234 7.94982761 -61.0625 6.5 C-56.93646397 3.80306619 -56.93646397 3.80306619 -54 0 C-52.02 0 -50.04 0 -48 0 C-48 -0.66 -48 -1.32 -48 -2 C-31.91791287 -4.65890507 -15.94076792 -2.68880423 0 0 Z " fill="#A83912" transform="translate(339,95)"/>
<path d="M0 0 C0.33 0.66 0.66 1.32 1 2 C0.02616054 3.68208635 -0.97695052 5.34738161 -2 7 C-2.165 7.70125 -2.33 8.4025 -2.5 9.125 C-3.13091098 11.49091616 -4.10592821 12.48474257 -6 14 C-6.66 14 -7.32 14 -8 14 C-8.66 15.65 -9.32 17.3 -10 19 C-8.68 19 -7.36 19 -6 19 C-6 18.34 -6 17.68 -6 17 C-5.01 17 -4.02 17 -3 17 C-2.67 16.34 -2.34 15.68 -2 15 C-1.34 15.66 -0.68 16.32 0 17 C-2.45264589 18.84104236 -4.91300959 20.67147793 -7.375 22.5 C-8.07367188 23.02464844 -8.77234375 23.54929687 -9.4921875 24.08984375 C-10.1625 24.58613281 -10.8328125 25.08242188 -11.5234375 25.59375 C-12.14138184 26.05458984 -12.75932617 26.51542969 -13.39599609 26.99023438 C-15 28 -15 28 -17 28 C-17 28.66 -17 29.32 -17 30 C-18.65 30.66 -20.3 31.32 -22 32 C-21.51145593 27.33356183 -19.70205828 25.09033062 -16.625 21.625 C-12.45954886 16.83419342 -8.60442975 11.88759201 -4.875 6.75 C-4.3898291 6.08178223 -3.9046582 5.41356445 -3.40478516 4.72509766 C-2.26669334 3.15234943 -1.13285683 1.57652319 0 0 Z " fill="#4BA76D" transform="translate(271,366)"/>
<path d="M0 0 C9.34503179 -0.84954834 18.23764627 3.06032036 26 8 C26 8.33 26 8.66 26 9 C24.54052295 8.93993922 23.08220728 8.8511311 21.625 8.75 C20.40683594 8.68039063 20.40683594 8.68039063 19.1640625 8.609375 C18.44992187 8.40828125 17.73578125 8.2071875 17 8 C16.33333333 6.66666667 15.66666667 5.33333333 15 4 C12.81458448 3.3006486 12.81458448 3.3006486 10.375 3.25 C9.14910156 3.16492187 9.14910156 3.16492187 7.8984375 3.078125 C7.27195312 3.05234375 6.64546875 3.0265625 6 3 C6.33 5.31 6.66 7.62 7 10 C7.99 10.33 8.98 10.66 10 11 C10.33 12.65 10.66 14.3 11 16 C11.66 16 12.32 16 13 16 C13 19.96 13 23.92 13 28 C11.68 27.67 10.36 27.34 9 27 C9.66 27 10.32 27 11 27 C9.99826554 20.44918386 8.51091901 15.61747041 5 10 C5 9.34 5 8.68 5 8 C4.34 8 3.68 8 3 8 C0.8125 5.6875 0.8125 5.6875 -1 3 C-0.67 2.01 -0.34 1.02 0 0 Z " fill="#E14B45" transform="translate(310,45)"/>
<path d="M0 0 C7.25515853 1.05597342 14.47876437 2.22806473 21.6875 3.5625 C22.38230469 3.68923096 23.07710938 3.81596191 23.79296875 3.9465332 C28.75903699 4.87951849 28.75903699 4.87951849 31 6 C31 6.66 31 7.32 31 8 C25.39 10.97 19.78 13.94 14 17 C13.67 16.01 13.34 15.02 13 14 C15.12780579 11.65941363 17.11562221 10.29299694 20 9 C20 8.01 20 7.02 20 6 C14.06 5.34 8.12 4.68 2 4 C2 3.34 2 2.68 2 2 C1.34 1.34 0.68 0.68 0 0 Z " fill="#2A9852" transform="translate(342,97)"/>
<path d="M0 0 C-4.11195373 1.37065124 -7.88805978 0.92133084 -12.1875 0.7421875 C-15.03251557 0.74162125 -15.03251557 0.74162125 -16.875 2.5078125 C-17.24625 3.00023437 -17.6175 3.49265625 -18 4 C-16.68 4 -15.36 4 -14 4 C-14 4.66 -14 5.32 -14 6 C-12.02 6 -10.04 6 -8 6 C-8.33 7.32 -8.66 8.64 -9 10 C-8.34 10 -7.68 10 -7 10 C-7.33 10.99 -7.66 11.98 -8 13 C-8.886875 12.21625 -9.77375 11.4325 -10.6875 10.625 C-15.80136013 6.40517136 -20.54199405 5.65674637 -27 5 C-27 4.01 -27 3.02 -27 2 C-18.52432128 -2.79432332 -9.12472074 -4.05543144 0 0 Z " fill="#DD3C36" transform="translate(298,53)"/>
<path d="M0 0 C0 0.66 0 1.32 0 2 C4.95 2.99 4.95 2.99 10 4 C10 4.66 10 5.32 10 6 C11.32 6.33 12.64 6.66 14 7 C14 7.99 14 8.98 14 10 C11.70289388 9.1385852 9.47355771 8.27251906 7.34375 7.046875 C-0.93757793 2.34476507 -10.51643441 0.92711406 -19.7734375 3.21875 C-23.15073108 4.40376529 -25.96862545 6.10539091 -29 8 C-29.66 8 -30.32 8 -31 8 C-31 8.66 -31 9.32 -31 10 C-31.99 10.33 -32.98 10.66 -34 11 C-33.75 8.625 -33.75 8.625 -33 6 C-31.25 4.8125 -31.25 4.8125 -29 4 C-27.63875 3.443125 -27.63875 3.443125 -26.25 2.875 C-25.5075 2.58625 -24.765 2.2975 -24 2 C-24 1.34 -24 0.68 -24 0 C-20.3754207 -0.19632025 -16.75032733 -0.38055978 -13.125 -0.5625 C-12.09246094 -0.61857422 -11.05992187 -0.67464844 -9.99609375 -0.73242188 C-9.00996094 -0.78076172 -8.02382812 -0.82910156 -7.0078125 -0.87890625 C-6.09660645 -0.9260376 -5.18540039 -0.97316895 -4.24658203 -1.02172852 C-2 -1 -2 -1 0 0 Z " fill="#49A16C" transform="translate(203,211)"/>
<path d="M0 0 C0 0.66 0 1.32 0 2 C-0.66 2 -1.32 2 -2 2 C-2 2.99 -2 3.98 -2 5 C-1.01 5.33 -0.02 5.66 1 6 C1 6.33 1 6.66 1 7 C5.62 7.99 10.24 8.98 15 10 C10.70256258 12.14871871 10.70256258 12.14871871 7 11 C5.48604304 10.92181364 3.96906493 10.89210091 2.453125 10.90234375 C1.60878906 10.90556641 0.76445312 10.90878906 -0.10546875 10.91210938 C-0.97816406 10.92048828 -1.85085937 10.92886719 -2.75 10.9375 C-3.63816406 10.94201172 -4.52632812 10.94652344 -5.44140625 10.95117188 C-7.62767329 10.962926 -9.81380179 10.97935751 -12 11 C-12.33 10.34 -12.66 9.68 -13 9 C-4.5 0 -4.5 0 0 0 Z " fill="#E3352A" transform="translate(252,69)"/>
<path d="M0 0 C0.33 0 0.66 0 1 0 C1.33956438 5.99897071 0.15329437 10.91450537 -1.625 16.625 C-2.02887939 17.94407349 -2.02887939 17.94407349 -2.44091797 19.28979492 C-5.52762024 29.08707043 -9.68065534 38.20262229 -15 47 C-15.33 47 -15.66 47 -16 47 C-15.47160965 40.52721816 -13.72090235 35.72090235 -9 31 C-8.3162387 28.11282395 -8.3162387 28.11282395 -7.875 24.875 C-7.62363281 23.23144531 -7.62363281 23.23144531 -7.3671875 21.5546875 C-7.18542969 20.29011719 -7.18542969 20.29011719 -7 19 C-6.34 19 -5.68 19 -5 19 C-4.34 15.7 -3.68 12.4 -3 9 C-2.34 9 -1.68 9 -1 9 C-0.67 6.03 -0.34 3.06 0 0 Z " fill="#F4D764" transform="translate(378,279)"/>
<path d="M0 0 C-5.46030292 7.02038947 -12.15958033 12.3876082 -19 18 C-19.33 17.01 -19.66 16.02 -20 15 C-19.34 15 -18.68 15 -18 15 C-17.67 13.35 -17.34 11.7 -17 10 C-17.66 10 -18.32 10 -19 10 C-19 9.34 -19 8.68 -19 8 C-18.34 8 -17.68 8 -17 8 C-16.67 7.34 -16.34 6.68 -16 6 C-15.071875 6.103125 -14.14375 6.20625 -13.1875 6.3125 C-12.135625 6.209375 -11.08375 6.10625 -10 6 C-8.19212694 3.62597583 -8.19212694 3.62597583 -7 1 C-4.53721199 -0.231394 -2.7204945 -0.07159196 0 0 Z " fill="#2A9B51" transform="translate(291,364)"/>
<path d="M0 0 C2.79447927 1.28231516 4.88410616 2.65549621 7.125 4.75 C11.35529103 8.49182605 16.10343454 11.22166708 21 14 C18 15 18 15 15.51953125 13.78515625 C14.62621094 13.21667969 13.73289062 12.64820313 12.8125 12.0625 C11.91144531 11.49660156 11.01039063 10.93070313 10.08203125 10.34765625 C9.05142578 9.68056641 9.05142578 9.68056641 8 9 C7.67 9.66 7.34 10.32 7 11 C7.66 11 8.32 11 9 11 C9.433125 11.928125 9.86625 12.85625 10.3125 13.8125 C11.7445373 16.51745934 12.85186916 17.9541611 15 20 C15 20.66 15 21.32 15 22 C15.66 22 16.32 22 17 22 C16.67 23.32 16.34 24.64 16 26 C0 5.53741497 0 5.53741497 0 0 Z " fill="#CEC730" transform="translate(319,177)"/>
<path d="M0 0 C1.485 0.99 1.485 0.99 3 2 C3 2.66 3 3.32 3 4 C3.66 4 4.32 4 5 4 C7.11029254 8.31343795 7.3844938 12.3409182 7.375 17.0625 C7.37483887 17.80822266 7.37467773 18.55394531 7.37451172 19.32226562 C7.23972318 25.93399794 5.99936769 32.04505101 3 38 C2.01 38.495 2.01 38.495 1 39 C1.875 31.125 1.875 31.125 3 30 C3.23936193 27.41134505 3.4231931 24.84430563 3.5625 22.25 C3.60568359 21.53328125 3.64886719 20.8165625 3.69335938 20.078125 C3.90742531 16.38124021 4.05102601 12.70303071 4 9 C3.34 9 2.68 9 2 9 C1.34 6.03 0.68 3.06 0 0 Z " fill="#DD4F44" transform="translate(337,55)"/>
<path d="M0 0 C1.0326802 2.78823655 1.04509293 3.8677274 0.0625 6.75 C-0.4634375 7.86375 -0.4634375 7.86375 -1 9 C-1.66 9 -2.32 9 -3 9 C-3.2475 9.969375 -3.495 10.93875 -3.75 11.9375 C-4.1625 12.948125 -4.575 13.95875 -5 15 C-7.125 15.875 -7.125 15.875 -9 16 C-9.3403125 17.5778125 -9.3403125 17.5778125 -9.6875 19.1875 C-10.80130821 23.17461053 -12.92289072 25.23849167 -16 28 C-16.33 28.66 -16.66 29.32 -17 30 C-19.0625 30.625 -19.0625 30.625 -21 31 C-19.474663 27.57787087 -17.44554788 24.9425709 -15.0625 22.0625 C-12.93561455 19.49036002 -11.04386225 17.07583856 -9.37109375 14.18359375 C-8.91863281 13.46300781 -8.46617187 12.74242187 -8 12 C-7.34 12 -6.68 12 -6 12 C-5.7525 11.319375 -5.505 10.63875 -5.25 9.9375 C-3.75802092 6.43134917 -1.93164489 3.28379632 0 0 Z " fill="#F3D658" transform="translate(340,316)"/>
<path d="M0 0 C1.0117378 3.03521339 1.01254956 4.02087433 0.51171875 7.05078125 C0.38321533 7.88077637 0.25471191 8.71077148 0.12231445 9.56591797 C-0.02117432 10.47229004 -0.16466309 11.37866211 -0.3125 12.3125 C-1.75057909 21.97513596 -2.57933594 31.63203459 -3.1875 41.375 C-3.25114243 42.39323349 -3.25114243 42.39323349 -3.31607056 43.43203735 C-3.55454007 47.28744053 -3.78191574 51.14339331 -4 55 C-4.33 55 -4.66 55 -5 55 C-5.22739449 38.85848944 -5.06756282 23.02361183 -3 7 C-2.34 7 -1.68 7 -1 7 C-0.67 4.69 -0.34 2.38 0 0 Z " fill="#469D6A" transform="translate(265,165)"/>
<path d="M0 0 C0 0.33 0 0.66 0 1 C-0.86689453 0.98428955 -1.73378906 0.9685791 -2.62695312 0.95239258 C-5.87725574 0.90092801 -9.12734898 0.86348739 -12.37792969 0.83520508 C-13.77839031 0.82022086 -15.17880483 0.79982621 -16.57910156 0.77368164 C-24.29387524 0.633363 -30.9275664 0.60760063 -38 4 C-44.81818182 6.27272727 -44.81818182 6.27272727 -49 5 C-32.08609043 -2.25277301 -17.89841366 -2.85152536 0 0 Z " fill="#47A668" transform="translate(198,131)"/>
<path d="M0 0 C0.66 0.33 1.32 0.66 2 1 C1.01 3.64 0.02 6.28 -1 9 C-2.65 9 -4.3 9 -6 9 C-6.06574219 9.75925781 -6.13148438 10.51851563 -6.19921875 11.30078125 C-7.25508229 14.85981398 -8.6033964 15.43494415 -11.8125 17.1875 C-12.68519531 17.67605469 -13.55789063 18.16460937 -14.45703125 18.66796875 C-16.6264439 19.80432776 -18.80247297 20.91916503 -21 22 C-17.54537597 17.72284644 -13.98669946 14.04008604 -9.73828125 10.5546875 C-7.29352878 8.36814485 -5.29139017 5.88937605 -3.26171875 3.3203125 C-2.84535156 2.88460938 -2.42898438 2.44890625 -2 2 C-1.34 2 -0.68 2 0 2 C0 1.34 0 0.68 0 0 Z " fill="#F2CF44" transform="translate(317,347)"/>
<path d="M0 0 C0.66 0.33 1.32 0.66 2 1 C2 1.33 2 1.66 2 2 C3.98 2 5.96 2 8 2 C4.73334484 4.66616708 1.31785747 6.41429785 -2.5 8.1875 C-3.6240625 8.71730469 -4.748125 9.24710937 -5.90625 9.79296875 C-9 11 -9 11 -13 11 C-13 10.34 -13 9.68 -13 9 C-10.86229382 7.37322909 -8.7324466 5.86020356 -6.5 4.375 C-5.87996094 3.95476562 -5.25992188 3.53453125 -4.62109375 3.1015625 C-3.08482736 2.06162833 -1.54292476 1.03002944 0 0 Z " fill="#F3D353" transform="translate(244,407)"/>
<path d="M0 0 C0.8971875 0.5259375 0.8971875 0.5259375 1.8125 1.0625 C1.06806641 1.84560547 1.06806641 1.84560547 0.30859375 2.64453125 C-4.97532587 8.36961304 -9.19219075 14.38284234 -13.1875 21.0625 C-13.8475 20.0725 -14.5075 19.0825 -15.1875 18.0625 C-13.8675 15.4225 -12.5475 12.7825 -11.1875 10.0625 C-10.1975 10.0625 -9.2075 10.0625 -8.1875 10.0625 C-7.11462515 6.98520849 -7.11462515 6.98520849 -6.3125 3.4375 C-5.94125 2.32375 -5.57 1.21 -5.1875 0.0625 C-2.1875 -0.9375 -2.1875 -0.9375 0 0 Z " fill="#309B58" transform="translate(280.1875,282.9375)"/>
<path d="M0 0 C0.99 0.33 1.98 0.66 3 1 C3.81432832 23.23568716 3.81432832 23.23568716 -1 29 C-1.99 29.33 -2.98 29.66 -4 30 C-3.52140759 28.39566191 -3.04210442 26.79153584 -2.5625 25.1875 C-2.29566406 24.29417969 -2.02882813 23.40085937 -1.75390625 22.48046875 C-1.19612127 20.64526945 -0.60655425 18.81966274 0 17 C0.07973476 15.66474283 0.10771338 14.32587917 0.09765625 12.98828125 C0.09443359 12.23095703 0.09121094 11.47363281 0.08789062 10.69335938 C0.07532227 9.51483398 0.07532227 9.51483398 0.0625 8.3125 C0.05798828 7.51521484 0.05347656 6.71792969 0.04882812 5.89648438 C0.0370585 3.93095743 0.01912348 1.96546915 0 0 Z " fill="#339959" transform="translate(306,287)"/>
<path d="M0 0 C0.33 0 0.66 0 1 0 C1.0276619 1.49988961 1.0466861 2.99993869 1.0625 4.5 C1.07410156 5.3353125 1.08570313 6.170625 1.09765625 7.03125 C1 10 1 10 0.5 13.6875 C-0.15828403 18.62667456 -0.10950061 23.52516667 -0.0625 28.5 C-0.05798828 29.4178125 -0.05347656 30.335625 -0.04882812 31.28125 C-0.03716326 33.52090391 -0.02079614 35.76041545 0 38 C-0.99 38 -1.98 38 -3 38 C-3.66 36.02 -4.32 34.04 -5 32 C-4.34 32 -3.68 32 -3 32 C-2.94465088 31.10168457 -2.88930176 30.20336914 -2.83227539 29.27783203 C-2.62512171 25.9491461 -2.41410161 22.62075248 -2.20043945 19.29248047 C-2.10871395 17.85117241 -2.01853661 16.40976497 -1.92993164 14.96826172 C-1.80239999 12.89783171 -1.66932845 10.82782145 -1.53515625 8.7578125 C-1.456604 7.5114502 -1.37805176 6.26508789 -1.29711914 4.98095703 C-1 2 -1 2 0 0 Z " fill="#4BA16E" transform="translate(150,268)"/>
<path d="M0 0 C-0.66 0.66 -1.32 1.32 -2 2 C-6.55555556 1.44444444 -6.55555556 1.44444444 -8 0 C-16.52070655 -0.5680471 -24.65675064 0.31631725 -33 2 C-32 0 -32 0 -29.8125 -1.0625 C-19.70795652 -4.43068116 -9.87604926 -3.59908086 0 0 Z " fill="#3D965C" transform="translate(321,238)"/>
<path d="M0 0 C0.33 0 0.66 0 1 0 C1.23104274 11.14139413 0.79876013 22.17812751 -2 33 C-2.33 33 -2.66 33 -3 33 C-3.6097867 7.2195734 -3.6097867 7.2195734 0 0 Z " fill="#3B9F62" transform="translate(249,149)"/>
<path d="M0 0 C0.66 0.33 1.32 0.66 2 1 C1.34 1.66 0.68 2.32 0 3 C-0.309375 4.11375 -0.61875 5.2275 -0.9375 6.375 C-1.94188746 9.80173368 -2.82417011 11.30197093 -5 14 C-6.03041427 15.98450156 -7.03685937 17.98199105 -8 20 C-8.66 20 -9.32 20 -10 20 C-9.43682251 15.41216386 -8.20561419 11.86982312 -6.125 7.75 C-5.61195312 6.71359375 -5.09890625 5.6771875 -4.5703125 4.609375 C-3 2 -3 2 0 0 Z " fill="#2F9955" transform="translate(127,157)"/>
<path d="M0 0 C0.66 0 1.32 0 2 0 C4.15729044 10.72866761 4.2071352 21.10238692 4 32 C1.79004952 28.41218566 1.64620221 25.2232227 1.4375 21.0625 C1.22055426 16.92282106 0.81920161 13.05571942 0 9 C-0.06371368 7.39696373 -0.08644214 5.79162328 -0.0625 4.1875 C-0.05347656 3.39730469 -0.04445312 2.60710937 -0.03515625 1.79296875 C-0.02355469 1.20128906 -0.01195312 0.60960937 0 0 Z " fill="#47A76E" transform="translate(244,290)"/>
<path d="M0 0 C0.33 0 0.66 0 1 0 C1 1.98 1 3.96 1 6 C1.66 6 2.32 6 3 6 C2.67 14.25 2.34 22.5 2 31 C1.34 30.67 0.68 30.34 0 30 C-1.56971722 20.03570808 -0.92112354 9.99064767 0 0 Z " fill="#2F985B" transform="translate(258,218)"/>
<path d="M0 0 C0.93423645 3.01031744 1.04449911 3.86650268 0 7 C-2.5625 8.1875 -2.5625 8.1875 -5 9 C-5 9.66 -5 10.32 -5 11 C-6.65 11.66 -8.3 12.32 -10 13 C-9.68444225 7.79329712 -6.69871603 4.42269244 -3 1 C-2.01 0.67 -1.02 0.34 0 0 Z " fill="#2B9452" transform="translate(259,385)"/>
<path d="M0 0 C0.94875 0.04125 1.8975 0.0825 2.875 0.125 C0.05571207 3.18087153 -2.63181955 5.14514698 -6.3125 7.0625 C-10.70597233 9.36804371 -14.99767277 11.78375734 -19.25 14.33984375 C-21.125 15.125 -21.125 15.125 -24.125 14.125 C-23.465 14.125 -22.805 14.125 -22.125 14.125 C-22.125 13.465 -22.125 12.805 -22.125 12.125 C-20.805 12.125 -19.485 12.125 -18.125 12.125 C-18.125 11.465 -18.125 10.805 -18.125 10.125 C-16.805 10.125 -15.485 10.125 -14.125 10.125 C-13.795 9.135 -13.465 8.145 -13.125 7.125 C-12.135 7.125 -11.145 7.125 -10.125 7.125 C-10.125 6.135 -10.125 5.145 -10.125 4.125 C-8.475 4.125 -6.825 4.125 -5.125 4.125 C-5.125 3.465 -5.125 2.805 -5.125 2.125 C-3.125 0.125 -3.125 0.125 0 0 Z " fill="#F6D562" transform="translate(298.125,382.875)"/>
<path d="M0 0 C0.86625 0.3403125 0.86625 0.3403125 1.75 0.6875 C1.42 1.0175 1.09 1.3475 0.75 1.6875 C3.06 1.6875 5.37 1.6875 7.75 1.6875 C7.75 1.0275 7.75 0.3675 7.75 -0.3125 C9.07 0.0175 10.39 0.3475 11.75 0.6875 C5.50838097 4.26875682 0.99579719 6.35840715 -6.25 5.6875 C-6.58 6.3475 -6.91 7.0075 -7.25 7.6875 C-6.91753345 4.61218444 -6.61895244 3.06917494 -4.4375 0.8125 C-2.25 -0.3125 -2.25 -0.3125 0 0 Z " fill="#F5C931" transform="translate(252.25,403.3125)"/>
<path d="M0 0 C0.33 0.66 0.66 1.32 1 2 C1.66 2 2.32 2 3 2 C3 2.99 3 3.98 3 5 C3.99 5 4.98 5 6 5 C6.33 8.63 6.66 12.26 7 16 C7.66 16 8.32 16 9 16 C9.66 17.98 10.32 19.96 11 22 C10.34 22.33 9.68 22.66 9 23 C7.48729764 19.92274141 5.99211419 16.83728731 4.5 13.75 C4.07074219 12.87730469 3.64148438 12.00460937 3.19921875 11.10546875 C2.79316406 10.26113281 2.38710937 9.41679687 1.96875 8.546875 C1.59169922 7.77182617 1.21464844 6.99677734 0.82617188 6.19824219 C0 4 0 4 0 0 Z " fill="#41A466" transform="translate(126,262)"/>
<path d="M0 0 C1.22589844 0.01353516 1.22589844 0.01353516 2.4765625 0.02734375 C3.41628906 0.04474609 3.41628906 0.04474609 4.375 0.0625 C4.375 3.0625 4.375 3.0625 3.1875 4.75 C0.81758278 6.46614695 -0.76525666 6.29437108 -3.625 6.0625 C-3.625 5.4025 -3.625 4.7425 -3.625 4.0625 C-4.945 4.0625 -6.265 4.0625 -7.625 4.0625 C-7.295 3.0725 -6.965 2.0825 -6.625 1.0625 C-4.21954362 -0.14022819 -2.67503047 -0.03821472 0 0 Z " fill="#F80D01" transform="translate(287.625,52.9375)"/>
<path d="M0 0 C0.66 0.33 1.32 0.66 2 1 C2 4.91912822 0.4275386 6.04143734 -2 9 C-2 9.66 -2 10.32 -2 11 C-2.99 10.67 -3.98 10.34 -5 10 C-7.00875442 10.27571139 -9.01178687 10.60235737 -11 11 C-10.34 10.01 -9.68 9.02 -9 8 C-8.34 8 -7.68 8 -7 8 C-7 7.34 -7 6.68 -7 6 C-5.46875 4.4921875 -5.46875 4.4921875 -3.5 2.875 C-2.8503125 2.33617187 -2.200625 1.79734375 -1.53125 1.2421875 C-0.77328125 0.62730469 -0.77328125 0.62730469 0 0 Z " fill="#F2CF3B" transform="translate(294,369)"/>
<path d="M0 0 C5.44138272 8.16207408 5.93537991 18.46398404 5 28 C4.34 29.32 3.68 30.64 3 32 C2.67 24.08 2.34 16.16 2 8 C1.34 8 0.68 8 0 8 C0 5.36 0 2.72 0 0 Z " fill="#4FA774" transform="translate(333,253)"/>
<path d="M0 0 C0 0.33 0 0.66 0 1 C-2.3260857 1.38063221 -4.66055264 1.71269945 -7 2 C-7.33 1.67 -7.66 1.34 -8 1 C-10.07262076 0.91232888 -12.14820294 0.89304127 -14.22265625 0.90234375 C-16.11274414 0.90717773 -16.11274414 0.90717773 -18.04101562 0.91210938 C-19.38151109 0.92046597 -20.72200588 0.92893093 -22.0625 0.9375 C-23.40689942 0.9425134 -24.7513006 0.94707658 -26.09570312 0.95117188 C-29.39717941 0.96300512 -32.69856803 0.97949029 -36 1 C-28.82291998 -6.17708002 -8.77915822 -1.43542441 0 0 Z " fill="#43762B" transform="translate(328,95)"/>
<path d="M0 0 C0.66 0 1.32 0 2 0 C1.67 5.28 1.34 10.56 1 16 C3.97 13.525 3.97 13.525 7 11 C6.3125 13.875 6.3125 13.875 5 17 C2.375 18.375 2.375 18.375 0 19 C0 18.34 0 17.68 0 17 C-0.66 16.67 -1.32 16.34 -2 16 C-1.85890014 13.89551062 -1.71195825 11.7914123 -1.5625 9.6875 C-1.48128906 8.51574219 -1.40007812 7.34398437 -1.31640625 6.13671875 C-1 3 -1 3 0 0 Z " fill="#3A995D" transform="translate(258,250)"/>
<path d="M0 0 C0.66 0 1.32 0 2 0 C0.125 4.75 0.125 4.75 -1 7 C-1.66 7 -2.32 7 -3 7 C-3.2165625 8.7634375 -3.2165625 8.7634375 -3.4375 10.5625 C-3.91410176 14.38212272 -4.44453544 18.19110019 -5 22 C-5.99 22.33 -6.98 22.66 -8 23 C-7.41181588 14.23808489 -5.43119461 7.00799304 0 0 Z " fill="#DD3B33" transform="translate(233,97)"/>
<path d="M0 0 C1.32 0.33 2.64 0.66 4 1 C3.01 1.33 2.02 1.66 1 2 C-0.20882096 4.00016466 -0.20882096 4.00016466 -1 6 C-1.66 6 -2.32 6 -3 6 C-3.66 7.32 -4.32 8.64 -5 10 C-5.66 10 -6.32 10 -7 10 C-7 11.32 -7 12.64 -7 14 C-10 16.25 -10 16.25 -13 18 C-12.33333333 16.66666667 -11.66666667 15.33333333 -11 14 C-10.54625 12.96875 -10.0925 11.9375 -9.625 10.875 C-7.86788094 7.76625089 -7.10046801 7.40021136 -4 6 C-2.73195434 3.9664052 -2.73195434 3.9664052 -2 2 C-1.34 2 -0.68 2 0 2 C0 1.34 0 0.68 0 0 Z " fill="#4E6F24" transform="translate(272,106)"/>
<path d="M0 0 C0 1.98 0 3.96 0 6 C0.61875 6.12375 1.2375 6.2475 1.875 6.375 C4 7 4 7 6 9 C5.01 9.99 4.02 10.98 3 12 C2.773125 11.21625 2.54625 10.4325 2.3125 9.625 C1.2310679 6.81484807 1.2310679 6.81484807 -1.4375 5.75 C-2.283125 5.5025 -3.12875 5.255 -4 5 C-4.99 4.67 -5.98 4.34 -7 4 C-7.33 3.01 -7.66 2.02 -8 1 C-4.93251126 -0.86240388 -3.40254489 -1.2151946 0 0 Z " fill="#10903E" transform="translate(302,275)"/>
<path d="M0 0 C7.71271047 1.13635546 15.37282967 2.38159365 23 4 C18.96190509 6.93087534 14.87674643 5.79254053 10.25 5.125 C9.06083984 4.96837891 9.06083984 4.96837891 7.84765625 4.80859375 C5.89694759 4.5500661 3.94824281 4.27649734 2 4 C2 3.34 2 2.68 2 2 C1.34 1.34 0.68 0.68 0 0 Z " fill="#379A57" transform="translate(342,97)"/>
<path d="M0 0 C6.30528028 0.26326849 11.33187689 1.22190132 16.9921875 4.0625 C18.98379963 4.99243562 20.85630394 5.53857663 23 6 C23.33 5.01 23.66 4.02 24 3 C24 4.32 24 5.64 24 7 C20.7 7 17.4 7 14 7 C13.67 6.01 13.34 5.02 13 4 C9.04 3.67 5.08 3.34 1 3 C0.67 2.01 0.34 1.02 0 0 Z " fill="#DC3C33" transform="translate(268,64)"/>
<path d="M0 0 C0.33 0.66 0.66 1.32 1 2 C2.32 1.67 3.64 1.34 5 1 C5.125 3.375 5.125 3.375 5 6 C2.23776722 8.76223278 -0.20706617 8.57856291 -4 9 C-2.94124926 5.59687262 -1.99097846 2.98646769 0 0 Z " fill="#0D9437" transform="translate(297,326)"/>
<path d="M0 0 C0.33 0 0.66 0 1 0 C1.02712153 1.916588 1.04645097 3.8332873 1.0625 5.75 C1.07410156 6.81734375 1.08570312 7.8846875 1.09765625 8.984375 C1.01328802 11.58966587 0.6506685 13.51214986 0 16 C-0.2198223 18.24707241 -0.40483987 20.49771238 -0.5625 22.75 C-0.64628906 23.92046875 -0.73007813 25.0909375 -0.81640625 26.296875 C-0.87699219 27.18890625 -0.93757813 28.0809375 -1 29 C-1.33 29 -1.66 29 -2 29 C-2.05855176 25.47923768 -2.0937806 21.9586024 -2.125 18.4375 C-2.14175781 17.44685547 -2.15851563 16.45621094 -2.17578125 15.43554688 C-2.21274359 9.87271509 -1.87082551 5.25156925 0 0 Z " fill="#158E43" transform="translate(116,177)"/>
<path d="M0 0 C1.98 0 3.96 0 6 0 C5.278125 0.556875 4.55625 1.11375 3.8125 1.6875 C1.01801728 3.9851858 -1.47475818 6.41162713 -4 9 C-5.66666667 10.66666667 -7.33333333 12.33333333 -9 14 C-8.47731534 11.23723823 -7.89130413 8.6739124 -7 6 C-6.01 6 -5.02 6 -4 6 C-4 4.68 -4 3.36 -4 2 C-2.68 2 -1.36 2 0 2 C0 1.34 0 0.68 0 0 Z " fill="#49AA6D" transform="translate(289,106)"/>
<path d="M0 0 C0 0.66 0 1.32 0 2 C0.66 2.33 1.32 2.66 2 3 C1.01 3.66 0.02 4.32 -1 5 C-1.99 4.67 -2.98 4.34 -4 4 C-4.99 4.495 -4.99 4.495 -6 5 C-8.4750171 3.88568235 -10.67883419 2.41849022 -13 1 C-13 0.67 -13 0.34 -13 0 C-11.39679026 -0.19551338 -9.79237014 -0.38111983 -8.1875 -0.5625 C-7.29417969 -0.66691406 -6.40085937 -0.77132812 -5.48046875 -0.87890625 C-3 -1 -3 -1 0 0 Z " fill="#0E9330" transform="translate(342,96)"/>
<path d="M0 0 C0.66 0 1.32 0 2 0 C0.12849037 7.15129696 -2.49786342 13.49405457 -6 20 C-6.33 20 -6.66 20 -7 20 C-7.08004482 16.4780279 -7.04005702 13.38018531 -6 10 C-5.01 10 -4.02 10 -3 10 C-3 8.68 -3 7.36 -3 6 C-2.34 6 -1.68 6 -1 6 C-0.67 4.02 -0.34 2.04 0 0 Z " fill="#4CA771" transform="translate(330,304)"/>
<path d="M0 0 C0.99 0.495 0.99 0.495 2 1 C2 1.66 2 2.32 2 3 C2.66 3 3.32 3 4 3 C6.11180124 6.47826087 6.11180124 6.47826087 5.625 8.75 C5.41875 9.4925 5.2125 10.235 5 11 C4.9023285 13.6731147 4.95539688 16.32381264 5 19 C2.2574117 16.2574117 2.14687766 13.84002249 1.375 10.0625 C1.11460938 8.81597656 0.85421875 7.56945312 0.5859375 6.28515625 C0 3 0 3 0 0 Z " fill="#40A164" transform="translate(114,224)"/>
<path d="M0 0 C0.33 0.66 0.66 1.32 1 2 C1.66 2 2.32 2 3 2 C3.33 3.32 3.66 4.64 4 6 C5.32 6 6.64 6 8 6 C8.33 5.01 8.66 4.02 9 3 C9.99 5.97 10.98 8.94 12 12 C10.68 11.67 9.36 11.34 8 11 C8 10.01 8 9.02 8 8 C5.69 7.67 3.38 7.34 1 7 C0.67 4.69 0.34 2.38 0 0 Z " fill="#E92113" transform="translate(315,67)"/>
<path d="M0 0 C-3.30015998 4.13937592 -6.17324411 7.58662205 -11 10 C-11.33 9.01 -11.66 8.02 -12 7 C-11.01 6.34 -10.02 5.68 -9 5 C-8.31731862 3.67479497 -7.6492959 2.34187818 -7 1 C-4.53721199 -0.231394 -2.7204945 -0.07159196 0 0 Z " fill="#40A561" transform="translate(291,364)"/>
<path d="M0 0 C0.33 0 0.66 0 1 0 C1.04898437 1.24136719 1.09796875 2.48273438 1.1484375 3.76171875 C1.22349799 5.40366694 1.29904439 7.04559297 1.375 8.6875 C1.4059375 9.50412109 1.436875 10.32074219 1.46875 11.16210938 C1.68297454 15.57156447 2.19451858 18.92310647 4 23 C4.23608151 25.70549407 4.09234983 28.27567998 4 31 C-0.55496827 26.44503173 -0.38692877 18.40351285 -0.6875 12.25 C-0.73455078 11.50878906 -0.78160156 10.76757812 -0.83007812 10.00390625 C-1.02502812 6.44367194 -0.97768508 3.42118622 0 0 Z " fill="#449E66" transform="translate(311,136)"/>
<path d="M0 0 C3.63 0 7.26 0 11 0 C11 0.33 11 0.66 11 1 C10.14277344 1.24234375 9.28554687 1.4846875 8.40234375 1.734375 C2.10105309 3.5814275 -3.487182 5.41025805 -9 9 C-9 8.01 -9 7.02 -9 6 C-8.01 6 -7.02 6 -6 6 C-5.67 5.01 -5.34 4.02 -5 3 C-3.35 2.67 -1.7 2.34 0 2 C0 1.34 0 0.68 0 0 Z " fill="#E05047" transform="translate(242,121)"/>
<path d="M0 0 C5.61 0 11.22 0 17 0 C17 0.99 17 1.98 17 3 C18.65 3 20.3 3 22 3 C21.01 4.485 21.01 4.485 20 6 C19.360625 5.525625 18.72125 5.05125 18.0625 4.5625 C12.29082744 1.6177691 6.2685175 1.55341904 0 3 C0 2.01 0 1.02 0 0 Z " fill="#4EA871" transform="translate(296,103)"/>
<path d="M0 0 C0.33 0 0.66 0 1 0 C1.16852247 1.60397277 1.33474886 3.2081869 1.5 4.8125 C1.5928125 5.70582031 1.685625 6.59914062 1.78125 7.51953125 C2 10 2 10 2 13 C0.35 13 -1.3 13 -3 13 C-2.52060632 8.28596212 -2.03165952 4.33420699 0 0 Z " fill="#319C59" transform="translate(253,134)"/>
<path d="M0 0 C-0.54269531 0.36351563 -1.08539063 0.72703125 -1.64453125 1.1015625 C-6.15418557 4.27050878 -8.97574073 6.68631943 -11 12 C-11.33 11.34 -11.66 10.68 -12 10 C-12.66 9.67 -13.32 9.34 -14 9 C-13.67 8.34 -13.34 7.68 -13 7 C-12.34 7 -11.68 7 -11 7 C-10.34 5.02 -9.68 3.04 -9 1 C-8.01 1.33 -7.02 1.66 -6 2 C-6 1.34 -6 0.68 -6 0 C-3.50907189 -1.24546405 -2.58919267 -0.7767578 0 0 Z " fill="#399A5C" transform="translate(354,115)"/>
<path d="M0 0 C-1.28062485 1.7074998 -2.61767557 3.37373596 -4 5 C-4.66 5 -5.32 5 -6 5 C-6.33 5.99 -6.66 6.98 -7 8 C-8.32 7.67 -9.64 7.34 -11 7 C-10.63802104 4.37565253 -10.17343943 3.17986311 -8.3125 1.25 C-5.39572708 -0.32663401 -3.26709987 -0.22275681 0 0 Z " fill="#E72419" transform="translate(245,92)"/>
<path d="M0 0 C7.16707877 0.32577631 12.76927124 3.65443628 19 7 C19 7.33 19 7.66 19 8 C17.54052295 7.93993922 16.08220728 7.8511311 14.625 7.75 C13.81289063 7.70359375 13.00078125 7.6571875 12.1640625 7.609375 C11.44992187 7.40828125 10.73578125 7.2071875 10 7 C9.30074953 5.68346249 8.63257304 4.34984205 8 3 C5.67843403 2.59270772 3.3431213 2.25561323 1 2 C0.67 1.34 0.34 0.68 0 0 Z " fill="#DE6057" transform="translate(317,46)"/>
<path d="M0 0 C1.32 0.33 2.64 0.66 4 1 C4 1.66 4 2.32 4 3 C2.730447 3.64834654 1.45930294 4.29357815 0.1875 4.9375 C-0.52019531 5.29714844 -1.22789062 5.65679687 -1.95703125 6.02734375 C-4 7 -4 7 -7 8 C-7 8.66 -7 9.32 -7 10 C-7.99 10.33 -8.98 10.66 -10 11 C-9.75 8.625 -9.75 8.625 -9 6 C-7.25 4.8125 -7.25 4.8125 -5 4 C-4.0925 3.62875 -3.185 3.2575 -2.25 2.875 C-1.5075 2.58625 -0.765 2.2975 0 2 C0 1.34 0 0.68 0 0 Z " fill="#3C9D60" transform="translate(179,211)"/>
<path d="M0 0 C1 3 1 3 0.109375 5.15625 C-0.33921875 5.9296875 -0.7878125 6.703125 -1.25 7.5 C-1.68828125 8.2734375 -2.1265625 9.046875 -2.578125 9.84375 C-3.89686958 11.84360442 -5.24105852 13.38591252 -7 15 C-7.66 14.67 -8.32 14.34 -9 14 C-7.62159784 11.16661778 -6.13581614 8.44311194 -4.5 5.75 C-4.0771875 5.04359375 -3.654375 4.3371875 -3.21875 3.609375 C-2.61546875 2.81273437 -2.61546875 2.81273437 -2 2 C-1.34 2 -0.68 2 0 2 C0 1.34 0 0.68 0 0 Z " fill="#30975A" transform="translate(281,352)"/>
<path d="M0 0 C0.33 0.66 0.66 1.32 1 2 C-0.28610133 3.9829888 -1.57849139 5.96133376 -2.875 7.9375 C-3.59429687 9.03964844 -4.31359375 10.14179688 -5.0546875 11.27734375 C-7 14 -7 14 -9 15 C-8.67 13.35 -8.34 11.7 -8 10 C-7.34 10 -6.68 10 -6 10 C-6.061875 9.05125 -6.12375 8.1025 -6.1875 7.125 C-6.125625 6.09375 -6.06375 5.0625 -6 4 C-5.01 3.34 -4.02 2.68 -3 2 C-2.34 2.33 -1.68 2.66 -1 3 C-0.67 2.01 -0.34 1.02 0 0 Z " fill="#F5D146" transform="translate(361,326)"/>
<path d="M0 0 C2 0 2 0 3.4375 1.125 C5.44655663 3.53586796 6.59937564 6.19875128 8 9 C8.98165594 10.01801357 9.97591432 11.0246803 11 12 C11 12.66 11 13.32 11 14 C11.66 14 12.32 14 13 14 C12.67 15.32 12.34 16.64 12 18 C10.55628097 16.12952125 9.12006561 14.25399303 7.6875 12.375 C6.48673828 10.80878906 6.48673828 10.80878906 5.26171875 9.2109375 C3.16141629 6.22916096 1.53217103 3.3023492 0 0 Z " fill="#F5DA6B" transform="translate(323,185)"/>
<path d="M0 0 C0.99 0 1.98 0 3 0 C3.33 0.66 3.66 1.32 4 2 C4.99 2.3403125 4.99 2.3403125 6 2.6875 C8 4 8 4 8.875 7.5 C8.91625 8.655 8.9575 9.81 9 11 C8.34 11.66 7.68 12.32 7 13 C6.20724852 11.5839401 5.41584688 10.16712447 4.625 8.75 C3.96371094 7.56664062 3.96371094 7.56664062 3.2890625 6.359375 C2.14252177 4.26085803 1.05350448 2.1463923 0 0 Z " fill="#27984E" transform="translate(222,226)"/>
<path d="M0 0 C3.18019683 2.9238411 5.25351309 5.83401169 7.3125 9.625 C7.84488281 10.58664063 8.37726563 11.54828125 8.92578125 12.5390625 C9.28027344 13.35117188 9.63476562 14.16328125 10 15 C9.67 15.66 9.34 16.32 9 17 C8.67 15.68 8.34 14.36 8 13 C7.34 13 6.68 13 6 13 C4.375 11.75 4.375 11.75 3 10 C3 8.68 3 7.36 3 6 C2.34 6 1.68 6 1 6 C0.67 4.02 0.34 2.04 0 0 Z " fill="#F5D25D" transform="translate(364,205)"/>
<path d="M0 0 C0.66 1.32 1.32 2.64 2 4 C1.26656372 4.58454956 1.26656372 4.58454956 0.51831055 5.1809082 C-1.4990179 7.59787463 -1.34702357 8.98830755 -1.29296875 12.10546875 C-1.28330078 13.08837891 -1.27363281 14.07128906 -1.26367188 15.08398438 C-1.23853516 16.10814453 -1.21339844 17.13230469 -1.1875 18.1875 C-1.17396484 19.22326172 -1.16042969 20.25902344 -1.14648438 21.32617188 C-1.11111389 23.88463699 -1.06175544 26.4420578 -1 29 C-3.6289491 24.40996868 -3.33106166 20.23377804 -3.3125 15.0625 C-3.32861328 14.16853516 -3.34472656 13.27457031 -3.36132812 12.35351562 C-3.36500461 7.40128888 -3.20000634 4.04433519 0 0 Z " fill="#1F8E47" transform="translate(315,129)"/>
<path d="M0 0 C1.98 0.99 3.96 1.98 6 3 C6 3.66 6 4.32 6 5 C6.66 5 7.32 5 8 5 C8 5.66 8 6.32 8 7 C8.66 7.33 9.32 7.66 10 8 C7.05094291 8.90110078 5.58815249 9.27773867 2.75 7.9375 C0.45753774 5.39941678 0.29782808 3.3505659 0 0 Z " fill="#24964A" transform="translate(216,140)"/>
<path d="M0 0 C1.6077072 4.01926801 0.34539351 7.03462964 -1 11 C-1.62469505 12.35350594 -2.2716331 13.69934483 -3 15 C-3.99 15 -4.98 15 -6 15 C-4.36041242 9.76727367 -2.61047965 4.84803364 0 0 Z " fill="#F3D454" transform="translate(351,294)"/>
<path d="M0 0 C1.258125 0.33 2.51625 0.66 3.8125 1 C9.22793168 2.22450844 14.47495171 2.18588948 20 2 C16.65729738 4.80905608 14.54217648 5.40950914 10.1015625 5.2265625 C6.81236963 4.8719655 4.09718144 4.2009479 1 3 C0.67 2.01 0.34 1.02 0 0 Z " fill="#A1BC32" transform="translate(341,192)"/>
<path d="M0 0 C2.31 0 4.62 0 7 0 C7.33 0.99 7.66 1.98 8 3 C7.34 3 6.68 3 6 3 C5.67 3.99 5.34 4.98 5 6 C2.525 5.01 2.525 5.01 0 4 C0 2.68 0 1.36 0 0 Z " fill="#DE3830" transform="translate(310,45)"/>
<path d="M0 0 C0.33 0 0.66 0 1 0 C2.32420347 6.45549191 3.37422887 13.10510214 0 19 C-0.33 19 -0.66 19 -1 19 C-0.67 12.73 -0.34 6.46 0 0 Z " fill="#F2CF58" transform="translate(359,250)"/>
<path d="M0 0 C0.66 0.33 1.32 0.66 2 1 C1 3 0 5 -1 7 C-3.64860427 7.59355614 -6.29197322 7.74209269 -9 8 C-7.87716914 4.7437905 -7.04149584 4.02286505 -3.9375 2.3125 C-2.968125 1.879375 -1.99875 1.44625 -1 1 C-0.67 0.67 -0.34 0.34 0 0 Z " fill="#F8C008" transform="translate(261,398)"/>
<path d="M0 0 C1 2 1 2 0.0625 5.125 C-0.288125 6.07375 -0.63875 7.0225 -1 8 C-1.99 8 -2.98 8 -4 8 C-4.33 9.98 -4.66 11.96 -5 14 C-5.99 14 -6.98 14 -8 14 C-8.33 14.99 -8.66 15.98 -9 17 C-9.33 16.34 -9.66 15.68 -10 15 C-9.67 14.34 -9.34 13.68 -9 13 C-8.34 13 -7.68 13 -7 13 C-6.34 11.02 -5.68 9.04 -5 7 C-4.34 7 -3.68 7 -3 7 C-2.814375 6.1028125 -2.814375 6.1028125 -2.625 5.1875 C-2 3 -2 3 0 0 Z " fill="#5CAF77" transform="translate(292,335)"/>
<path d="M0 0 C0.99 0 1.98 0 3 0 C2.46884894 4.51478398 0.63379708 7.34666857 -2 11 C-2.66 10.01 -3.32 9.02 -4 8 C-2.68 5.36 -1.36 2.72 0 0 Z " fill="#22934C" transform="translate(269,293)"/>
<path d="M0 0 C1.57165757 4.06719492 0.54608494 7.92955435 -0.25 12.0625 C-0.37246094 12.78244141 -0.49492187 13.50238281 -0.62109375 14.24414062 C-1.83475061 20.71497445 -1.83475061 20.71497445 -5 23 C-4.44785138 18.39876147 -3.46025305 14.38075914 -2 10 C-1.26588941 6.67902351 -0.62117637 3.3437792 0 0 Z " fill="#F5DB6D" transform="translate(357,271)"/>
<path d="M0 0 C0.33 0 0.66 0 1 0 C1.36517527 6.57315478 0.13619737 11.79485526 -2 18 C-2.33 18 -2.66 18 -3 18 C-2.67 13.38 -2.34 8.76 -2 4 C-1.34 4 -0.68 4 0 4 C0 2.68 0 1.36 0 0 Z " fill="#379C5E" transform="translate(335,285)"/>
<path d="M0 0 C-1.72569639 1.13031603 -3.45571739 2.25403107 -5.1875 3.375 C-6.15042969 4.00148438 -7.11335938 4.62796875 -8.10546875 5.2734375 C-10.69803936 6.81988312 -13.16853116 7.97508075 -16 9 C-15 6 -15 6 -13.125 4.8125 C-11 4 -11 4 -8 4 C-8 3.01 -8 2.02 -8 1 C-2.25 -1.125 -2.25 -1.125 0 0 Z " fill="#F4D769" transform="translate(317,374)"/>
<path d="M0 0 C3.3 0 6.6 0 10 0 C10 2 10 4 10 6 C5.56909529 4.79157144 3.01887244 3.48331435 0 0 Z " fill="#209027" transform="translate(332,186)"/>
<path d="M0 0 C0 3.38878512 -0.64361198 4.39757217 -2.4375 7.1875 C-2.88996094 7.90292969 -3.34242188 8.61835938 -3.80859375 9.35546875 C-4.20175781 9.89816406 -4.59492188 10.44085938 -5 11 C-5.33 11 -5.66 11 -6 11 C-6 9.02 -6 7.04 -6 5 C-5.34 5 -4.68 5 -4 5 C-3.896875 4.360625 -3.79375 3.72125 -3.6875 3.0625 C-3.460625 2.381875 -3.23375 1.70125 -3 1 C-2.01 0.67 -1.02 0.34 0 0 Z " fill="#41A764" transform="translate(320,327)"/>
<path d="M0 0 C0.66 0 1.32 0 2 0 C3.86783046 5.48675196 4.2358396 10.22192976 4 16 C1.33068994 10.87447606 -0.35375916 5.83702609 0 0 Z " fill="#4FAA6F" transform="translate(235,249)"/>
<path d="M0 0 C0.66 0 1.32 0 2 0 C2.66 1.32 3.32 2.64 4 4 C4.66 3.67 5.32 3.34 6 3 C4.92598892 5.91517292 4.22189824 7.77810176 2 10 C-1.07692308 4.58461538 -1.07692308 4.58461538 -0.6875 1.625 C-0.460625 1.08875 -0.23375 0.5525 0 0 Z " fill="#37A25C" transform="translate(122,250)"/>
<path d="M0 0 C0.33 0 0.66 0 1 0 C1.39325819 6.97669157 0.63096039 12.51656189 -2 19 C-3.56454159 14.97985339 -2.46223974 11.30074319 -1.5625 7.25 C-1.34110352 6.20392578 -1.34110352 6.20392578 -1.11523438 5.13671875 C-0.75131967 3.4227979 -0.37670932 1.71115419 0 0 Z " fill="#5AAC79" transform="translate(373,164)"/>
<path d="M0 0 C1.65 0.33 3.3 0.66 5 1 C4.01 1.495 4.01 1.495 3 2 C3 2.66 3 3.32 3 4 C2.34 4 1.68 4 1 4 C0.67 5.32 0.34 6.64 0 8 C-0.66 8 -1.32 8 -2 8 C-2.33 8.66 -2.66 9.32 -3 10 C-3 8.35 -3 6.7 -3 5 C-2.34 5 -1.68 5 -1 5 C-0.67 3.35 -0.34 1.7 0 0 Z " fill="#379F5D" transform="translate(305,343)"/>
<path d="M0 0 C0.33 0.99 0.66 1.98 1 3 C1.99 2.34 2.98 1.68 4 1 C6.1875 0.375 6.1875 0.375 8 0 C6.125 4.875 6.125 4.875 5 6 C3.33382885 6.04063832 1.66611905 6.042721 0 6 C0 4.02 0 2.04 0 0 Z " fill="#379962" transform="translate(248,322)"/>
<path d="M0 0 C0.33 0 0.66 0 1 0 C1.95619733 3.99795892 2.1039592 7.70803922 2.0625 11.8125 C2.05347656 12.97394531 2.04445313 14.13539063 2.03515625 15.33203125 C2.02355469 16.21246094 2.01195312 17.09289062 2 18 C1.67 18 1.34 18 1 18 C-1.3938068 5.98821945 -1.3938068 5.98821945 -1 1 C-0.67 0.67 -0.34 0.34 0 0 Z " fill="#F5D253" transform="translate(357,230)"/>
<path d="M0 0 C4.02992782 0.55312735 8.02022924 1.1558062 12 2 C12 2.66 12 3.32 12 4 C13.32 4.33 14.64 4.66 16 5 C16 5.99 16 6.98 16 8 C10.38098156 5.89286808 4.99385521 3.32923681 0 0 Z " fill="#62B382" transform="translate(201,213)"/>
<path d="M0 0 C1.32 0.66 2.64 1.32 4 2 C0.79663178 4.83374881 -1.78087253 5.5205537 -6 6 C-6 5.34 -6 4.68 -6 4 C-4.03852126 2.61061923 -2.03833424 1.2739589 0 0 Z " fill="#EEDD86" transform="translate(237,412)"/>
<path d="M0 0 C2.97 0.495 2.97 0.495 6 1 C7.42857143 9.57142857 7.42857143 9.57142857 5 13 C4.34 12.34 3.68 11.68 3 11 C3.66 11 4.32 11 5 11 C3.93912798 4.69974016 3.93912798 4.69974016 0 0 Z " fill="#E23E35" transform="translate(265,81)"/>
<path d="M0 0 C1.485 0.99 1.485 0.99 3 2 C3 2.66 3 3.32 3 4 C3.66 4 4.32 4 5 4 C6.2380014 7.57644848 5.74926071 10.33694766 5 14 C4.67 14 4.34 14 4 14 C4 12.35 4 10.7 4 9 C3.34 9 2.68 9 2 9 C1.34 6.03 0.68 3.06 0 0 Z " fill="#E2473E" transform="translate(337,55)"/>
<path d="M0 0 C0.33 0 0.66 0 1 0 C1.20413361 5.73842251 1.27141454 10.60539047 -1 16 C-1.33 16 -1.66 16 -2 16 C-2.20674944 10.21101581 -1.59162079 5.57067277 0 0 Z " fill="#49B07D" transform="translate(249,149)"/>
<path d="M0 0 C-3.3730619 2.96829447 -6.62968884 4.06350475 -11 5 C-13.21875 4.546875 -13.21875 4.546875 -15 4 C-12.87875034 3.13656176 -10.75286928 2.28449352 -8.625 1.4375 C-6.84996094 0.72400391 -6.84996094 0.72400391 -5.0390625 -0.00390625 C-2 -1 -2 -1 0 0 Z " fill="#4FAA72" transform="translate(164,132)"/>
<path d="M0 0 C0.66 0 1.32 0 2 0 C0.125 4.75 0.125 4.75 -1 7 C-1.66 7 -2.32 7 -3 7 C-2.938125 7.78375 -2.87625 8.5675 -2.8125 9.375 C-2.874375 10.24125 -2.93625 11.1075 -3 12 C-3.99 12.66 -4.98 13.32 -6 14 C-5.41892368 10.2397015 -4.34800504 7.46964968 -2.4375 4.1875 C-1.98246094 3.39730469 -1.52742187 2.60710937 -1.05859375 1.79296875 C-0.53458984 0.90544922 -0.53458984 0.90544922 0 0 Z " fill="#DE5751" transform="translate(233,97)"/>
<path d="M0 0 C1.63005488 2.49302511 2.01324502 3.80132472 1.8125 6.8125 C0.88447338 10.45321981 -0.43106045 13.58926184 -2 17 C-3.28385175 13.14844474 -2.29190137 11.80393181 -1 8 C-0.5583825 5.33589444 -0.27811103 2.68840666 0 0 Z " fill="#DE584C" transform="translate(341,77)"/>
<path d="M0 0 C1 2 1 2 0.51171875 4.12890625 C0.23972656 4.93199219 -0.03226562 5.73507812 -0.3125 6.5625 C-0.57675781 7.36816406 -0.84101563 8.17382812 -1.11328125 9.00390625 C-2 11 -2 11 -4 12 C-3.5317879 7.22423661 -2.75668002 3.95523655 0 0 Z " fill="#F3CB37" transform="translate(366,314)"/>
<path d="M0 0 C4.08251636 2.04125818 4.52393974 2.30300942 6.25 6.125 C6.58515625 6.84945313 6.9203125 7.57390625 7.265625 8.3203125 C7.62914062 9.15175781 7.62914062 9.15175781 8 10 C7.01 10 6.02 10 5 10 C3.35 6.7 1.7 3.4 0 0 Z " fill="#3B9A61" transform="translate(138,289)"/>
<path d="M0 0 C3.98175544 2.10148204 6.35039045 4.36905358 9 8 C7.35 8 5.7 8 4 8 C4.33 7.01 4.66 6.02 5 5 C3.68 5 2.36 5 1 5 C0.67 3.35 0.34 1.7 0 0 Z " fill="#359556" transform="translate(321,239)"/>
<path d="M0 0 C0.99 0 1.98 0 3 0 C3.5345256 1.24420647 4.05208611 2.49570936 4.5625 3.75 C4.85253906 4.44609375 5.14257812 5.1421875 5.44140625 5.859375 C6.07831803 8.30012784 5.80248831 9.6403655 5 12 C4.16180842 10.37750059 3.3295884 8.75191503 2.5 7.125 C2.0359375 6.22007812 1.571875 5.31515625 1.09375 4.3828125 C0 2 0 2 0 0 Z " fill="#F5D25B" transform="translate(350,219)"/>
<path d="M0 0 C0.66 0.33 1.32 0.66 2 1 C1.34 1.66 0.68 2.32 0 3 C-0.0825 3.78375 -0.165 4.5675 -0.25 5.375 C-1.33581124 9.17533935 -3.68038193 10.09298536 -7 12 C-6.33333333 10.66666667 -5.66666667 9.33333333 -5 8 C-4.505 6.96875 -4.01 5.9375 -3.5 4.875 C-2 2 -2 2 0 0 Z " fill="#76571E" transform="translate(266,112)"/>
<path d="M0 0 C1.32 0.33 2.64 0.66 4 1 C2.37750059 1.83819158 0.75191503 2.6704116 -0.875 3.5 C-2.23238281 4.19609375 -2.23238281 4.19609375 -3.6171875 4.90625 C-6 6 -6 6 -8 6 C-8 5.01 -8 4.02 -8 3 C-5.36 2.67 -2.72 2.34 0 2 C0 1.34 0 0.68 0 0 Z " fill="#F5D15D" transform="translate(260,403)"/>
<path d="M0 0 C0.99 1.32 1.98 2.64 3 4 C2.34 4 1.68 4 1 4 C1 4.66 1 5.32 1 6 C-0.65 6.66 -2.3 7.32 -4 8 C-3.50168276 4.31245243 -2.89932357 2.39509338 0 0 Z " fill="#81B68E" transform="translate(253,390)"/>
<path d="M0 0 C0.66 0.33 1.32 0.66 2 1 C1.34 2.65 0.68 4.3 0 6 C-0.99 5.67 -1.98 5.34 -3 5 C-3 5.66 -3 6.32 -3 7 C-3.66 7 -4.32 7 -5 7 C-5 7.66 -5 8.32 -5 9 C-5.66 8.67 -6.32 8.34 -7 8 C-4.69 5.36 -2.38 2.72 0 0 Z " fill="#41A663" transform="translate(272,252)"/>
<path d="M0 0 C2.74792483 3.40219265 6 7.48464588 6 12 C4 12 4 12 2.4375 10.5 C0.42584433 7.0014684 0.33420906 4.01050867 0 0 Z " fill="#429864" transform="translate(233,157)"/>
<path d="M0 0 C0.5775 0.226875 1.155 0.45375 1.75 0.6875 C-0.23 1.6775 -2.21 2.6675 -4.25 3.6875 C-4.25 4.3475 -4.25 5.0075 -4.25 5.6875 C-6.56 6.0175 -8.87 6.3475 -11.25 6.6875 C-9.58784732 5.34854368 -7.92036393 4.01619858 -6.25 2.6875 C-5.569375 2.089375 -4.88875 1.49125 -4.1875 0.875 C-2.25 -0.3125 -2.25 -0.3125 0 0 Z " fill="#399A5A" transform="translate(149.25,137.3125)"/>
<path d="M0 0 C0.33 0.66 0.66 1.32 1 2 C-1 5 -1 5 -3.625 5.6875 C-4.800625 5.8421875 -4.800625 5.8421875 -6 6 C-6 6.66 -6 7.32 -6 8 C-5.01 8.33 -4.02 8.66 -3 9 C-4.65 8.67 -6.3 8.34 -8 8 C-6.88333826 4.65001479 -6.25305075 4.20659778 -3.4375 2.3125 C-2.79683594 1.87550781 -2.15617188 1.43851562 -1.49609375 0.98828125 C-1.00238281 0.66214844 -0.50867188 0.33601563 0 0 Z " fill="#E3726D" transform="translate(247,71)"/>
<path d="M0 0 C0.33 0.66 0.66 1.32 1 2 C0.02616054 3.68208635 -0.97695052 5.34738161 -2 7 C-2.165 7.721875 -2.33 8.44375 -2.5 9.1875 C-3 11 -3 11 -6 13 C-3.10933941 3.40546697 -3.10933941 3.40546697 0 0 Z M-8 13 C-6 14 -6 14 -6 14 Z " fill="#339C55" transform="translate(271,366)"/>
<path d="M0 0 C0.66 0.33 1.32 0.66 2 1 C0.32482761 4.53647504 -0.49280817 5.7911563 -4.1875 7.3125 C-5.5796875 7.6528125 -5.5796875 7.6528125 -7 8 C-6.02133662 6.85373678 -5.04205413 5.70800212 -4.0625 4.5625 C-3.51722656 3.92441406 -2.97195313 3.28632813 -2.41015625 2.62890625 C-1.63204305 1.73008851 -0.84063472 0.84063472 0 0 Z " fill="#3EA35F" transform="translate(280,244)"/>
<path d="M0 0 C0.66 0.33 1.32 0.66 2 1 C1.07161713 2.31896465 0.13194268 3.62998689 -0.8125 4.9375 C-1.59560547 6.03384766 -1.59560547 6.03384766 -2.39453125 7.15234375 C-4 9 -4 9 -7 10 C-7 9.01 -7 8.02 -7 7 C-6.01 7 -5.02 7 -4 7 C-3.34 5.35 -2.68 3.7 -2 2 C-1.34 2 -0.68 2 0 2 C0 1.34 0 0.68 0 0 Z " fill="#45A26C" transform="translate(368,184)"/>
<path d="M0 0 C0.33 0 0.66 0 1 0 C1.125 6.625 1.125 6.625 0 10 C-0.66 10 -1.32 10 -2 10 C-2 7.36 -2 4.72 -2 2 C-1.34 2 -0.68 2 0 2 C0 1.34 0 0.68 0 0 Z " fill="#F6CB3A" transform="translate(373,296)"/>
<path d="M0 0 C1.32 0 2.64 0 4 0 C4 0.66 4 1.32 4 2 C4.61875 2.12375 5.2375 2.2475 5.875 2.375 C8 3 8 3 10 5 C9.01 5.99 8.02 6.98 7 8 C6.6596875 6.824375 6.6596875 6.824375 6.3125 5.625 C5.21875 2.78125 5.21875 2.78125 2.375 1.6875 C1.59125 1.460625 0.8075 1.23375 0 1 C0 0.67 0 0.34 0 0 Z " fill="#4CA96A" transform="translate(298,279)"/>
<path d="M0 0 C0 0.66 0 1.32 0 2 C-3.96 2.66 -7.92 3.32 -12 4 C-11 2 -11 2 -8.8125 0.875 C-5.73230669 -0.08328236 -3.20690052 -0.14915816 0 0 Z " fill="#57AD72" transform="translate(300,236)"/>
<path d="M0 0 C0.99 0 1.98 0 3 0 C2.5205537 4.21912747 1.83374881 6.79663178 -1 10 C-1.08004482 6.4780279 -1.04005702 3.38018531 0 0 Z " fill="#3EA464" transform="translate(324,314)"/>
<path d="M0 0 C7.75 0.75 7.75 0.75 10 3 C6.83170302 4.05609899 6.01480825 4.13055309 3 3 C1.25 1.4375 1.25 1.4375 0 0 Z " fill="#4AA873" transform="translate(311,236)"/>
<path d="M0 0 C1.65 0 3.3 0 5 0 C6.33332095 2.6666419 5.67102033 4.16680303 5 7 C2.47411298 4.63707344 1.11179163 3.33537489 0 0 Z " fill="#F7D24B" transform="translate(345,212)"/>
<path d="M0 0 C4.05281712 1.22527029 7.44360764 2.69880494 11 5 C7.59068103 6.13643966 6.99664544 5.86747764 3.8125 4.5625 C3.09707031 4.27503906 2.38164062 3.98757812 1.64453125 3.69140625 C1.10183594 3.46324219 0.55914062 3.23507813 0 3 C0 2.01 0 1.02 0 0 Z " fill="#50A066" transform="translate(205,134)"/>
<path d="M0 0 C-0.125 1.8125 -0.125 1.8125 -1 4 C-3.9375 5.8125 -3.9375 5.8125 -7 7 C-7.66 6.67 -8.32 6.34 -9 6 C-7.8803014 4.99406757 -6.7540588 3.9954151 -5.625 3 C-4.68527344 2.1646875 -4.68527344 2.1646875 -3.7265625 1.3125 C-2 0 -2 0 0 0 Z " fill="#F0D551" transform="translate(283,380)"/>
<path d="M0 0 C2.1519437 3.22791555 2.20086443 4.28400809 2 8 C0.35 8.33 -1.3 8.66 -3 9 C-2.01 6.03 -1.02 3.06 0 0 Z " fill="#45A467" transform="translate(301,317)"/>
<path d="M0 0 C0.33 0 0.66 0 1 0 C1.08096803 1.45742463 1.13917774 2.91612807 1.1875 4.375 C1.22230469 5.18710938 1.25710937 5.99921875 1.29296875 6.8359375 C1.19628906 7.55007812 1.09960938 8.26421875 1 9 C0.01 9.66 -0.98 10.32 -2 11 C-1.85892253 9.54119891 -1.71197585 8.08296449 -1.5625 6.625 C-1.48128906 5.81289062 -1.40007812 5.00078125 -1.31640625 4.1640625 C-1 2 -1 2 0 0 Z " fill="#479F64" transform="translate(116,177)"/>
<path d="M0 0 C0.66 0 1.32 0 2 0 C2 1.32 2 2.64 2 4 C-0.31 5.32 -2.62 6.64 -5 8 C-3.63055898 5.05043472 -2.12169591 2.47531189 0 0 Z " fill="#58AE71" transform="translate(130,151)"/>
<path d="M0 0 C0 0.66 0 1.32 0 2 C-1.2375 2.04125 -2.475 2.0825 -3.75 2.125 C-4.79414063 2.15980469 -4.79414063 2.15980469 -5.859375 2.1953125 C-8.30155975 1.97248542 -9.88636771 1.20915 -12 0 C-10.37585622 -0.19477739 -8.75063577 -0.38059458 -7.125 -0.5625 C-6.22007812 -0.66691406 -5.31515625 -0.77132812 -4.3828125 -0.87890625 C-2 -1 -2 -1 0 0 Z " fill="#467634" transform="translate(341,96)"/>
<path d="M0 0 C1.32 0.33 2.64 0.66 4 1 C0.55384615 5.8 0.55384615 5.8 -2.25 6.8125 C-3.11625 6.9053125 -3.11625 6.9053125 -4 7 C-3.34 6.67 -2.68 6.34 -2 6 C-1.40929986 4.05396726 -1.40929986 4.05396726 -1 2 C-0.67 1.34 -0.34 0.68 0 0 Z " fill="#128C3E" transform="translate(284,349)"/>
<path d="M0 0 C0.99 0 1.98 0 3 0 C2.45773019 3.79588866 0.79872437 5.47211993 -2 8 C-1.47731534 5.23723823 -0.89130413 2.6739124 0 0 Z " fill="#42A161" transform="translate(282,112)"/>
<path d="M0 0 C-3 2 -3 2 -6 2 C-6 2.66 -6 3.32 -6 4 C-7.65 4.33 -9.3 4.66 -11 5 C-4.74206349 -1.42261905 -4.74206349 -1.42261905 0 0 Z " fill="#4D7029" transform="translate(292,97)"/>
<path d="M0 0 C4.21912747 0.4794463 6.79663178 1.16625119 10 4 C7.03 3.67 4.06 3.34 1 3 C0.67 2.01 0.34 1.02 0 0 Z " fill="#DF3C35" transform="translate(326,50)"/>
<path d="M0 0 C0.78375 0.04125 1.5675 0.0825 2.375 0.125 C-2.375 5 -2.375 5 -4.625 6.125 C-4.625 1.71963177 -4.59063093 0.21860147 0 0 Z " fill="#F6D149" transform="translate(327.625,362.875)"/>
<path d="M0 0 C2.31 0 4.62 0 7 0 C4.3534665 2.6465335 1.43778736 3.59941997 -2 5 C-2 4.01 -2 3.02 -2 2 C-1.34 2 -0.68 2 0 2 C0 1.34 0 0.68 0 0 Z " fill="#3C9D5C" transform="translate(286,277)"/>
<path d="M0 0 C-1.1858237 3.37503669 -2.27573689 5.64722731 -5 8 C-5 5.69 -5 3.38 -5 1 C-3 0 -3 0 0 0 Z " fill="#4FA76F" transform="translate(166,226)"/>
<path d="M0 0 C0.99 0.33 1.98 0.66 3 1 C2.67 2.98 2.34 4.96 2 7 C1.01 7 0.02 7 -1 7 C-0.67 4.69 -0.34 2.38 0 0 Z " fill="#299952" transform="translate(322,116)"/>
<path d="M0 0 C-2 2 -2 2 -3.9453125 2.1953125 C-5.96354167 2.13020833 -7.98177083 2.06510417 -10 2 C-10 1.34 -10 0.68 -10 0 C-6.7169902 -1.6415049 -3.57454967 -0.51888624 0 0 Z " fill="#CD2923" transform="translate(251,77)"/>
<path d="M0 0 C4.75 1.875 4.75 1.875 7 3 C7 3.66 7 4.32 7 5 C7.66 5.33 8.32 5.66 9 6 C5.21213403 5.4739075 2.82847776 4.61896089 0 2 C0 1.34 0 0.68 0 0 Z " fill="#DC5650" transform="translate(299,54)"/>
<path d="M0 0 C0.99 0 1.98 0 3 0 C4.5625 2.8125 4.5625 2.8125 6 6 C5.67 6.99 5.34 7.98 5 9 C3.35 6.03 1.7 3.06 0 0 Z " fill="#52AC74" transform="translate(222,226)"/>
<path d="M0 0 C0.66 0.33 1.32 0.66 2 1 C1.67 2.98 1.34 4.96 1 7 C0.01 7 -0.98 7 -2 7 C-1.125 2.25 -1.125 2.25 0 0 Z " fill="#EE1D11" transform="translate(232,124)"/>
<path d="M0 0 C2.31 1.98 4.62 3.96 7 6 C5.68 6.33 4.36 6.66 3 7 C0 2.25 0 2.25 0 0 Z " fill="#DF413B" transform="translate(308,60)"/>
<path d="M0 0 C1.65 0 3.3 0 5 0 C5 0.66 5 1.32 5 2 C2.64561267 3.42944945 1.51967567 4.08661261 -1.25 3.625 C-1.8275 3.41875 -2.405 3.2125 -3 3 C-2.01 3 -1.02 3 0 3 C0 2.01 0 1.02 0 0 Z " fill="#F2C639" transform="translate(288,387)"/>
<path d="M0 0 C0.33 0.99 0.66 1.98 1 3 C-0.4375 5.6875 -0.4375 5.6875 -2 8 C-2.99 7.67 -3.98 7.34 -5 7 C-3.625 4.5 -3.625 4.5 -2 2 C-1.34 2 -0.68 2 0 2 C0 1.34 0 0.68 0 0 Z " fill="#51A774" transform="translate(281,352)"/>
<path d="M0 0 C0.66 0.99 1.32 1.98 2 3 C1.01 3.495 1.01 3.495 0 4 C-0.72159424 5.64363134 -1.39351421 7.31050386 -2 9 C-2.66 9 -3.32 9 -4 9 C-2.94124926 5.59687262 -1.99097846 2.98646769 0 0 Z " fill="#5FB07B" transform="translate(297,326)"/>
<path d="M0 0 C1.0326802 2.78823655 1.04509293 3.8677274 0.0625 6.75 C-0.288125 7.4925 -0.63875 8.235 -1 9 C-1.66 8.67 -2.32 8.34 -3 8 C-1.125 2.25 -1.125 2.25 0 0 Z " fill="#F1D34F" transform="translate(340,316)"/>
<path d="M0 0 C0.33 0 0.66 0 1 0 C1.125 6.75 1.125 6.75 0 9 C-0.66 9 -1.32 9 -2 9 C-1.51421457 5.87709365 -1.0013988 3.00419641 0 0 Z " fill="#42A263" transform="translate(119,168)"/>
<path d="M0 0 C0.99 0 1.98 0 3 0 C3 0.66 3 1.32 3 2 C3.66 2 4.32 2 5 2 C5 2.66 5 3.32 5 4 C5.66 4.33 6.32 4.66 7 5 C3 5 3 5 1.25 3.625 C0 2 0 2 0 0 Z " fill="#3F985D" transform="translate(219,143)"/>
</svg>
