<?xml version="1.0" encoding="UTF-8"?>
<svg version="1.1" xmlns="http://www.w3.org/2000/svg" width="1024" height="1024">
<path d="M0 0 C337.92 0 675.84 0 1024 0 C1024 337.92 1024 675.84 1024 1024 C686.08 1024 348.16 1024 0 1024 C0 686.08 0 348.16 0 0 Z " fill="#242930" transform="translate(0,0)"/>
<path d="M0 0 C2.20126863 0.27245565 4.40239519 0.4446733 6.61328125 0.62109375 C9 1 9 1 11.22070312 1.93383789 C14.41207721 3.15807635 17.4971957 3.79890272 20.85546875 4.4375 C21.51072037 4.5625592 22.16597198 4.68761841 22.84107971 4.81646729 C24.95544682 5.21714568 27.07130258 5.60911308 29.1875 6 C30.2637262 6.20175842 30.2637262 6.20175842 31.36169434 6.40759277 C40.49226876 8.11551781 49.6023003 9.68417128 58.87182617 10.41796875 C62.34355559 10.70680255 65.00849306 11.15674825 68 13 C67.02804687 13.48726562 66.05609375 13.97453125 65.0546875 14.4765625 C32.87194938 30.02190853 32.87194938 30.02190853 10 56 C9.08044397 59.17508802 9.08044397 59.17508802 10 62 C15.85223274 69.55126805 25.64735779 73.99425063 33.9375 78.375 C49.57034861 86.83347749 62.34569804 96.97177057 68.11328125 114.35546875 C71.66205293 128.94138938 67.87822688 142.3406508 60.81640625 155.08984375 C54.39707385 165.37458061 44.62324814 171.78505903 33 175 C30.67305036 175.37531446 28.34023315 175.71917202 26 176 C26.53367187 176.40089844 27.06734375 176.80179688 27.6171875 177.21484375 C54.9893723 198.09915776 72.46181941 225.78039332 78 260 C78.88088682 266.93485205 79.19362506 273.83100432 79.2734375 280.81640625 C79.28592026 281.82286697 79.29840302 282.8293277 79.31126404 283.86628723 C79.71130688 323.78271921 79.71130688 323.78271921 74.70556641 341.484375 C73.97737047 344.08068326 73.34574974 346.6873011 72.73046875 349.3125 C70.64468414 358.02706821 68.01880704 365.96238592 64 374 C63.53980469 375.08667969 63.07960938 376.17335938 62.60546875 377.29296875 C55.36105177 394.35728934 44.92908011 408.92636616 33 423 C32.39414062 423.72960937 31.78828125 424.45921875 31.1640625 425.2109375 C27.13639509 429.96759449 22.76358707 433.99443768 18 438 C17.07574219 438.81210937 16.15148437 439.62421875 15.19921875 440.4609375 C-17.71841865 469.22977771 -58.39612298 487.7597361 -99.1875 502.4375 C-100.01866333 502.7370459 -100.84982666 503.0365918 -101.70617676 503.34521484 C-113.62154363 507.62146766 -125.53755708 511.39947748 -137.83305359 514.45179749 C-140.96681605 515.24458888 -144.08657227 516.08706768 -147.20733643 516.92936707 C-150.91216543 517.92930161 -154.62027298 518.91686143 -158.328125 519.90551758 C-160.28406851 520.42898742 -162.2391448 520.95570789 -164.19335938 521.4855957 C-167.02763763 522.25325228 -169.86494888 523.00862045 -172.703125 523.76171875 C-174.01256073 524.12096687 -174.01256073 524.12096687 -175.34844971 524.48747253 C-176.16319763 524.70132095 -176.97794556 524.91516937 -177.81738281 525.13549805 C-178.88705292 525.42290108 -178.88705292 525.42290108 -179.97833252 525.71611023 C-182.25884112 526.03634739 -183.82156529 525.69419682 -186 525 C-184.5459375 524.38125 -184.5459375 524.38125 -183.0625 523.75 C-174.05934549 519.88582427 -165.2721836 515.7242236 -156.54199219 511.28271484 C-153.54897468 509.77240809 -150.54453395 508.28614933 -147.5390625 506.80078125 C-125.39980982 495.84375854 -103.85052778 484.27715979 -83 471 C-82.15695312 470.46761719 -81.31390625 469.93523437 -80.4453125 469.38671875 C-63.29259132 458.54092121 -46.81515889 446.94486075 -31.63525391 433.4465332 C-30.46752856 432.41357222 -29.29179618 431.38963411 -28.11083984 430.37182617 C-17.17868441 420.93429097 -6.50104722 410.70994054 2 399 C2.43731445 398.41202637 2.87462891 397.82405273 3.32519531 397.21826172 C14.93816228 381.57290696 24.19285932 365.2675476 31 347 C31.44988281 345.81535156 31.89976562 344.63070313 32.36328125 343.41015625 C36.35929934 332.21388267 38.74741398 320.65288453 41 309 C41.25007813 307.71480469 41.50015625 306.42960937 41.7578125 305.10546875 C47.08928421 272.25309026 41.34405213 241.55174889 21.8984375 214.5390625 C19.29259095 211.05387678 16.63867814 207.60679663 13.9753418 204.16552734 C-1.14892931 184.60029518 -15.54332302 163.99048415 -25 141 C-25.8294343 139.22733706 -26.6625324 137.45638189 -27.5 135.6875 C-29.83671518 130.53833122 -31.57918119 125.46654016 -33 120 C-33.41958984 118.63681641 -33.41958984 118.63681641 -33.84765625 117.24609375 C-36.13698785 108.73829862 -36.28809829 100.46190032 -36.3125 91.6875 C-36.31789795 90.48303223 -36.3232959 89.27856445 -36.32885742 88.03759766 C-36.25604997 78.89424769 -36.04933229 70.35729603 -30 63 C-28.86797877 62.04586782 -27.72101874 61.10927796 -26.5625 60.1875 C-21.19339153 55.65152905 -18.17554747 51.10095773 -17.51953125 43.9921875 C-17.09202575 35.64977631 -17.38663218 27.66119648 -23 21 C-30.18320994 14.71174736 -36.66748286 11.60394184 -46.25 11.625 C-47.00708252 11.62661133 -47.76416504 11.62822266 -48.54418945 11.62988281 C-54.4452213 11.75922745 -58.96861837 12.79318534 -64 16 C-65.03125 16.61875 -66.0625 17.2375 -67.125 17.875 C-68.07375 18.57625 -69.0225 19.2775 -70 20 C-70.77730469 20.55880859 -70.77730469 20.55880859 -71.5703125 21.12890625 C-95.17260148 39.51673604 -105.17975052 74.42940883 -112.375 102.125 C-112.54480377 102.77849426 -112.71460754 103.43198853 -112.88955688 104.10528564 C-114.79034866 111.48986927 -116.38312446 118.83514258 -117.55712891 126.36865234 C-118.15306477 129.9094444 -119.04888068 133.28733124 -120 136.75 C-121.77160753 143.46727733 -122.78872804 150.08360289 -123.5078125 156.98828125 C-123.83786081 160.00173059 -124.35916668 162.93974764 -124.94091797 165.91455078 C-126.12615691 172.37340528 -126.80731479 178.84564288 -127.4375 185.37890625 C-127.62522476 187.28368492 -127.62522476 187.28368492 -127.81674194 189.22694397 C-128.21980169 193.33798423 -128.61046745 197.45015966 -129 201.5625 C-129.06677193 202.26261955 -129.13354385 202.96273911 -129.20233917 203.6840744 C-130.94686664 221.97826648 -132.54074589 240.26242726 -133.375 258.625 C-133.41238281 259.42922394 -133.44976563 260.23344788 -133.48828125 261.06204224 C-134.03989702 273.37491701 -134.06859034 285.67660248 -134 298 C-133.56555573 297.53254364 -133.13111145 297.06508728 -132.6835022 296.58346558 C-90.3340357 251.03773013 -90.3340357 251.03773013 -66 246 C-65.22140625 245.81953125 -64.4428125 245.6390625 -63.640625 245.453125 C-50.26483499 243.15787109 -36.44812865 245.71649507 -25 253 C-16.35268283 259.1823045 -11.61443616 266.67105558 -7 276 C-6.64035156 276.72058594 -6.28070312 277.44117188 -5.91015625 278.18359375 C4.96747631 303.34826608 -2.06623726 338.20894046 -11 363 C-20.07582416 385.42333623 -33.42313045 405.86160993 -49.796875 423.609375 C-51.26657468 425.20415551 -52.71472542 426.8190649 -54.140625 428.453125 C-74.7414416 452.01808787 -101.37353174 469.98325197 -128 486 C-128.78793945 486.4758252 -129.57587891 486.95165039 -130.38769531 487.44189453 C-134.58347185 489.97538036 -138.78689783 492.49543696 -143 495 C-143 492 -143 492 -141.78515625 490.5625 C-141.21667969 490.046875 -140.64820313 489.53125 -140.0625 489 C-135.75609736 484.86550965 -132.08034184 480.33453134 -128.35107422 475.68066406 C-126.29248583 473.11989022 -124.2147116 470.57481687 -122.1394043 468.02758789 C-119.42108855 464.68925751 -116.71003365 461.34505502 -114 458 C-113.30132813 457.13761719 -112.60265625 456.27523438 -111.8828125 455.38671875 C-109.90907297 452.93436856 -107.95218792 450.46955221 -106 448 C-105.49887695 447.36900391 -104.99775391 446.73800781 -104.48144531 446.08789062 C-96.2215742 435.66891875 -88.27319442 425.13396543 -81 414 C-80.48050781 413.20754883 -79.96101563 412.41509766 -79.42578125 411.59863281 C-68.11479925 394.2090055 -57.89957875 376.57464308 -54 356 C-53.34 356 -52.68 356 -52 356 C-51.42614247 337.74564247 -51.42614247 337.74564247 -59.65234375 322.30859375 C-65.39756593 317.85088436 -72.058638 318.12918981 -79 319 C-95.855877 322.69710434 -107.33163169 340.7129924 -116.609375 354.02246094 C-119.64627275 358.34108309 -122.77359873 362.5955566 -125.87939453 366.86474609 C-128.92437705 371.06895409 -131.90925005 375.30618975 -134.8359375 379.59375 C-135.46854492 380.51591309 -136.10115234 381.43807617 -136.75292969 382.38818359 C-137.98358841 384.18730778 -139.20587084 385.99219558 -140.41894531 387.80322266 C-140.97420898 388.6132373 -141.52947266 389.42325195 -142.1015625 390.2578125 C-142.83366943 391.34280029 -142.83366943 391.34280029 -143.58056641 392.44970703 C-144.04897949 392.96130371 -144.51739258 393.47290039 -145 394 C-145.99 394 -146.98 394 -148 394 C-148.11891602 392.90896973 -148.11891602 392.90896973 -148.24023438 391.79589844 C-150.3665204 372.62995564 -153.02451736 353.56172689 -155.9375 334.5 C-156.10040527 333.4214978 -156.26331055 332.34299561 -156.43115234 331.23181152 C-158.23555728 319.32174351 -160.21268965 307.46243088 -162.55078125 295.64453125 C-162.74623032 294.6496167 -162.94167938 293.65470215 -163.14305115 292.62963867 C-167.89051595 269.2099445 -175.97156232 246.49756635 -190 227 C-190.69609375 226.02675781 -191.3921875 225.05351562 -192.109375 224.05078125 C-203.07203709 209.70729819 -218.02741731 200.42058484 -236 198 C-240.12758508 197.68839289 -244.2364452 197.58670953 -248.375 197.5625 C-249.87160156 197.54751465 -249.87160156 197.54751465 -251.3984375 197.53222656 C-267.26890343 197.71688956 -281.81898291 204.86703886 -293 216 C-306.52792282 230.92912887 -312.76498814 249.63884776 -317 269 C-317.18014648 269.81178711 -317.36029297 270.62357422 -317.54589844 271.45996094 C-322.52590761 294.52289672 -324.09319918 318.35898713 -324.7890625 341.8984375 C-324.95435225 346.96019291 -325.42989588 351.96927124 -326 357 C-329.9381544 352.47252558 -332.7554258 347.45273246 -335.6875 342.25 C-336.48305298 340.84391479 -336.48305298 340.84391479 -337.29467773 339.40942383 C-338.87142559 336.61083307 -340.43823842 333.8069775 -342 331 C-342.41475586 330.2560498 -342.82951172 329.51209961 -343.25683594 328.74560547 C-357.8179283 302.44471025 -369.93620868 273.99739358 -378 245 C-378.34289062 243.78957031 -378.68578125 242.57914063 -379.0390625 241.33203125 C-380.13222975 237.23891265 -381.09597077 233.13811236 -382 229 C-382.18481934 228.18192871 -382.36963867 227.36385742 -382.56005859 226.52099609 C-388.88382745 197.63299186 -389.83704916 161.60741245 -378 134 C-377.73203613 133.36578125 -377.46407227 132.7315625 -377.18798828 132.078125 C-370.9764586 117.56551915 -362.94668528 105.46229002 -352 94 C-351.4121875 93.33742188 -350.824375 92.67484375 -350.21875 91.9921875 C-331.21711232 71.40708002 -302.06195653 61.11790885 -274.64648438 59.89501953 C-245.00627106 58.92901258 -217.23038208 65.79006038 -194.625 85.5 C-193.06457155 86.98047261 -191.52229004 88.48033913 -190 90 C-189.24332031 90.74507813 -188.48664063 91.49015625 -187.70703125 92.2578125 C-165.21709536 115.71547369 -159.83620615 149.4818254 -153 180 C-152.9498877 178.9577124 -152.89977539 177.9154248 -152.84814453 176.84155273 C-152.6569066 172.89932757 -152.45727819 168.95756104 -152.25537109 165.01586914 C-152.16982053 163.3239225 -152.08641523 161.63186575 -152.00537109 159.93969727 C-151.48864667 149.18736379 -150.61092244 138.6518606 -149 128 C-148.8551416 126.96979736 -148.7102832 125.93959473 -148.56103516 124.87817383 C-146.64697279 111.40081835 -144.01613378 98.67533806 -139 86 C-138.73316406 85.32565918 -138.46632813 84.65131836 -138.19140625 83.95654297 C-128.90624596 60.94911529 -116.35562283 40.76399043 -99 23 C-98.4121875 22.3503125 -97.824375 21.700625 -97.21875 21.03125 C-73.10497829 -5.05099287 -32.90025029 -16.45012515 0 0 Z " fill="#3BB543" transform="translate(664,118)"/>
<path d="M0 0 C3.28802253 2.76492803 6.50931619 5.51750666 9.57421875 8.53125 C18.03851306 16.75304747 30.88897645 27.64270496 43.1875 28.125 C49.01614411 29.4627216 52.58304113 33.10697469 57 37 C57.81726563 37.68449219 58.63453125 38.36898437 59.4765625 39.07421875 C84.37315751 60.45367574 98.47698208 91.51078344 101 124 C101.16678604 127.6053231 101.23220522 131.20764525 101.2734375 134.81640625 C101.28592026 135.82286697 101.29840302 136.8293277 101.31126404 137.86628723 C101.71130688 177.78271921 101.71130688 177.78271921 96.70556641 195.484375 C95.97737047 198.08068326 95.34574974 200.6873011 94.73046875 203.3125 C92.64468414 212.02706821 90.01880704 219.96238592 86 228 C85.53980469 229.08667969 85.07960938 230.17335938 84.60546875 231.29296875 C77.36105177 248.35728934 66.92908011 262.92636616 55 277 C54.39414062 277.72960937 53.78828125 278.45921875 53.1640625 279.2109375 C49.13639509 283.96759449 44.76358707 287.99443768 40 292 C39.07574219 292.81210937 38.15148437 293.62421875 37.19921875 294.4609375 C4.28158135 323.22977771 -36.39612298 341.7597361 -77.1875 356.4375 C-78.434245 356.88681885 -78.434245 356.88681885 -79.70617676 357.34521484 C-91.62154363 361.62146766 -103.53755708 365.39947748 -115.83305359 368.45179749 C-118.96681605 369.24458888 -122.08657227 370.08706768 -125.20733643 370.92936707 C-128.91216543 371.92930161 -132.62027298 372.91686143 -136.328125 373.90551758 C-138.28406851 374.42898742 -140.2391448 374.95570789 -142.19335938 375.4855957 C-145.02763763 376.25325228 -147.86494888 377.00862045 -150.703125 377.76171875 C-152.01256073 378.12096687 -152.01256073 378.12096687 -153.34844971 378.48747253 C-154.57057159 378.80824516 -154.57057159 378.80824516 -155.81738281 379.13549805 C-156.53049622 379.32710007 -157.24360962 379.51870209 -157.97833252 379.71611023 C-160.25884112 380.03634739 -161.82156529 379.69419682 -164 379 C-163.030625 378.5875 -162.06125 378.175 -161.0625 377.75 C-152.05934549 373.88582427 -143.2721836 369.7242236 -134.54199219 365.28271484 C-131.54897468 363.77240809 -128.54453395 362.28614933 -125.5390625 360.80078125 C-103.39980982 349.84375854 -81.85052778 338.27715979 -61 325 C-60.15695312 324.46761719 -59.31390625 323.93523437 -58.4453125 323.38671875 C-41.29259132 312.54092121 -24.81515889 300.94486075 -9.63525391 287.4465332 C-8.46752856 286.41357222 -7.29179618 285.38963411 -6.11083984 284.37182617 C4.82131559 274.93429097 15.49895278 264.70994054 24 253 C24.43731445 252.41202637 24.87462891 251.82405273 25.32519531 251.21826172 C36.93816228 235.57290696 46.19285932 219.2675476 53 201 C53.67482422 199.22302734 53.67482422 199.22302734 54.36328125 197.41015625 C58.35929934 186.21388267 60.74741398 174.65288453 63 163 C63.25007812 161.71480469 63.50015625 160.42960938 63.7578125 159.10546875 C69.08928421 126.25309026 63.34405213 95.55174889 43.8984375 68.5390625 C41.29259095 65.05387678 38.63867814 61.60679663 35.9753418 58.16552734 C24.63242373 43.49197224 14.36900391 28.52142354 5.4375 12.25 C4.9000415 11.27216553 4.36258301 10.29433105 3.80883789 9.28686523 C3.31375732 8.37235596 2.81867676 7.45784668 2.30859375 6.515625 C1.86314209 5.69352539 1.41769043 4.87142578 0.95874023 4.02441406 C0 2 0 2 0 0 Z " fill="#F0BC19" transform="translate(642,264)"/>
<path d="M0 0 C10.66429232 -0.66344676 22.14669523 0.67621088 31 7 C31.60328125 7.42023437 32.2065625 7.84046875 32.828125 8.2734375 C38.29770939 12.43307941 41.36659982 17.65843738 42.36547852 24.50512695 C42.49967599 27.12059819 42.50463904 29.69455713 42.4375 32.3125 C42.42138672 33.2411084 42.40527344 34.1697168 42.38867188 35.12646484 C41.98006451 49.37041802 36.6848169 61.13893538 31 74 C26.43741739 74.19926942 22.84943253 73.54415711 18.5 72.1875 C-5.22574001 65.2210079 -24.78995951 64.5464776 -47.203125 76.08203125 C-55.98918628 80.93501004 -63.64796352 87.21275249 -71 94 C-71.89589844 94.825 -72.79179688 95.65 -73.71484375 96.5 C-82.23019985 104.68733776 -88.87352641 114.20525987 -95.4921875 123.94140625 C-96.87158802 125.82468106 -98.29998168 127.40686906 -100 129 C-100.78375 128.360625 -101.5675 127.72125 -102.375 127.0625 C-106.89612486 123.51018761 -110.37550852 123.38192401 -116 124 C-119.23191778 124.9495546 -122.05724702 126.37323061 -125 128 C-125.84304688 128.46277344 -126.68609375 128.92554688 -127.5546875 129.40234375 C-134.69135549 133.63262956 -140.49583134 138.9081363 -146.4453125 144.62109375 C-149 147 -149 147 -150 147 C-150.56422265 123.08322858 -150.0141341 94.16422591 -132.640625 75.46484375 C-123.95949125 67.71383147 -115.39520987 67.47392165 -104.23632812 67.84179688 C-99.75551368 68.15878025 -95.49019391 69.20837544 -91.1484375 70.34375 C-86.77357971 71.25563103 -82.68887753 71.77948194 -78.5625 69.875 C-76.75091093 68.02981043 -76.75091093 68.02981043 -76.5625 65.125 C-77.08557929 61.38871937 -77.50436383 59.86264149 -80 57 C-92.2515924 48.8792127 -106.86360523 49.52613418 -121 49 C-111.90693026 38.03763682 -99.59529405 27.47131473 -85 25 C-71.93512405 23.96094207 -61.59988972 26.92907595 -50.16796875 33.02734375 C-47.36304058 34.28577098 -45.02997627 34.39868109 -42 34 C-42.2683014 30.1543466 -42.70596285 28.34304334 -45.25 25.375 C-54.55632196 17.33772194 -63.57805627 13.2689791 -76 13 C-71.05886575 7.00005127 -64.32013328 2.63200165 -56.52148438 1.70556641 C-40.22885252 0.7692422 -26.37636224 3.22443215 -13.25 13.75 C-9.42855818 17.26648886 -6.29610767 21.42435907 -3.11328125 25.51171875 C-1.17252306 27.79686287 0.42466214 29.481211 3 31 C4.32 31 5.64 31 7 31 C9.69307537 25.61384927 8.00302408 19.36156273 6.25 13.9375 C4.50739018 9.07686332 2.44647679 4.54345689 0 0 Z " fill="#EB615C" transform="translate(639,45)"/>
<path d="M0 0 C5.61 0 11.22 0 17 0 C18.62550785 3.08306655 20.25042568 6.16644159 21.875 9.25 C22.33519531 10.12269531 22.79539063 10.99539063 23.26953125 11.89453125 C23.71425781 12.73886719 24.15898437 13.58320312 24.6171875 14.453125 C25.02565918 15.22817383 25.43413086 16.00322266 25.85498047 16.80175781 C26.23283691 17.52717773 26.61069336 18.25259766 27 19 C27.56871826 20.03785645 27.56871826 20.03785645 28.14892578 21.09667969 C29 23 29 23 29 26 C29.66 26 30.32 26 31 26 C35.455 35.405 35.455 35.405 40 45 C43.93420265 37.84690428 47.72869634 30.67259157 51.296875 23.33203125 C55.21912707 15.35045917 59.53945029 7.69060295 64 0 C69.61 0 75.22 0 81 0 C81 27.72 81 55.44 81 84 C76.38 84 71.76 84 67 84 C66.67 64.53 66.34 45.06 66 25 C58.74 39.52 51.48 54.04 44 69 C42.02 69 40.04 69 38 69 C36.12890625 66.8671875 36.12890625 66.8671875 34.5625 63.875 C33.97339844 62.77285156 33.38429687 61.67070313 32.77734375 60.53515625 C32.19082031 59.36855469 31.60429687 58.20195313 31 57 C30.44441406 55.90558594 29.88882813 54.81117188 29.31640625 53.68359375 C27.5325548 50.12825009 25.7667148 46.5638902 24 43 C19.545 34.585 19.545 34.585 15 26 C14.67 45.14 14.34 64.28 14 84 C9.38 84 4.76 84 0 84 C0 56.28 0 28.56 0 0 Z " fill="#F8F7F7" transform="translate(142,699)"/>
<path d="M0 0 C5.855086 4.66352464 10.47322613 10.32590814 11.52856445 17.95727539 C11.66474696 20.34211161 11.6938382 22.69744959 11.6640625 25.0859375 C11.65721436 25.92535889 11.65036621 26.76478027 11.64331055 27.62963867 C11.40399001 36.87709174 9.06875887 44.23533874 2.2265625 50.7734375 C-4.43927205 55.94425977 -10.51116155 56.63783322 -18.7734375 55.7734375 C-22.94506283 55.0982225 -26.20779623 54.15053168 -29.7734375 51.7734375 C-29.79849365 52.5255249 -29.8235498 53.2776123 -29.84936523 54.05249023 C-29.96494264 57.43882946 -30.08784095 60.82486363 -30.2109375 64.2109375 C-30.25025391 65.39494141 -30.28957031 66.57894531 -30.33007812 67.79882812 C-30.37197266 68.92353516 -30.41386719 70.04824219 -30.45703125 71.20703125 C-30.51201782 72.77022095 -30.51201782 72.77022095 -30.56811523 74.36499023 C-30.7734375 76.7734375 -30.7734375 76.7734375 -31.7734375 77.7734375 C-36.0634375 77.7734375 -40.3534375 77.7734375 -44.7734375 77.7734375 C-44.7734375 51.0434375 -44.7734375 24.3134375 -44.7734375 -3.2265625 C-40.1534375 -3.2265625 -35.5334375 -3.2265625 -30.7734375 -3.2265625 C-30.4434375 -1.9065625 -30.1134375 -0.5865625 -29.7734375 0.7734375 C-28.8865625 0.1340625 -27.9996875 -0.5053125 -27.0859375 -1.1640625 C-18.45141158 -6.54027676 -8.21423345 -5.55438643 0 0 Z " fill="#F5F5F5" transform="translate(889.7734375,728.2265625)"/>
<path d="M0 0 C0.80759766 -0.01611328 1.61519531 -0.03222656 2.44726562 -0.04882812 C11.16987433 -0.05585682 17.74425092 2.66424642 24.5078125 8.140625 C28.58597557 12.45138293 31.5625 18.32404256 31.5625 24.3125 C26.51247778 25.34840199 21.68833611 25.41501672 16.5625 25.3125 C16.35496094 24.78140625 16.14742187 24.2503125 15.93359375 23.703125 C14.02915012 19.33645089 12.2450674 16.11032958 7.75390625 13.9375 C2.57543055 12.46057288 -3.47557913 12.06625782 -8.5078125 14.18359375 C-10.32941076 15.3847926 -11.89475143 16.76975143 -13.4375 18.3125 C-14.15060296 24.00704636 -14.15060296 24.00704636 -11.54296875 28.89453125 C-7.39954799 32.1206664 -3.41742388 33.02814764 1.625 34.25 C24.89379325 40.39749347 24.89379325 40.39749347 31.15234375 51.0078125 C33.86059412 57.35457098 33.89564465 65.29455016 31.71875 71.85546875 C27.55469006 79.12850587 20.26671179 83.55061276 12.5625 86.3125 C1.30101775 89.00837266 -9.22773459 87.70478897 -19.4375 82.3125 C-25.99233761 78.13352586 -29.87745294 72.63207118 -32.4375 65.3125 C-32.75 61.6875 -32.75 61.6875 -32.4375 59.3125 C-29.12679162 58.31140485 -26.13665231 58.20893866 -22.6875 58.25 C-21.70265625 58.25902344 -20.7178125 58.26804687 -19.703125 58.27734375 C-18.58164062 58.29474609 -18.58164062 58.29474609 -17.4375 58.3125 C-17.10878906 59.32570313 -17.10878906 59.32570313 -16.7734375 60.359375 C-14.71720173 66.14358293 -13.23625145 69.5339316 -7.4375 72.3125 C0.03224506 74.56112428 6.75962353 73.7384835 13.75 70.48046875 C15.86828825 69.28600974 15.86828825 69.28600974 17.5625 66.3125 C18.07758332 61.75033343 18.28161235 59.4843868 15.875 55.5625 C11.38814957 51.80256947 5.07457921 50.81683828 -0.4375 49.3125 C-21.55912162 43.4847973 -21.55912162 43.4847973 -26.875 34.625 C-29.93535992 28.13703698 -31.06179753 20.88937575 -28.6015625 13.95703125 C-25.09171027 7.86779097 -19.85199168 3.54609564 -13.26953125 1.16796875 C-8.76183323 0.16166308 -4.60098657 -0.01827239 0 0 Z " fill="#F6F5F5" transform="translate(628.4375,697.6875)"/>
<path d="M0 0 C3.6166216 1.73863277 5.28661603 2.79125218 7.56640625 6.2109375 C10.1008731 5.04118357 12.25332346 3.73868192 14.56640625 2.1484375 C19.65267595 -1.13644502 24.62625818 -1.34186816 30.56640625 -0.7890625 C36.40766659 1.06066994 40.64149931 3.77945445 43.69091797 9.21557617 C45.00736702 13.71962341 44.81086008 18.09451532 44.76171875 22.76171875 C44.75888885 23.77566208 44.75605896 24.78960541 44.75314331 25.83427429 C44.7419725 29.06411677 44.71687336 32.29367921 44.69140625 35.5234375 C44.68137245 37.71679286 44.6722473 39.91015258 44.6640625 42.10351562 C44.64204326 47.4727637 44.6075345 52.84180316 44.56640625 58.2109375 C39.94640625 58.2109375 35.32640625 58.2109375 30.56640625 58.2109375 C30.55706055 56.92405029 30.54771484 55.63716309 30.53808594 54.3112793 C30.4982481 49.54188269 30.43250676 44.77313538 30.35888672 40.00415039 C30.33064103 37.939131 30.30944447 35.87400276 30.29541016 33.80883789 C30.27403041 30.84204235 30.22740616 27.8765604 30.17578125 24.91015625 C30.17455261 23.9850676 30.17332397 23.05997894 30.17205811 22.1068573 C30.18685887 17.1815212 30.18685887 17.1815212 27.74316406 13.12817383 C24.51264494 11.76690641 22.03445421 11.84587982 18.56640625 12.2109375 C15.02770685 13.86233055 13.75570472 14.92698979 11.56640625 18.2109375 C11.24180468 20.12541802 11.24180468 20.12541802 11.24755859 22.22338867 C11.2276889 23.02399216 11.20781921 23.82459564 11.18734741 24.64945984 C11.1700206 25.93866081 11.1700206 25.93866081 11.15234375 27.25390625 C11.1329776 28.1375032 11.11361145 29.02110016 11.09365845 29.93147278 C11.0338782 32.75369616 10.98748359 35.57596036 10.94140625 38.3984375 C10.90322503 40.31186675 10.86417321 42.22527883 10.82421875 44.13867188 C10.72817793 48.82928771 10.64414115 53.51998402 10.56640625 58.2109375 C5.94640625 58.2109375 1.32640625 58.2109375 -3.43359375 58.2109375 C-3.44817627 56.95958008 -3.46275879 55.70822266 -3.4777832 54.41894531 C-3.53577302 49.77444947 -3.61300605 45.13043811 -3.69604492 40.48632812 C-3.72929101 38.47664251 -3.75732394 36.46686359 -3.7800293 34.45703125 C-3.81358097 31.56730403 -3.86589712 28.67843157 -3.921875 25.7890625 C-3.92826492 24.89100891 -3.93465485 23.99295532 -3.9412384 23.06768799 C-4.02593869 19.47084554 -4.09344198 16.88597731 -5.72729492 13.64355469 C-8.11094061 11.64223362 -10.33107037 11.66535515 -13.36328125 11.81640625 C-16.71345072 12.45483477 -18.8766401 14.02817219 -21.43359375 16.2109375 C-22.74279878 20.1385526 -22.66822243 23.93664381 -22.75 28.03515625 C-22.7707811 28.89655716 -22.79156219 29.75795807 -22.81297302 30.64546204 C-22.87834284 33.39637294 -22.93729507 36.14737906 -22.99609375 38.8984375 C-23.03929092 40.76368171 -23.0829056 42.6289163 -23.12695312 44.49414062 C-23.23401138 49.06630874 -23.33531429 53.6385726 -23.43359375 58.2109375 C-28.05359375 58.2109375 -32.67359375 58.2109375 -37.43359375 58.2109375 C-37.43359375 39.0709375 -37.43359375 19.9309375 -37.43359375 0.2109375 C-33.14359375 0.2109375 -28.85359375 0.2109375 -24.43359375 0.2109375 C-24.43359375 2.1909375 -24.43359375 4.1709375 -24.43359375 6.2109375 C-23.80710937 5.78941406 -23.180625 5.36789062 -22.53515625 4.93359375 C-21.71789062 4.38574219 -20.900625 3.83789062 -20.05859375 3.2734375 C-19.24648438 2.72816406 -18.434375 2.18289063 -17.59765625 1.62109375 C-12.32283468 -1.81610948 -5.98235689 -1.9397048 0 0 Z " fill="#F5F5F5" transform="translate(453.43359375,724.7890625)"/>
<path d="M0 0 C0.78632812 -0.020625 1.57265625 -0.04125 2.3828125 -0.0625 C9.98265189 -0.11299727 15.60623868 1.91978097 21.25 7.25 C24.33286673 11.65409532 25.3791817 15.32822176 25.36352539 20.65136719 C25.36344986 21.5119574 25.36337433 22.37254761 25.36329651 23.25921631 C25.35813522 24.17914368 25.35297394 25.09907104 25.34765625 26.046875 C25.3462413 26.99564514 25.34482635 27.94441528 25.34336853 28.92193604 C25.33777742 31.94798962 25.32522652 34.97396883 25.3125 38 C25.30748385 40.05338435 25.30292115 42.10676986 25.29882812 44.16015625 C25.28781089 49.19013276 25.27055233 54.22005378 25.25 59.25 C20.63 59.25 16.01 59.25 11.25 59.25 C10.92 57.6 10.59 55.95 10.25 54.25 C9.198125 55.178125 9.198125 55.178125 8.125 56.125 C1.5432181 60.98979532 -5.84674187 61.06549543 -13.75 60.25 C-18.25665768 58.11526742 -20.9241532 55.33177871 -23.75 51.25 C-25.66195041 45.51414876 -25.68372472 39.44222325 -23.3125 33.875 C-15.19942283 25.5640429 -3.8619844 23.89709952 7.25 22.25 C8.24 22.25 9.23 22.25 10.25 22.25 C10.0953125 20.331875 10.0953125 20.331875 9.9375 18.375 C9.85048828 17.29605469 9.85048828 17.29605469 9.76171875 16.1953125 C9.37606964 13.85480784 9.37606964 13.85480784 6.25 12.25 C2.53229564 11.70327877 -1.03299158 11.69570927 -4.75 12.25 C-7.90222575 14.47990529 -7.90222575 14.47990529 -9.75 17.25 C-10.75 18.25 -10.75 18.25 -13.69140625 18.34765625 C-14.88636719 18.33605469 -16.08132813 18.32445312 -17.3125 18.3125 C-19.10880859 18.29896484 -19.10880859 18.29896484 -20.94140625 18.28515625 C-21.86824219 18.27355469 -22.79507812 18.26195312 -23.75 18.25 C-22.43057326 10.57921512 -17.95352319 5.66875085 -11.75 1.25 C-7.83316136 -0.05561288 -4.08317352 0.02625835 0 0 Z " fill="#F4F4F4" transform="translate(532.75,723.75)"/>
<path d="M0 0 C0.75587402 0.01160156 1.51174805 0.02320313 2.29052734 0.03515625 C10.00807502 0.26229031 15.02070635 1.37916717 20.5625 7.1875 C25.548373 12.87752818 24.76425909 19.99283067 24.72265625 27.1484375 C24.7212413 28.0721817 24.71982635 28.9959259 24.71836853 29.94766235 C24.71279609 32.88180862 24.70024869 35.81587701 24.6875 38.75 C24.68248144 40.74609264 24.67791915 42.74218649 24.67382812 44.73828125 C24.66283569 49.61721725 24.6455901 54.49609545 24.625 59.375 C20.335 59.375 16.045 59.375 11.625 59.375 C11.295 57.725 10.965 56.075 10.625 54.375 C10.07070313 54.72433594 9.51640625 55.07367187 8.9453125 55.43359375 C8.22085938 55.88863281 7.49640625 56.34367188 6.75 56.8125 C6.03070312 57.26496094 5.31140625 57.71742188 4.5703125 58.18359375 C0.7002044 60.55384068 -2.05376366 60.60234952 -6.625 60.6875 C-7.92953125 60.72488281 -9.2340625 60.76226563 -10.578125 60.80078125 C-16.040691 60.18820955 -18.99021001 57.79623183 -22.75 53.9375 C-25.24218343 48.4738671 -25.1045706 43.27925695 -24.375 37.375 C-22.05724868 32.09052699 -18.50054587 29.7118945 -13.375 27.375 C-9.83404083 26.25188404 -6.25102028 25.42463554 -2.625 24.625 C-1.68011719 24.40457031 -0.73523438 24.18414063 0.23828125 23.95703125 C7.14615683 22.375 7.14615683 22.375 10.625 22.375 C10.4291602 17.53694753 10.4291602 17.53694753 7.88671875 13.67578125 C3.96960452 11.42293317 0.00035327 11.59621544 -4.375 12.375 C-7.19924288 14.56522918 -8.79008603 16.20517207 -10.375 19.375 C-11.79155793 19.4022415 -13.20827045 19.42150467 -14.625 19.4375 C-15.80835938 19.45490234 -15.80835938 19.45490234 -17.015625 19.47265625 C-19.28191002 19.37885306 -21.2038895 19.00741063 -23.375 18.375 C-23.375 12.54541952 -20.34660798 9.55278838 -16.67578125 5.42578125 C-11.42065443 0.7416699 -6.76921468 -0.13170261 0 0 Z " fill="#F5F5F5" transform="translate(758.375,723.625)"/>
<path d="M0 0 C4.62 0 9.24 0 14 0 C14 10.56 14 21.12 14 32 C14.66 32 15.32 32 16 32 C16 31.34 16 30.68 16 30 C23.38367395 24.89523776 29.42058228 23.80164721 38.23046875 25.40625 C44.04584249 27.11599238 47.60361876 31.11708667 51 36 C51.94337376 38.83012127 52.12172829 40.54299918 52.11352539 43.47143555 C52.11344986 44.37214279 52.11337433 45.27285004 52.11329651 46.20085144 C52.10813522 47.16968765 52.10297394 48.13852386 52.09765625 49.13671875 C52.0962413 50.13129593 52.09482635 51.12587311 52.09336853 52.15058899 C52.08776761 55.32958982 52.07521496 58.50852043 52.0625 61.6875 C52.05748512 63.84179586 52.05292219 65.99609282 52.04882812 68.15039062 C52.03779787 73.43362084 52.02053262 78.71679851 52 84 C47.38 84 42.76 84 38 84 C37.99589111 82.77893555 37.99178223 81.55787109 37.98754883 80.29980469 C37.96576784 75.76698666 37.91148906 71.23503798 37.84741211 66.70263672 C37.82422305 64.74145849 37.80983426 62.78015557 37.80444336 60.81884766 C37.79516032 57.99823217 37.75418541 55.17958028 37.70703125 52.359375 C37.7109639 51.48319519 37.71489655 50.60701538 37.71894836 49.70428467 C37.62041994 44.54200901 37.62041994 44.54200901 34.59619141 40.44604492 C30.62646983 38.23496152 27.42145726 38.34612252 23 39 C18.93337338 40.55271198 17.42480398 41.36279402 15 45 C14.75855837 47.96884465 14.62692903 50.851868 14.5859375 53.82421875 C14.56657135 54.68561966 14.5472052 55.54702057 14.5272522 56.43452454 C14.4674797 59.18541568 14.42108052 61.93634873 14.375 64.6875 C14.33681806 66.55275261 14.2977662 68.41798763 14.2578125 70.28320312 C14.1617801 74.85532586 14.0777405 79.42753114 14 84 C9.38 84 4.76 84 0 84 C0 56.28 0 28.56 0 0 Z " fill="#F4F4F4" transform="translate(671,699)"/>
<path d="M0 0 C4.62 0 9.24 0 14 0 C14.33 16.17 14.66 32.34 15 49 C22.21307975 40.99573887 22.21307975 40.99573887 29.296875 32.88671875 C29.85890625 32.26410156 30.4209375 31.64148438 31 31 C31.71027344 30.10539063 32.42054688 29.21078125 33.15234375 28.2890625 C37.08087498 25.13114851 39.9378142 25.42190522 44.8125 25.6875 C45.60076172 25.71005859 46.38902344 25.73261719 47.20117188 25.75585938 C49.13493929 25.81445839 51.06772167 25.90413173 53 26 C48.67657827 31.11494048 44.21200084 36.05842499 39.625 40.9375 C38.98433594 41.62134766 38.34367187 42.30519531 37.68359375 43.00976562 C36.12370973 44.67441797 34.56249827 46.3378019 33 48 C34.33003971 50.73509168 35.76820943 53.34765373 37.35546875 55.94140625 C37.81002441 56.68511475 38.26458008 57.42882324 38.73291016 58.19506836 C39.2129248 58.9763208 39.69293945 59.75757324 40.1875 60.5625 C40.67782715 61.36373291 41.1681543 62.16496582 41.67333984 62.99047852 C44.96314334 68.35302028 48.31372023 73.66858188 51.7578125 78.93359375 C53 81 53 81 54 84 C48.58349741 85.45612472 43.22281887 86.56259268 38 84 C32.47375044 78.01269002 28.91219049 70.38546611 25.37182617 63.11132812 C24.91912354 62.41458984 24.4664209 61.71785156 24 61 C20.4788992 61 18.90784284 62.00570595 16.28808594 64.30224609 C13.80295325 67.57776026 14.11247497 71.34519692 14.125 75.3125 C14.104375 76.14845703 14.08375 76.98441406 14.0625 77.84570312 C14.01561995 79.8967055 14.00426071 81.94846635 14 84 C9.38 84 4.76 84 0 84 C0 56.28 0 28.56 0 0 Z " fill="#F5F5F5" transform="translate(237,699)"/>
<path d="M0 0 C4.50940493 2.25470246 6.81285646 4.50037517 9 9 C10.26219345 18.94972312 9.20187436 27.88334745 3.45703125 36.24609375 C-1.12100852 41.95554838 -6.15500657 44.71833552 -13 47 C-14.62085223 47.14285477 -16.24813517 47.22033073 -17.875 47.25 C-18.71804688 47.27578125 -19.56109375 47.3015625 -20.4296875 47.328125 C-23 47 -23 47 -28 44 C-28.33 47.96 -28.66 51.92 -29 56 C-27.02 56.66 -25.04 57.32 -23 58 C-23 59.32 -23 60.64 -23 62 C-30.92 62 -38.84 62 -47 62 C-47 60.68 -47 59.36 -47 58 C-44.69 57.34 -42.38 56.68 -40 56 C-38.60936617 50.48726697 -37.22195667 44.97373573 -35.83740234 39.45947266 C-35.3669126 37.58751039 -34.89557482 35.71576104 -34.42333984 33.84423828 C-33.74087716 31.1389158 -33.06156759 28.43281728 -32.3828125 25.7265625 C-32.17439728 24.90322418 -31.96598206 24.07988586 -31.75125122 23.2315979 C-30.32291261 17.519322 -29.10833853 11.78265661 -28 6 C-31.19826732 7.48531632 -32.61085593 8.46379358 -34.25 11.625 C-34.8275 12.73875 -35.405 13.8525 -36 15 C-36.99 15 -37.98 15 -39 15 C-38.63074596 8.84576594 -37.17122773 6.27296499 -33 2 C-30.6603331 0.83016655 -29.16608473 0.8338759 -26.5625 0.8125 C-25.78003906 0.79832031 -24.99757813 0.78414062 -24.19140625 0.76953125 C-22 1 -22 1 -19 3 C-18.3125 5.125 -18.3125 5.125 -18 7 C-17.51789062 6.57847656 -17.03578125 6.15695312 -16.5390625 5.72265625 C-15.90742187 5.17480469 -15.27578125 4.62695312 -14.625 4.0625 C-13.99851562 3.51722656 -13.37203125 2.97195313 -12.7265625 2.41015625 C-8.84606392 -0.75921024 -4.82341276 -0.58465609 0 0 Z " fill="#E96159" transform="translate(783,848)"/>
<path d="M0 0 C4.62 0 9.24 0 14 0 C14.01458252 1.1552417 14.02916504 2.3104834 14.04418945 3.50073242 C14.10226822 7.79677912 14.1795005 12.09230694 14.26245117 16.38793945 C14.29565549 18.2452755 14.32370141 20.10271137 14.34643555 21.96020508 C14.38006442 24.63405798 14.43238374 27.30699993 14.48828125 29.98046875 C14.49467117 30.80773972 14.5010611 31.63501068 14.50764465 32.48735046 C14.63628977 37.5594894 15.23723318 41.23723318 19 45 C24.67473149 45.62123376 29.14590248 45.23606501 34 42 C37.14619546 38.95593235 37.37788754 36.18762398 37.49235535 31.90557861 C37.49874527 31.11689392 37.50513519 30.32820923 37.51171875 29.515625 C37.52966995 28.70003113 37.54762115 27.88443726 37.56611633 27.04412842 C37.6201802 24.44613777 37.65410182 21.84833042 37.6875 19.25 C37.72067661 17.4856516 37.75516659 15.72132737 37.79101562 13.95703125 C37.8759042 9.63815317 37.94273377 5.31932908 38 1 C42.29 1 46.58 1 51 1 C51 19.81 51 38.62 51 58 C46.71 58 42.42 58 38 58 C37.505 55.03 37.505 55.03 37 52 C36.13375 52.78375 35.2675 53.5675 34.375 54.375 C28.247884 59.39326438 21.677213 59.72531809 14 59 C9.46434928 57.85774973 5.79213157 55.78932142 3 52 C0.14809034 45.57906123 -0.41334255 39.66587261 -0.29296875 32.71484375 C-0.28660149 31.30230064 -0.28660149 31.30230064 -0.28010559 29.86122131 C-0.26346216 26.88634282 -0.22583772 23.91216986 -0.1875 20.9375 C-0.1724346 18.9069109 -0.15874946 16.87631107 -0.14648438 14.84570312 C-0.11360578 9.89686819 -0.0619244 4.94855325 0 0 Z " fill="#F8F8F8" transform="translate(297,725)"/>
<path d="M0 0 C2.88838807 1.40320689 5.44960255 3.05419268 8 5 C8 3.68 8 2.36 8 1 C10.64 1 13.28 1 16 1 C15.2542091 8.03322248 13.32097032 14.74300271 11.5 21.5625 C10.86213292 23.95898454 10.22663298 26.35610065 9.59375 28.75390625 C9.17125977 30.33667358 9.17125977 30.33667358 8.74023438 31.95141602 C8.01077763 34.95561338 7.46868508 37.94525923 7 41 C8.88658874 41.03525132 8.88658874 41.03525132 11 40 C12.59501537 37.75835678 13.74543018 35.46433357 15 33 C16.32 33.33 17.64 33.66 19 34 C18.41273335 37.62963418 16.95905107 39.50169217 14.5 42.1875 C13.55640625 43.22970703 13.55640625 43.22970703 12.59375 44.29296875 C10.07061503 46.99544419 10.07061503 46.99544419 6.125 47.25 C3.54566338 47.20377533 2.27152813 47.15273457 0 45.875 C-1.42098605 43.21065116 -1.19767261 40.96508915 -1 38 C-1.66 38 -2.32 38 -3 38 C-3.25523437 38.60328125 -3.51046875 39.2065625 -3.7734375 39.828125 C-5.87115542 43.54255546 -9.16697834 45.30242274 -13 47 C-16.87741802 47.76836908 -20.06201142 47.3837226 -23.75 45.875 C-27.88642801 42.42797666 -29.66697425 40.24578901 -30.45703125 34.91796875 C-30.8856761 25.87655302 -28.83200338 19.5782499 -24 12 C-23.61714844 11.38382813 -23.23429688 10.76765625 -22.83984375 10.1328125 C-17.77053115 3.11935492 -8.68948298 -2.16071223 0 0 Z " fill="#EB625A" transform="translate(675,848)"/>
<path d="M0 0 C0.74507812 0.05671875 1.49015625 0.1134375 2.2578125 0.171875 C5.37674985 0.51117362 6.73002763 0.73002763 9 3 C11.06874034 3.6425235 11.06874034 3.6425235 13 4 C13.33 2.68 13.66 1.36 14 0 C15.65 0 17.3 0 19 0 C18.01 7.26 17.02 14.52 16 22 C14.35 22 12.7 22 11 22 C10.90203125 21.33613281 10.8040625 20.67226563 10.703125 19.98828125 C9.80323387 14.67426898 9.07111187 10.8316347 5 7 C0.74647137 4.48898835 -3.16710864 4.19869159 -8 5 C-10.9149608 6.32983955 -11.85764475 7.41818727 -14 10 C-14.77467336 13.4860301 -14.76499249 15.56563908 -13.0625 18.7578125 C-9.31545765 23.73156515 -4.27448238 26.32873592 1.08203125 29.31640625 C6.15978244 32.24613954 10.03033483 34.80771353 12.4375 40.25 C14.15384615 51.69230769 14.15384615 51.69230769 11.3125 57.375 C6.60475498 62.71892678 2.45580764 65.64177569 -4.76953125 66.22265625 C-11.31796355 66.41210775 -16.03723217 65.66194992 -22 63 C-23.3270668 62.64253306 -24.65940495 62.30280985 -26 62 C-26.4125 62.66 -26.825 63.32 -27.25 64 C-28.11625 64.99 -28.11625 64.99 -29 66 C-30.32 66 -31.64 66 -33 66 C-32.4533512 57.81911794 -30.82876132 49.98214061 -29 42 C-27.68 42 -26.36 42 -25 42 C-24.84144531 42.72445312 -24.68289063 43.44890625 -24.51953125 44.1953125 C-23.02113811 50.40412387 -21.66136309 54.56602048 -17 59 C-12.55730484 61.70873186 -8.06324936 61.68820865 -3 61 C-0.06576805 59.20353146 1.47205355 58.0558929 3 55 C3.27374623 52.96048644 3.27374623 52.96048644 3.3125 50.6875 C3.34988281 49.92824219 3.38726563 49.16898438 3.42578125 48.38671875 C2.8136064 44.95516983 1.4403443 43.47938981 -1 41 C-3.36915025 39.37290813 -5.8553429 38.0036803 -8.375 36.625 C-14.86142972 32.91424565 -20.5061089 29.48167329 -23 22 C-23.49661614 16.81402495 -23.64900673 12.40185454 -21.4375 7.625 C-14.65613518 0.32199173 -10.03485669 -0.81584201 0 0 Z " fill="#EA6259" transform="translate(567,829)"/>
<path d="M0 0 C-0.74187735 6.57359677 -2.40597931 12.85452335 -4.0625 19.25 C-4.61915657 21.40019746 -5.17269184 23.55120613 -5.72265625 25.703125 C-5.96765869 26.64833008 -6.21266113 27.59353516 -6.46508789 28.56738281 C-7.1073804 31.07321095 -7.1073804 31.07321095 -7 34 C-6.62875 33.278125 -6.2575 32.55625 -5.875 31.8125 C-3.31366022 27.97049033 -0.17964975 25.08982487 4 23 C8.61532025 22.61538998 11.1944073 22.66913157 15.5 24.4375 C18 27 18 27 18.6875 30.75 C18.34741108 36.03445864 16.5926575 40.96793881 14.93164062 45.95800781 C13.06958203 51.56805616 11.83156859 57.14178545 11 63 C13.51103257 62.62545523 14.67649351 62.41636484 16.265625 60.37109375 C16.59046875 59.73300781 16.9153125 59.09492187 17.25 58.4375 C18.11625 56.7359375 18.11625 56.7359375 19 55 C20.32 55.33 21.64 55.66 23 56 C21.67474436 61.06006699 19.65609819 64.25887627 16 68 C12.35684816 70.0551113 9.14775603 70.6177509 5 70 C2.5625 68.0625 2.5625 68.0625 1 65 C0.50587144 57.15570907 3.74182658 49.00883469 6.6875 41.875 C8.28089573 37.80852132 8.23232526 34.3367382 8 30 C4.59064344 29.68285055 2.53161463 29.70761195 -0.5 31.375 C-10.06759756 41.42097744 -13.74043916 55.6480496 -16 69 C-18.97 69 -21.94 69 -25 69 C-24.32594699 61.839281 -22.61227396 55.07803861 -20.8125 48.125 C-17.33156913 34.46282311 -14.11264592 20.75025594 -11 7 C-12.98 7 -14.96 7 -17 7 C-17 5.68 -17 4.36 -17 3 C-14.91798472 2.49453964 -12.83432933 1.99583165 -10.75 1.5 C-9.58984375 1.2215625 -8.4296875 0.943125 -7.234375 0.65625 C-4 0 -4 0 0 0 Z " fill="#E96259" transform="translate(615,825)"/>
<path d="M0 0 C4.62 0 9.24 0 14 0 C14 27.72 14 55.44 14 84 C9.38 84 4.76 84 0 84 C0 56.28 0 28.56 0 0 Z " fill="#F5F5F5" transform="translate(361,699)"/>
<path d="M0 0 C4.62 0 9.24 0 14 0 C14.33 2.31 14.66 4.62 15 7 C15.42667969 6.4946875 15.85335937 5.989375 16.29296875 5.46875 C19.46209075 2.17547683 21.71539547 0.20704802 26.3203125 -0.53515625 C35.09421642 -0.60385572 35.09421642 -0.60385572 39 2 C39.29296875 4.8203125 39.29296875 4.8203125 39.1875 8.125 C39.14689453 9.76855469 39.14689453 9.76855469 39.10546875 11.4453125 C39.07066406 12.28835938 39.03585937 13.13140625 39 14 C35.47503818 15.17498727 32.89269706 14.92361946 29.1875 14.75 C23.2387276 14.59613845 23.2387276 14.59613845 18.1875 17.3125 C14.66129998 21.6446886 14.80282184 25.59796441 14.68359375 30.94921875 C14.66281265 31.72183548 14.64203156 32.49445221 14.62062073 33.29048157 C14.55528962 35.7560648 14.49631685 38.22175361 14.4375 40.6875 C14.39429913 42.36003691 14.35068434 44.03256319 14.30664062 45.70507812 C14.1996251 49.8032775 14.09831143 53.90158296 14 58 C9.38 58 4.76 58 0 58 C0 38.86 0 19.72 0 0 Z " fill="#F4F4F4" transform="translate(796,725)"/>
<path d="M0 0 C2.5654594 2.5654594 2.54046087 4.47686668 3 8 C3.763125 7.236875 4.52625 6.47375 5.3125 5.6875 C6.199375 4.800625 7.08625 3.91375 8 3 C8.44988281 2.46761719 8.89976562 1.93523438 9.36328125 1.38671875 C12.5699692 -1.33016484 16.94923402 -1.12275048 21 -1 C24.10823397 0.33210027 25.49501691 0.99003383 27 4 C27.49475952 10.144594 25.99271367 15.11549226 24.125 20.875 C22.10822074 27.21482763 20.35601863 33.48321143 19 40 C21.74931827 39.31267043 23.53418821 38.64439778 25.22265625 36.30859375 C26.20324656 34.56883675 27.10688055 32.7862389 28 31 C29.32 31.33 30.64 31.66 32 32 C30.93937864 37.3031068 27.82190126 41.05245038 24.1875 44.9375 C20.64605354 46.65763114 17.91997654 46.3733311 14 46 C11.93220118 44.48039469 11.1191382 43.60652173 10.62133789 41.07226562 C10.7259803 35.23335101 11.78336939 30.08667805 13.4375 24.5 C15.24318093 18.29897808 16.4392631 12.44525172 17 6 C13.31317748 5.45782022 12.14095547 5.89687103 9.07421875 8.140625 C-1.54887641 17.42683341 -4.24819233 31.84953448 -7 45 C-9.97 45 -12.94 45 -16 45 C-15.43842319 38.17788177 -14.04720089 32.03951803 -12.0625 25.5 C-10.12799517 19.03282327 -8.39008285 12.60793008 -7 6 C-10.07854135 6.5425801 -10.07854135 6.5425801 -12.265625 8.62890625 C-12.75289063 9.58603516 -12.75289063 9.58603516 -13.25 10.5625 C-13.8275 11.696875 -14.405 12.83125 -15 14 C-15.99 14 -16.98 14 -18 14 C-17.63015313 7.83588545 -16.29761357 5.19994054 -12 1 C-7.85806532 -1.50696046 -4.64106739 -1.05080771 0 0 Z " fill="#E96058" transform="translate(301,849)"/>
<path d="M0 0 C2.46159362 1.70148158 3.91281135 3.41939702 4.55078125 6.359375 C4.7368865 11.00425188 4.30589264 14.67312036 1.08203125 18.19921875 C-5.80647086 22.82608232 -15.61618053 26.62417317 -23.91796875 26.19921875 C-23.80340806 30.97952393 -23.53091032 34.29783408 -20.79296875 38.32421875 C-18.0186977 40.4959551 -18.0186977 40.4959551 -14.54296875 40.26171875 C-10.40565701 39.04905841 -7.51113389 37.57070774 -3.91796875 35.19921875 C-3.58796875 34.53921875 -3.25796875 33.87921875 -2.91796875 33.19921875 C-1.59796875 33.52921875 -0.27796875 33.85921875 1.08203125 34.19921875 C-1.31267829 39.62253153 -5.45858769 42.99685467 -10.73046875 45.57421875 C-21.19591299 47.62626664 -21.19591299 47.62626664 -26.01171875 45.1015625 C-30.78482594 41.30936929 -33.40308319 37.01580798 -34.23046875 30.8828125 C-34.67506324 22.00481628 -31.78515561 15.06264336 -26.10546875 8.32421875 C-19.57578763 1.44191053 -9.60087689 -4.00851276 0 0 Z " fill="#E65E58" transform="translate(420.91796875,848.80078125)"/>
<path d="M0 0 C4.89229073 4.65364241 5.74445344 8.8379541 6 15.375 C5.84209174 21.67553945 4.27484355 26.3449897 0.11328125 31.08984375 C-2.80329736 33.62440199 -5.98165647 33.67793026 -9.6875 33.8125 C-10.60015625 33.86148438 -11.5128125 33.91046875 -12.453125 33.9609375 C-16.7214316 33.21230781 -19.74287453 31.92637031 -22.4375 28.4375 C-23.39926742 24.57754611 -23.28056472 20.89328848 -23.125 16.9375 C-23.12693359 15.90496094 -23.12886719 14.87242187 -23.13085938 13.80859375 C-23.04507915 9.22378885 -22.94392728 6.2691178 -20.52734375 2.30078125 C-14.78505275 -2.818981 -6.84968297 -3.11349226 0 0 Z " fill="#262A31" transform="translate(881.4375,738.5625)"/>
<path d="M0 0 C9.24 0 18.48 0 28 0 C28 1.32 28 2.64 28 4 C26.906875 4.0825 25.81375 4.165 24.6875 4.25 C21.09682931 4.63793686 21.09682931 4.63793686 19.4296875 6.5078125 C17.40123688 10.04374556 16.46398839 13.69744359 15.4375 17.625 C15.11108521 18.83941772 15.11108521 18.83941772 14.77807617 20.07836914 C13.29201915 25.68242905 11.98916115 31.28591373 11 37 C10.62520697 39.04170467 10.25020434 41.08337088 9.875 43.125 C9.58243892 44.74983921 9.29043855 46.37478005 9 48 C8.34 48 7.68 48 7 48 C7 51.3 7 54.6 7 58 C9.64 58.33 12.28 58.66 15 59 C15 60.65 15 62.3 15 64 C5.43 64 -4.14 64 -14 64 C-13.67 62.35 -13.34 60.7 -13 59 C-11.741875 58.855625 -10.48375 58.71125 -9.1875 58.5625 C-6.94262803 58.08447949 -6.94262803 58.08447949 -5 57 C-3.92756272 55.24454577 -3.92756272 55.24454577 -3.390625 53.0703125 C-3.1536792 52.25989502 -2.9167334 51.44947754 -2.67260742 50.61450195 C-1.5369155 46.19993759 -0.52059435 41.76875281 0.4375 37.3125 C2.10460148 29.71983623 3.95581306 22.28991918 6.30078125 14.875 C7.0442238 11.81816358 7.12591807 9.1339608 7 6 C4.69 5.34 2.38 4.68 0 4 C0 2.68 0 1.36 0 0 Z " fill="#ED635B" transform="translate(256,830)"/>
<path d="M0 0 C0.99 0.66 1.98 1.32 3 2 C3.59251792 8.18398016 2.34465594 13.35857542 0.5625 19.25 C0.10526875 20.81765001 -0.35176928 22.3853564 -0.80859375 23.953125 C-1.01282959 24.63536133 -1.21706543 25.31759766 -1.42749023 26.02050781 C-2.72250159 30.4980993 -3.17789983 34.28565444 -3 39 C-1.85712614 40.35445367 -1.85712614 40.35445367 1.1875 40.3125 C5.87147581 39.92856756 7.46248208 39.09532818 11 36 C16.00886969 29.85466408 19.29763966 24.37024211 20.5625 16.5 C19.83530184 11.97521143 18.0681452 10.75416589 14.53125 8.06640625 C14.0259375 7.71449219 13.520625 7.36257813 13 7 C13.875 2.25 13.875 2.25 15 0 C17.75 -0.3125 17.75 -0.3125 21 0 C24.07404633 2.86432684 24.9396216 4.54454722 25.49609375 8.7421875 C25.4974109 10.11992948 25.47739917 11.49783524 25.4375 12.875 C25.44458984 13.55691406 25.45167969 14.23882813 25.45898438 14.94140625 C25.34879639 23.84120539 20.52349405 33.19093183 14.453125 39.64453125 C8.40906429 44.80067582 2.9882721 47.54114314 -5.02734375 47.31640625 C-7 47 -7 47 -10 45.3125 C-13.70144539 39.18198108 -12.80821982 32.40158536 -11.1953125 25.61328125 C-10.20725179 22.37719096 -9.12160674 19.19195611 -8 16 C-7.40581761 14.06579957 -6.82138191 12.12855815 -6.25 10.1875 C-6.00765625 9.37667969 -5.7653125 8.56585937 -5.515625 7.73046875 C-5.34546875 7.15941406 -5.1753125 6.58835937 -5 6 C-9.51135667 8.19471406 -11.06273348 10.41173718 -13 15 C-14.32 15 -15.64 15 -17 15 C-16.84238796 8.69551854 -13.32392365 5.18412011 -9 1 C-5.98131566 -0.50934217 -3.32702771 -0.17510672 0 0 Z " fill="#E96059" transform="translate(354,848)"/>
<path d="M0 0 C4.29 0 8.58 0 13 0 C13 19.14 13 38.28 13 58 C8.71 58 4.42 58 0 58 C0 38.86 0 19.72 0 0 Z " fill="#FBFAFA" transform="translate(389,725)"/>
<path d="M0 0 C3.63750596 1.61336189 7.17656931 3.35313861 9 7 C9.1875 10 9.1875 10 9 13 C8.34 13.66 7.68 14.32 7 15 C3.70285207 14.67028521 2.3773161 14.3773161 0 12 C-0.39764263 10.01178687 -0.73775349 8.01055661 -1 6 C-6.26271712 5.55288081 -6.26271712 5.55288081 -11.0625 7.1875 C-12.20179214 9.01046357 -12.20179214 9.01046357 -11.85546875 11.359375 C-10.73497896 14.81805582 -9.145153 15.90826633 -6.25 18.0625 C-5.38890625 18.71347656 -4.5278125 19.36445312 -3.640625 20.03515625 C-2.76921875 20.68355469 -1.8978125 21.33195313 -1 22 C5.6497039 27.06415311 5.6497039 27.06415311 6.37109375 31.05078125 C6.50033716 35.45265967 6.28897231 37.54104397 3.875 41.375 C-1.67604775 46.44334794 -5.99731755 47.51551791 -13.37890625 47.28515625 C-18.23645656 46.75668952 -20.97516679 45.02483321 -24.375 41.625 C-26.18607977 38.69940961 -26.62031948 37.36744858 -26 34 C-24.8125 32.125 -24.8125 32.125 -23 31 C-20.4375 31.125 -20.4375 31.125 -18 32 C-15.70366176 35.44450737 -15.45983515 37.93812283 -15 42 C-8.68731397 42.37552165 -8.68731397 42.37552165 -3 40 C-2.49803706 36.71073505 -2.49803706 36.71073505 -3 33 C-4.98894086 31.01105914 -6.73674529 29.60095491 -9 28 C-19.48297087 19.47148133 -19.48297087 19.47148133 -20.4375 13.0625 C-19.70175333 7.91227334 -17.15770568 5.047448 -13.375 1.625 C-8.77972114 -0.58754168 -5.0111288 -0.91601279 0 0 Z " fill="#E85F57" transform="translate(457,848)"/>
<path d="M0 0 C1.98 0 3.96 0 6 0 C5.41312597 6.33823952 3.93804094 11.93308922 2 18 C5.96 18 9.92 18 14 18 C13.67 19.65 13.34 21.3 13 23 C8.71 23 4.42 23 0 23 C-0.37125 25.5059375 -0.37125 25.5059375 -0.75 28.0625 C-1.77902079 34.3559315 -3.40151806 40.34896477 -5.1953125 46.45703125 C-6.02040169 50.08982687 -6.14258131 53.28813326 -6 57 C-2.47465971 56.70622164 -1.25695065 56.27897499 1.1875 53.625 C2.47450432 51.76106271 3.74355295 49.88467057 5 48 C6.32 48.33 7.64 48.66 9 49 C6.34818675 54.97028346 3.60527007 59.47631095 -1.875 63.3125 C-5.13356566 64.36674183 -7.59864079 64.41771078 -11 64 C-13.9375 62 -13.9375 62 -16 59 C-16.82495201 51.21393612 -14.46906562 43.98092883 -12.5 36.5 C-12.16188198 35.18772602 -11.82463494 33.87522731 -11.48828125 32.5625 C-10.66737414 29.37268952 -9.83773363 26.18542485 -9 23 C-11.31 23 -13.62 23 -16 23 C-16 21.68 -16 20.36 -16 19 C-14.783125 18.814375 -13.56625 18.62875 -12.3125 18.4375 C-8.11560065 17.3623226 -6.30519798 15.78605116 -4.03125 12.15234375 C-2.16597804 8.25929507 -1.03447163 4.17993822 0 0 Z " fill="#E8615A" transform="translate(491,831)"/>
<path d="M0 0 C2.84874395 2.84226954 3.43160218 5.03666401 3.4375 9 C3.13182233 18.53969053 0.28581062 26.46937675 -6.21875 33.4765625 C-9.00458985 35.85918868 -11.32853502 36.88570809 -14.9375 37.5 C-18.48960785 36.92006402 -20.0387204 35.743795 -22.1484375 32.82421875 C-24.43275014 27.93076002 -21.8933745 22.35871246 -20.3125 17.5625 C-16.44264542 7.4445893 -11.7816845 -1.30907606 0 0 Z " fill="#282A31" transform="translate(780,854)"/>
<path d="M0 0 C2.04698414 2.04698414 1.70045693 6.30411241 2 9 C2.48210938 8.43410156 2.96421875 7.86820313 3.4609375 7.28515625 C4.09257813 6.55167969 4.72421875 5.81820312 5.375 5.0625 C6.00148438 4.33160156 6.62796875 3.60070312 7.2734375 2.84765625 C9.22123942 0.76324379 10.22531576 0.07643943 13.05859375 -0.203125 C13.84363281 -0.21859375 14.62867188 -0.2340625 15.4375 -0.25 C16.21996094 -0.27578125 17.00242187 -0.3015625 17.80859375 -0.328125 C20.5317221 0.07961614 21.3771745 0.80892961 23 3 C23.39365568 6.14924548 23.52854531 8.11909116 21.875 10.875 C19.15781176 12.50531294 17.10347254 12.33015665 14 12 C13.34 11.34 12.68 10.68 12 10 C12 8.68 12 7.36 12 6 C-0.11789504 14.08908838 -3.5559881 28.31560972 -6.37109375 41.80859375 C-6.57863281 42.86175781 -6.78617188 43.91492188 -7 45 C-10.3 45 -13.6 45 -17 45 C-15.19254026 35.56632856 -12.77714108 26.40812486 -10.06982422 17.19848633 C-9.8173291 16.33763428 -9.56483398 15.47678223 -9.3046875 14.58984375 C-8.9641333 13.44310181 -8.9641333 13.44310181 -8.61669922 12.27319336 C-7.96330773 9.8647499 -7.4635154 7.4514394 -7 5 C-9.45631001 5.49547543 -9.45631001 5.49547543 -12 7 C-13.34776978 9.27962623 -14.11364216 11.48087772 -15 14 C-16.32 14 -17.64 14 -19 14 C-18.86657308 8.66292332 -16.74560991 5.39754209 -13.25 1.57421875 C-9.195127 -1.26278441 -4.72671949 -0.79323839 0 0 Z " fill="#E66058" transform="translate(719,849)"/>
<path d="M0 0 C2.96107467 2.02599846 3.82733979 3.31128832 4.69921875 6.7890625 C5.52071974 15.55885234 0.18017907 25.17041068 -5 32 C-8.17904542 34.78166474 -9.98330661 35.83732906 -14.125 36.5 C-17 36 -17 36 -19.375 34.6875 C-22.06263356 30.24256757 -21.7308703 26.04556954 -21 21 C-18.74783956 13.0775772 -15.08141635 6.59122662 -9 1 C-5.90826248 -0.54586876 -3.40570448 -0.29359521 0 0 Z " fill="#272930" transform="translate(675,853)"/>
<path d="M0 0 C0.99 0.33 1.98 0.66 3 1 C1.49480077 4.5228067 -0.58182187 6.77736925 -3.25 9.5 C-15.2380572 22.66373483 -17.87795519 38.55254935 -17.43359375 55.8046875 C-17.07874129 61.96982391 -15.44935937 67.2563216 -13.19140625 72.96875 C-12.12845568 75.67317505 -11.46402623 78.14117171 -11 81 C-13.90197883 80.67543658 -14.85077603 80.17442188 -16.78125 77.91796875 C-25.33490901 64.329315 -27.75372654 51.69821049 -25.4375 35.875 C-22.68570708 24.52385421 -16.30529072 15.03462087 -8 7 C-7.25878906 6.27296875 -6.51757812 5.5459375 -5.75390625 4.796875 C-1.85453338 1.16223019 -1.85453338 1.16223019 0 0 Z " fill="#EA6158" transform="translate(242,826)"/>
<path d="M0 0 C1.32 0 2.64 0 4 0 C12.59342822 16.26831898 18.23951384 30.43480802 13.4375 49.1875 C9.60206049 61.08272674 2.01304938 74.33833876 -9 81 C-9.99 80.67 -10.98 80.34 -12 80 C-10.58685924 76.89526709 -8.86506849 74.49194484 -6.6875 71.875 C2.74569054 59.87801702 6.74558931 46.25934872 6.5625 31.125 C6.55661865 29.89789307 6.5507373 28.67078613 6.54467773 27.40649414 C6.35757126 18.34777327 5.0993282 11.15833514 1 3 C0.67 2.01 0.34 1.02 0 0 Z " fill="#E86259" transform="translate(809,827)"/>
<path d="M0 0 C0.49144679 4.01348214 0.8516893 7.53184988 -1.23046875 11.12109375 C-4.39070016 14.87435624 -6.50780076 16.77104796 -11.59375 17.23828125 C-13.03234375 17.27501953 -13.03234375 17.27501953 -14.5 17.3125 C-15.4590625 17.34988281 -16.418125 17.38726563 -17.40625 17.42578125 C-20 17 -20 17 -21.84765625 15.203125 C-23.60827631 11.83705818 -22.97796013 9.58585381 -22 6 C-19.02404753 3.16837779 -16.07236565 2.26167571 -12.125 1.3125 C-11.11695313 1.06113281 -10.10890625 0.80976562 -9.0703125 0.55078125 C-5.97749767 -0.00403668 -3.13482106 -0.09825559 0 0 Z " fill="#30353C" transform="translate(544,756)"/>
<path d="M0 0 C0.46693504 4.66935037 0.85149069 8.6102711 -2.1875 12.4375 C-6.02770216 15.93635085 -8.39227848 16.79903481 -13.5 17.4375 C-17 17 -17 17 -19.9375 14.8125 C-22 12 -22 12 -22.5625 9.4375 C-21.81695553 6.20680731 -20.50855142 5.1373882 -18 3 C-12.18282911 0.61255467 -6.25535455 -0.41702364 0 0 Z " fill="#292F36" transform="translate(769,757)"/>
<path d="M0 0 C2.78198241 1.37577248 3.86290717 2.55016187 6 5 C6.625 8.5625 6.625 8.5625 6 12 C3.19662859 15.55093712 1.16616338 16.84597842 -3.3125 17.4375 C-7 17 -7 17 -10 14.4375 C-12 11 -12 11 -12.0625 7.375 C-9.97386921 0.74052573 -6.92329014 -1.07430364 0 0 Z " fill="#F4F3F4" transform="translate(398,698)"/>
<path d="M0 0 C1 1 1 1 1.375 4.1875 C1.00184598 7.98123253 0.37010642 9.8605723 -2.2421875 12.64453125 C-7.14171067 16.42260801 -12.85508977 18.2852994 -19 18 C-17.26952909 10.88034827 -14.3360593 6.04032589 -9 1 C-6.01787087 -0.49106457 -3.28390342 -0.11941467 0 0 Z " fill="#2C2D32" transform="translate(416,853)"/>
<path d="M0 0 C0.33 0 0.66 0 1 0 C1 19.8 1 39.6 1 60 C0.67 60 0.34 60 0 60 C-0.33 42.51 -0.66 25.02 -1 7 C-1.99 7.66 -2.98 8.32 -4 9 C-2.94124926 5.59687262 -1.99097846 2.98646769 0 0 Z " fill="#53565B" transform="translate(208,723)"/>
<path d="M0 0 C-1.65 0.33 -3.3 0.66 -5 1 C-5 1.99 -5 2.98 -5 4 C2.92 4 10.84 4 19 4 C19 3.01 19 2.02 19 1 C17.02 1 15.04 1 13 1 C13 0.67 13 0.34 13 0 C15.31 0 17.62 0 20 0 C20 1.65 20 3.3 20 5 C10.43 5 0.86 5 -9 5 C-8.67 3.35 -8.34 1.7 -8 0 C-2.25 -1.125 -2.25 -1.125 0 0 Z " fill="#D25652" transform="translate(251,889)"/>
<path d="M0 0 C-0.33 0.99 -0.66 1.98 -1 3 C-0.34 3.66 0.32 4.32 1 5 C-0.1446875 5.556875 -0.1446875 5.556875 -1.3125 6.125 C-4.52043115 8.3630915 -5.4977816 10.44211433 -7 14 C-7.99 14 -8.98 14 -10 14 C-9.63074596 7.84576594 -8.17122773 5.27296499 -4 1 C-2 0 -2 0 0 0 Z " fill="#D75651" transform="translate(293,849)"/>
<path d="M0 0 C1.32 0.33 2.64 0.66 4 1 C2.63855967 6.19822672 0.53269829 9.09543873 -3 13 C-3.99 12.67 -4.98 12.34 -6 12 C-4.43358249 7.69235185 -2.31663844 3.93828536 0 0 Z " fill="#DF5954" transform="translate(634,880)"/>
<path d="M0 0 C0.66 0.33 1.32 0.66 2 1 C1.360625 1.53625 0.72125 2.0725 0.0625 2.625 C-2.41379792 5.47649458 -2.60647222 7.30083884 -3 11 C-3.33 11.99 -3.66 12.98 -4 14 C-5.32 14 -6.64 14 -8 14 C-7.84036991 7.61479646 -4.21875117 4.33991635 0 0 Z " fill="#D95753" transform="translate(345,849)"/>
<path d="M0 0 C0.66 0.33 1.32 0.66 2 1 C0.35 2.98 -1.3 4.96 -3 7 C-2.67 7.66 -2.34 8.32 -2 9 C-2.9375 11.625 -2.9375 11.625 -4 14 C-5.32 14 -6.64 14 -8 14 C-7.84036991 7.61479646 -4.21875117 4.33991635 0 0 Z " fill="#C8514C" transform="translate(708,849)"/>
<path d="M0 0 C0.66 0.66 1.32 1.32 2 2 C1.43410156 2.3196875 0.86820312 2.639375 0.28515625 2.96875 C-2.86374611 5.13811683 -5.50625465 7.03158841 -6.47705078 10.90185547 C-7.08776034 15.59042459 -7.09067343 20.27931457 -7 25 C-7.33 25 -7.66 25 -8 25 C-9.22690583 8.89686099 -9.22690583 8.89686099 -6.21875 4.24609375 C-4.21763184 2.55853108 -2.32586312 1.19408151 0 0 Z " fill="#3B3E44" transform="translate(259,758)"/>
<path d="M0 0 C0.66 0.33 1.32 0.66 2 1 C-1.96 4.96 -5.92 8.92 -10 13 C-10.66 12.67 -11.32 12.34 -12 12 C-8.32167983 7.47384007 -4.58913637 3.60575001 0 0 Z " fill="#233930" transform="translate(379,326)"/>
<path d="M0 0 C1.8871875 0.061875 1.8871875 0.061875 3.8125 0.125 C3.8125 0.455 3.8125 0.785 3.8125 1.125 C2.69875 1.24875 1.585 1.3725 0.4375 1.5 C-3.21853677 1.7715813 -3.21853677 1.7715813 -5.1875 4.125 C-5.83517793 6.69561311 -5.83517793 6.69561311 -6.1875 9.125 C-6.8475 8.465 -7.5075 7.805 -8.1875 7.125 C-8 4.625 -8 4.625 -7.1875 2.125 C-4.09861478 0.06574319 -3.47814073 -0.1140374 0 0 Z " fill="#4E3139" transform="translate(452.1875,852.875)"/>
<path d="M0 0 C0.94875 0.04125 1.8975 0.0825 2.875 0.125 C2.875 0.455 2.875 0.785 2.875 1.125 C1.988125 1.351875 1.10125 1.57875 0.1875 1.8125 C-3.55880532 3.29688513 -5.46229434 5.14903485 -8.125 8.125 C-8.785 7.795 -9.445 7.465 -10.125 7.125 C-3.125 0.125 -3.125 0.125 0 0 Z " fill="#4D363C" transform="translate(620.125,853.875)"/>
<path d="M0 0 C0.66 0 1.32 0 2 0 C3.4606285 2.64738916 4 3.89448334 4 7 C2.0625 6.6875 2.0625 6.6875 0 6 C-1 3 -1 3 0 0 Z " fill="#E15B53" transform="translate(227,900)"/>
<path d="M0 0 C-1 2 -1 2 -4.3125 3.1875 C-7.75666263 3.94638329 -8.83008446 3.98666245 -12 3 C-10.5682384 2.30062798 -9.12932968 1.61587282 -7.6875 0.9375 C-6.48673828 0.36322266 -6.48673828 0.36322266 -5.26171875 -0.22265625 C-3 -1 -3 -1 0 0 Z " fill="#E2B516" transform="translate(490,640)"/>
<path d="M0 0 C2.31 1.98 4.62 3.96 7 6 C6.34 6.66 5.68 7.32 5 8 C4.34 8 3.68 8 3 8 C0 2.25 0 2.25 0 0 Z " fill="#E0B91C" transform="translate(642,264)"/>
<path d="M0 0 C0.33 0 0.66 0 1 0 C1 1.98 1 3.96 1 6 C-1.31 5.67 -3.62 5.34 -6 5 C-5.195625 4.360625 -4.39125 3.72125 -3.5625 3.0625 C-1.7249496 1.59396498 -1.7249496 1.59396498 0 0 Z " fill="#5F6267" transform="translate(769,777)"/>
<path d="M0 0 C2.64 0 5.28 0 8 0 C7.34 1.65 6.68 3.3 6 5 C3.98079663 3.69593116 1.98075027 2.36176581 0 1 C0 0.67 0 0.34 0 0 Z " fill="#394F2E" transform="translate(689,293)"/>
<path d="M0 0 C-1.33332095 3.99996286 -3.4957827 4.83782337 -7 7 C-6.61402985 4.20171644 -6.19863427 3.1794116 -4.0625 1.25 C-2 0 -2 0 0 0 Z " fill="#E16660" transform="translate(575,131)"/>
<path d="M0 0 C2.625 -0.1875 2.625 -0.1875 5 0 C5 0.99 5 1.98 5 3 C2.69 3 0.38 3 -2 3 C-1.34 2.01 -0.68 1.02 0 0 Z " fill="#F86160" transform="translate(499,850)"/>
<path d="M0 0 C0.66 0.33 1.32 0.66 2 1 C-0.31 3.31 -2.62 5.62 -5 8 C-5.33 7.34 -5.66 6.68 -6 6 C-4 4 -2 2 0 0 Z " fill="#DCDBDD" transform="translate(741,753)"/>
<path d="M0 0 C0.99 0 1.98 0 3 0 C2.43628586 3.26954202 1.50037734 4.82575883 -1 7 C-0.67 4.69 -0.34 2.38 0 0 Z " fill="#352F34" transform="translate(755,892)"/>
<path d="M0 0 C1.32 0.66 2.64 1.32 4 2 C0.17679443 3.42258812 -2.91281305 4.24042276 -7 4 C-6.1028125 3.566875 -6.1028125 3.566875 -5.1875 3.125 C-2.80672208 1.95257974 -2.80672208 1.95257974 0 0 Z " fill="#CB5350" transform="translate(404,871)"/>
<path d="M0 0 C0.66 0.33 1.32 0.66 2 1 C-0.31 3.31 -2.62 5.62 -5 8 C-5 5 -5 5 -2.5 2.3125 C-1.675 1.549375 -0.85 0.78625 0 0 Z " fill="#515459" transform="translate(470,737)"/>
</svg>
